  0
SECTION
  2
HEADER
  9
$ACADVER
  1
AC1015
  9
$ACADMAINTVER
 70
     6
  9
$DWGCODEPAGE
  3
ANSI_1252
  9
$INSBASE
 10
0.0
 20
0.0
 30
0.0
  9
$EXTMIN
 10
0.0
 20
0.0
 30
0.0
  9
$EXTMAX
 10
420.0
 20
297.0
 30
0.0
  9
$LIMMIN
 10
0.0
 20
0.0
  9
$LIMMAX
 10
420.0
 20
297.0
  9
$ORTHOMODE
 70
     0
  9
$REGENMODE
 70
     1
  9
$FILLMODE
 70
     1
  9
$QTEXTMODE
 70
     0
  9
$MIRRTEXT
 70
     1
  9
$LTSCALE
 40
1.0
  9
$ATTMODE
 70
     1
  9
$TEXTSIZE
 40
3.175
  9
$TRACEWID
 40
1.0
  9
$TEXTSTYLE
  7
Standard
  9
$CLAYER
  8
0
  9
$CELTYPE
  6
ByLayer
  9
$CECOLOR
 62
   256
  9
$CELTSCALE
 40
1.0
  9
$DISPSILH
 70
     0
  9
$DIMSCALE
 40
1.0
  9
$DIMASZ
 40
3.302
  9
$DIMEXO
 40
1.27
  9
$DIMDLI
 40
3.75
  9
$DIMRND
 40
0.0
  9
$DIMDLE
 40
0.0
  9
$DIMEXE
 40
3.175
  9
$DIMTP
 40
0.0
  9
$DIMTM
 40
0.0
  9
$DIMTXT
 40
3.175
  9
$DIMCEN
 40
2.5
  9
$DIMTSZ
 40
0.0
  9
$DIMTOL
 70
     0
  9
$DIMLIM
 70
     0
  9
$DIMTIH
 70
     1
  9
$DIMTOH
 70
     1
  9
$DIMSE1
 70
     0
  9
$DIMSE2
 70
     0
  9
$DIMTAD
 70
     0
  9
$DIMZIN
 70
     1
  9
$DIMBLK
  1

  9
$DIMASO
 70
     1
  9
$DIMSHO
 70
     1
  9
$DIMPOST
  1

  9
$DIMAPOST
  1

  9
$DIMALT
 70
     0
  9
$DIMALTD
 70
     3
  9
$DIMALTF
 40
0.0393700787
  9
$DIMLFAC
 40
1.0
  9
$DIMTOFL
 70
     1
  9
$DIMTVP
 40
0.0
  9
$DIMTIX
 70
     0
  9
$DIMSOXD
 70
     0
  9
$DIMSAH
 70
     0
  9
$DIMBLK1
  1

  9
$DIMBLK2
  1

  9
$DIMSTYLE
  2
ISO-25
  9
$DIMCLRD
 70
     0
  9
$DIMCLRE
 70
     0
  9
$DIMCLRT
 70
     0
  9
$DIMTFAC
 40
1.0
  9
$DIMGAP
 40
1.524
  9
$DIMJUST
 70
     0
  9
$DIMSD1
 70
     0
  9
$DIMSD2
 70
     0
  9
$DIMTOLJ
 70
     0
  9
$DIMTZIN
 70
     1
  9
$DIMALTZ
 70
     0
  9
$DIMALTTZ
 70
     0
  9
$DIMUPT
 70
     0
  9
$DIMDEC
 70
     2
  9
$DIMTDEC
 70
     2
  9
$DIMALTU
 70
     2
  9
$DIMALTTD
 70
     3
  9
$DIMTXSTY
  7
Standard
  9
$DIMAUNIT
 70
     0
  9
$DIMADEC
 70
     2
  9
$DIMALTRND
 40
0.0
  9
$DIMAZIN
 70
     0
  9
$DIMDSEP
 70
    44
  9
$DIMATFIT
 70
     3
  9
$DIMFRAC
 70
     0
  9
$DIMLDRBLK
  1

  9
$DIMLUNIT
 70
     2
  9
$DIMLWD
 70
    -2
  9
$DIMLWE
 70
    -2
  9
$DIMTMOVE
 70
     0
  9
$LUNITS
 70
     2
  9
$LUPREC
 70
     2
  9
$SKETCHINC
 40
1.0
  9
$FILLETRAD
 40
10.0
  9
$AUNITS
 70
     0
  9
$AUPREC
 70
     2
  9
$MENU
  1
.
  9
$ELEVATION
 40
0.0
  9
$PELEVATION
 40
0.0
  9
$THICKNESS
 40
0.0
  9
$LIMCHECK
 70
     0
  9
$CHAMFERA
 40
0.0
  9
$CHAMFERB
 40
0.0
  9
$CHAMFERC
 40
0.0
  9
$CHAMFERD
 40
0.0
  9
$SKPOLY
 70
     0
  9
$TDCREATE
 40
2459783.48590338
  9
$TDUCREATE
 40
2459783.256736713
  9
$TDUPDATE
 40
2459783.485906724
  9
$TDUUPDATE
 40
2459783.256740058
  9
$TDINDWG
 40
0.0000000116
  9
$TDUSRTIMER
 40
0.0000000116
  9
$USRTIMER
 70
     1
  9
$ANGBASE
 50
0.0
  9
$ANGDIR
 70
     0
  9
$PDMODE
 70
     0
  9
$PDSIZE
 40
-1.0
  9
$PLINEWID
 40
0.0
  9
$SPLFRAME
 70
     0
  9
$SPLINETYPE
 70
     6
  9
$SPLINESEGS
 70
     8
  9
$HANDSEED
  5
2D5
  9
$SURFTAB1
 70
     6
  9
$SURFTAB2
 70
     6
  9
$SURFTYPE
 70
     6
  9
$SURFU
 70
     6
  9
$SURFV
 70
     6
  9
$UCSBASE
  2

  9
$UCSNAME
  2

  9
$UCSORG
 10
0.0
 20
0.0
 30
0.0
  9
$UCSXDIR
 10
1.0
 20
0.0
 30
0.0
  9
$UCSYDIR
 10
0.0
 20
1.0
 30
0.0
  9
$UCSORTHOREF
  2

  9
$UCSORTHOVIEW
 70
     0
  9
$UCSORGTOP
 10
0.0
 20
0.0
 30
0.0
  9
$UCSORGBOTTOM
 10
0.0
 20
0.0
 30
0.0
  9
$UCSORGLEFT
 10
0.0
 20
0.0
 30
0.0
  9
$UCSORGRIGHT
 10
0.0
 20
0.0
 30
0.0
  9
$UCSORGFRONT
 10
0.0
 20
0.0
 30
0.0
  9
$UCSORGBACK
 10
0.0
 20
0.0
 30
0.0
  9
$PUCSBASE
  2

  9
$PUCSNAME
  2

  9
$PUCSORG
 10
0.0
 20
0.0
 30
0.0
  9
$PUCSXDIR
 10
1.0
 20
0.0
 30
0.0
  9
$PUCSYDIR
 10
0.0
 20
1.0
 30
0.0
  9
$PUCSORTHOREF
  2

  9
$PUCSORTHOVIEW
 70
     0
  9
$PUCSORGTOP
 10
0.0
 20
0.0
 30
0.0
  9
$PUCSORGBOTTOM
 10
0.0
 20
0.0
 30
0.0
  9
$PUCSORGLEFT
 10
0.0
 20
0.0
 30
0.0
  9
$PUCSORGRIGHT
 10
0.0
 20
0.0
 30
0.0
  9
$PUCSORGFRONT
 10
0.0
 20
0.0
 30
0.0
  9
$PUCSORGBACK
 10
0.0
 20
0.0
 30
0.0
  9
$USERI1
 70
     0
  9
$USERI2
 70
     0
  9
$USERI3
 70
     0
  9
$USERI4
 70
     0
  9
$USERI5
 70
     0
  9
$USERR1
 40
0.0
  9
$USERR2
 40
0.0
  9
$USERR3
 40
0.0
  9
$USERR4
 40
0.0
  9
$USERR5
 40
0.0
  9
$WORLDVIEW
 70
     1
  9
$SHADEDGE
 70
     3
  9
$SHADEDIF
 70
    70
  9
$TILEMODE
 70
     0
  9
$MAXACTVP
 70
    64
  9
$PINSBASE
 10
0.0
 20
0.0
 30
0.0
  9
$PLIMCHECK
 70
     0
  9
$PEXTMIN
 10
0.0
 20
0.0
 30
0.0
  9
$PEXTMAX
 10
420.0
 20
297.0
 30
0.0
  9
$PLIMMIN
 10
0.0
 20
0.0
  9
$PLIMMAX
 10
420.0
 20
297.0
  9
$UNITMODE
 70
     0
  9
$VISRETAIN
 70
     1
  9
$PLINEGEN
 70
     0
  9
$PSLTSCALE
 70
     1
  9
$TREEDEPTH
 70
  3020
  9
$CMLSTYLE
  2
Standard
  9
$CMLJUST
 70
     0
  9
$CMLSCALE
 40
20.0
  9
$PROXYGRAPHICS
 70
     1
  9
$MEASUREMENT
 70
     1
  9
$CELWEIGHT
370
    -1
  9
$ENDCAPS
280
     0
  9
$JOINSTYLE
280
     0
  9
$LWDISPLAY
290
     1
  9
$INSUNITS
 70
     4
  9
$HYPERLINKBASE
  1

  9
$STYLESHEET
  1

  9
$XEDIT
290
     1
  9
$CEPSNTYPE
380
     0
  9
$PSTYLEMODE
290
     1
  9
$FINGERPRINTGUID
  2
{C9FEEBA9-31EF-4ABF-978F-EC5EE7D036CF}
  9
$VERSIONGUID
  2
{FAEB1C32-E019-11D5-929B-00C0DF256EC4}
  9
$EXTNAMES
290
     1
  9
$PSVPSCALE
 40
0.0
  9
$OLESTARTUP
290
     0
  0
ENDSEC
  0
SECTION
  2
CLASSES
  0
CLASS
  1
ACDBDICTIONARYWDFLT
  2
AcDbDictionaryWithDefault
  3
ObjectDBX Classes
 90
        0
280
     0
281
     0
  0
CLASS
  1
VISUALSTYLE
  2
AcDbVisualStyle
  3
ObjectDBX Classes
 90
     4095
280
     0
281
     0
  0
CLASS
  1
MATERIAL
  2
AcDbMaterial
  3
ObjectDBX Classes
 90
     1153
280
     0
281
     0
  0
CLASS
  1
SCALE
  2
AcDbScale
  3
ObjectDBX Classes
 90
     1153
280
     0
281
     0
  0
CLASS
  1
TABLESTYLE
  2
AcDbTableStyle
  3
ObjectDBX Classes
 90
     4095
280
     0
281
     0
  0
CLASS
  1
MLEADERSTYLE
  2
AcDbMLeaderStyle
  3
ACDB_MLEADERSTYLE_CLASS
 90
     4095
280
     0
281
     0
  0
CLASS
  1
SUN
  2
AcDbSun
  3
SCENEOE
 90
     1153
280
     0
281
     0
  0
CLASS
  1
ACDBPLACEHOLDER
  2
AcDbPlaceHolder
  3
ObjectDBX Classes
 90
        0
280
     0
281
     0
  0
CLASS
  1
LAYOUT
  2
AcDbLayout
  3
ObjectDBX Classes
 90
        0
280
     0
281
     0
  0
ENDSEC
  0
SECTION
  2
TABLES
  0
TABLE
  2
VPORT
  5
8
330
0
100
AcDbSymbolTable
 70
     1
  0
VPORT
  5
29
330
8
100
AcDbSymbolTableRecord
100
AcDbViewportTableRecord
  2
*Active
 70
     0
 10
0.0
 20
0.0
 11
1.0
 21
1.0
 12
210.0
 22
148.5
 13
0.0
 23
0.0
 14
10.0
 24
10.0
 15
10.0
 25
10.0
 16
0.0
 26
0.0
 36
1.0
 17
0.0
 27
0.0
 37
0.0
 40
297.0
 41
1.4141414141
 42
50.0
 43
0.0
 44
0.0
 50
0.0
 51
0.0
 71
     0
 72
  2000
 73
     1
 74
     3
 75
     0
 76
     0
 77
     0
 78
     0
281
     0
 65
     1
110
0.0
120
0.0
130
0.0
111
1.0
121
0.0
131
0.0
112
0.0
122
1.0
132
0.0
 79
     0
146
0.0
  0
ENDTAB
  0
TABLE
  2
LTYPE
  5
5
330
0
100
AcDbSymbolTable
 70
     6
  0
LTYPE
  5
14
330
5
100
AcDbSymbolTableRecord
100
AcDbLinetypeTableRecord
  2
ByBlock
 70
     0
  3

 72
    65
 73
     0
 40
0.0
  0
LTYPE
  5
15
330
5
100
AcDbSymbolTableRecord
100
AcDbLinetypeTableRecord
  2
ByLayer
 70
     0
  3

 72
    65
 73
     0
 40
0.0
  0
LTYPE
  5
16
330
5
100
AcDbSymbolTableRecord
100
AcDbLinetypeTableRecord
  2
Continuous
 70
     0
  3
Solid line
 72
    65
 73
     0
 40
0.0
  0
LTYPE
  5
6E
330
5
100
AcDbSymbolTableRecord
100
AcDbLinetypeTableRecord
  2
HIDDEN
 70
     0
  3
Hidden __ __ __ __ __ __ __ __ __ __ __ __ __ __
 72
    65
 73
     2
 40
1.905
 49
1.27
 74
     0
 49
-0.635
 74
     0
  0
LTYPE
  5
6F
330
5
100
AcDbSymbolTableRecord
100
AcDbLinetypeTableRecord
  2
PHANTOM
 70
     0
  3
Phantom ______  __  __  ______  __  __  ______
 72
    65
 73
     6
 40
12.7
 49
6.35
 74
     0
 49
-1.27
 74
     0
 49
1.27
 74
     0
 49
-1.27
 74
     0
 49
1.27
 74
     0
 49
-1.27
 74
     0
  0
LTYPE
  5
70
330
5
100
AcDbSymbolTableRecord
100
AcDbLinetypeTableRecord
  2
CENTER
 70
     0
  3
Center ____ _ ____ _ ____ _ ____ _ ____ _ ____
 72
    65
 73
     4
 40
10.16
 49
6.35
 74
     0
 49
-1.27
 74
     0
 49
1.27
 74
     0
 49
-1.27
 74
     0
  0
LTYPE
  5
71
330
5
100
AcDbSymbolTableRecord
100
AcDbLinetypeTableRecord
  2
CENTERX2
 70
     0
  3
Center (2x) ________  __  ________  __  _____
 72
    65
 73
     4
 40
20.32
 49
12.7
 74
     0
 49
-2.54
 74
     0
 49
2.54
 74
     0
 49
-2.54
 74
     0
  0
LTYPE
  5
72
330
5
100
AcDbSymbolTableRecord
100
AcDbLinetypeTableRecord
  2
DOT2
 70
     0
  3
Dot (.5x) ........................................
 72
    65
 73
     2
 40
0.635
 49
0.0
 74
     0
 49
-0.635
 74
     0
  0
ENDTAB
  0
TABLE
  2
LAYER
  5
2
330
0
100
AcDbSymbolTable
 70
     2
  0
LAYER
  5
10
330
2
100
AcDbSymbolTableRecord
100
AcDbLayerTableRecord
  2
0
 70
     0
 62
     7
  6
Continuous
370
    -3
390
F
  0
LAYER
  5
73
330
2
100
AcDbSymbolTableRecord
100
AcDbLayerTableRecord
  2
FORMAT
 70
     0
 62
     7
  6
Continuous
370
    -3
390
F
  0
ENDTAB
  0
TABLE
  2
STYLE
  5
3
330
0
100
AcDbSymbolTable
 70
     4
  0
STYLE
  5
11
330
3
100
AcDbSymbolTableRecord
100
AcDbTextStyleTableRecord
  2
Standard
 70
     0
 40
0.0
 41
1.0
 50
0.0
 71
     0
 42
3.175
  3
txt
  4

  0
STYLE
  5
141
330
3
100
AcDbSymbolTableRecord
100
AcDbTextStyleTableRecord
  2
SLDTEXTSTYLE0
 70
     0
 40
0.0
 41
0.75
 50
0.0
 71
     0
 42
3.175
  3
TXT
  4

  0
STYLE
  5
2AF
330
3
100
AcDbSymbolTableRecord
100
AcDbTextStyleTableRecord
  2
SLDTEXTSTYLE1
 70
     0
 40
0.0
 41
0.6864493306
 50
0.0
 71
     0
 42
3.175
  3
TXT
  4

  0
STYLE
  5
2D0
330
3
100
AcDbSymbolTableRecord
100
AcDbTextStyleTableRecord
  2
SLDTEXTSTYLE2
 70
     0
 40
0.0
 41
0.6875
 50
0.0
 71
     0
 42
3.175
  3
TXT
  4

  0
ENDTAB
  0
TABLE
  2
VIEW
  5
6
330
0
100
AcDbSymbolTable
 70
     0
  0
ENDTAB
  0
TABLE
  2
UCS
  5
7
330
0
100
AcDbSymbolTable
 70
     0
  0
ENDTAB
  0
TABLE
  2
APPID
  5
9
330
0
100
AcDbSymbolTable
 70
     1
  0
APPID
  5
12
330
9
100
AcDbSymbolTableRecord
100
AcDbRegAppTableRecord
  2
ACAD
 70
     0
  0
ENDTAB
  0
TABLE
  2
DIMSTYLE
  5
A
330
0
100
AcDbSymbolTable
 70
     6
100
AcDbDimStyleTable
  0
DIMSTYLE
105
27
330
A
100
AcDbSymbolTableRecord
100
AcDbDimStyleTableRecord
  2
ISO-25
 70
     0
 41
2.5
 42
0.625
 43
3.75
 44
1.25
 73
     0
 74
     0
 77
     1
 78
     8
140
2.5
141
2.5
143
0.0393700787
147
0.625
171
     3
172
     1
178
     0
271
     2
272
     2
274
     3
278
    44
283
     0
284
     8
340
11
  0
DIMSTYLE
105
142
102
{ACAD_REACTORS
330
140
330
14D
330
179
330
1F5
330
200
330
228
330
269
102
}
330
A
100
AcDbSymbolTableRecord
100
AcDbDimStyleTableRecord
  2
SLDDIMSTYLE0
 70
     0
 41
3.302
 44
0.0
 45
0.000000001
 78
     4
 79
     1
140
3.175
147
0.79375
173
     1
178
     0
271
     2
272
     2
276
     2
284
    12
340
141
  0
DIMSTYLE
105
159
102
{ACAD_REACTORS
330
158
330
1EC
330
216
330
260
102
}
330
A
100
AcDbSymbolTableRecord
100
AcDbDimStyleTableRecord
  2
SLDDIMSTYLE1
 70
     0
 41
3.302
 44
0.0
 45
0.000000001
 78
     4
 79
     1
140
3.175
141
0.0
147
0.79375
173
     1
178
     0
271
     2
272
     2
276
     2
284
    12
340
141
  0
DIMSTYLE
105
163
102
{ACAD_REACTORS
330
162
330
16E
330
184
330
190
330
19C
330
1A7
330
1B3
330
1BE
330
1C9
330
1D5
330
1E1
330
233
330
249
330
254
330
274
330
27E
330
289
102
}
330
A
100
AcDbSymbolTableRecord
100
AcDbDimStyleTableRecord
  2
SLDDIMSTYLE2
 70
     0
 41
3.302
 44
0.0
 45
0.000000001
 78
     4
 79
     1
140
3.175
147
0.79375
172
     1
173
     1
178
     0
271
     2
272
     2
276
     2
284
    12
289
     0
340
141
  0
DIMSTYLE
105
20C
102
{ACAD_REACTORS
330
20B
102
}
330
A
100
AcDbSymbolTableRecord
100
AcDbDimStyleTableRecord
  2
SLDDIMSTYLE3
 70
     0
 41
3.302
 44
0.0
 78
    12
 79
     3
140
3.175
147
0.79375
173
     1
178
     0
179
     2
272
     2
276
     2
284
    12
340
141
  0
DIMSTYLE
105
220
102
{ACAD_REACTORS
330
21F
330
23F
330
244
102
}
330
A
100
AcDbSymbolTableRecord
100
AcDbDimStyleTableRecord
  2
SLDDIMSTYLE4
 70
     0
 41
3.302
 44
0.0
 45
0.000000001
 78
    12
 79
     3
140
3.175
147
0.79375
172
     1
173
     1
178
     0
271
     2
272
     2
276
     2
284
    12
289
     0
340
141
341
221
343
221
344
221
  0
ENDTAB
  0
TABLE
  2
BLOCK_RECORD
  5
1
330
0
100
AcDbSymbolTable
 70
    36
  0
BLOCK_RECORD
  5
1F
330
1
100
AcDbSymbolTableRecord
100
AcDbBlockTableRecord
  2
*Model_Space
340
22
  0
BLOCK_RECORD
  5
1B
330
1
100
AcDbSymbolTableRecord
100
AcDbBlockTableRecord
  2
*Paper_Space
340
1E
  0
BLOCK_RECORD
  5
143
330
1
100
AcDbSymbolTableRecord
100
AcDbBlockTableRecord
  2
_D
340
0
  0
BLOCK_RECORD
  5
14E
330
1
100
AcDbSymbolTableRecord
100
AcDbBlockTableRecord
  2
_D_1
340
0
  0
BLOCK_RECORD
  5
15A
330
1
100
AcDbSymbolTableRecord
100
AcDbBlockTableRecord
  2
_D_2
340
0
  0
BLOCK_RECORD
  5
164
330
1
100
AcDbSymbolTableRecord
100
AcDbBlockTableRecord
  2
_D_3
340
0
  0
BLOCK_RECORD
  5
16F
330
1
100
AcDbSymbolTableRecord
100
AcDbBlockTableRecord
  2
_D_4
340
0
  0
BLOCK_RECORD
  5
17A
330
1
100
AcDbSymbolTableRecord
100
AcDbBlockTableRecord
  2
_D_5
340
0
  0
BLOCK_RECORD
  5
185
330
1
100
AcDbSymbolTableRecord
100
AcDbBlockTableRecord
  2
_D_6
340
0
  0
BLOCK_RECORD
  5
191
330
1
100
AcDbSymbolTableRecord
100
AcDbBlockTableRecord
  2
_D_7
340
0
  0
BLOCK_RECORD
  5
19D
330
1
100
AcDbSymbolTableRecord
100
AcDbBlockTableRecord
  2
_D_8
340
0
  0
BLOCK_RECORD
  5
1A8
330
1
100
AcDbSymbolTableRecord
100
AcDbBlockTableRecord
  2
_D_9
340
0
  0
BLOCK_RECORD
  5
1B4
330
1
100
AcDbSymbolTableRecord
100
AcDbBlockTableRecord
  2
_D_10
340
0
  0
BLOCK_RECORD
  5
1BF
330
1
100
AcDbSymbolTableRecord
100
AcDbBlockTableRecord
  2
_D_11
340
0
  0
BLOCK_RECORD
  5
1CA
330
1
100
AcDbSymbolTableRecord
100
AcDbBlockTableRecord
  2
_D_12
340
0
  0
BLOCK_RECORD
  5
1D6
330
1
100
AcDbSymbolTableRecord
100
AcDbBlockTableRecord
  2
_D_13
340
0
  0
BLOCK_RECORD
  5
1E2
330
1
100
AcDbSymbolTableRecord
100
AcDbBlockTableRecord
  2
_D_14
340
0
  0
BLOCK_RECORD
  5
1ED
330
1
100
AcDbSymbolTableRecord
100
AcDbBlockTableRecord
  2
_D_15
340
0
  0
BLOCK_RECORD
  5
1F6
330
1
100
AcDbSymbolTableRecord
100
AcDbBlockTableRecord
  2
_D_16
340
0
  0
BLOCK_RECORD
  5
201
330
1
100
AcDbSymbolTableRecord
100
AcDbBlockTableRecord
  2
_D_17
340
0
  0
BLOCK_RECORD
  5
20D
330
1
100
AcDbSymbolTableRecord
100
AcDbBlockTableRecord
  2
_D_18
340
0
  0
BLOCK_RECORD
  5
217
330
1
100
AcDbSymbolTableRecord
100
AcDbBlockTableRecord
  2
_D_19
340
0
  0
BLOCK_RECORD
  5
221
330
1
100
AcDbSymbolTableRecord
100
AcDbBlockTableRecord
  2
_NONE
340
0
  0
BLOCK_RECORD
  5
224
330
1
100
AcDbSymbolTableRecord
100
AcDbBlockTableRecord
  2
_D_20
340
0
  0
BLOCK_RECORD
  5
229
330
1
100
AcDbSymbolTableRecord
100
AcDbBlockTableRecord
  2
_D_21
340
0
  0
BLOCK_RECORD
  5
234
330
1
100
AcDbSymbolTableRecord
100
AcDbBlockTableRecord
  2
_D_22
340
0
  0
BLOCK_RECORD
  5
240
330
1
100
AcDbSymbolTableRecord
100
AcDbBlockTableRecord
  2
_D_23
340
0
  0
BLOCK_RECORD
  5
245
330
1
100
AcDbSymbolTableRecord
100
AcDbBlockTableRecord
  2
_D_24
340
0
  0
BLOCK_RECORD
  5
24A
330
1
100
AcDbSymbolTableRecord
100
AcDbBlockTableRecord
  2
_D_25
340
0
  0
BLOCK_RECORD
  5
255
330
1
100
AcDbSymbolTableRecord
100
AcDbBlockTableRecord
  2
_D_26
340
0
  0
BLOCK_RECORD
  5
261
330
1
100
AcDbSymbolTableRecord
100
AcDbBlockTableRecord
  2
_D_27
340
0
  0
BLOCK_RECORD
  5
26A
330
1
100
AcDbSymbolTableRecord
100
AcDbBlockTableRecord
  2
_D_28
340
0
  0
BLOCK_RECORD
  5
275
330
1
100
AcDbSymbolTableRecord
100
AcDbBlockTableRecord
  2
_D_29
340
0
  0
BLOCK_RECORD
  5
27F
330
1
100
AcDbSymbolTableRecord
100
AcDbBlockTableRecord
  2
_D_30
340
0
  0
BLOCK_RECORD
  5
28A
330
1
100
AcDbSymbolTableRecord
100
AcDbBlockTableRecord
  2
_D_31
340
0
  0
BLOCK_RECORD
  5
2B5
330
1
100
AcDbSymbolTableRecord
100
AcDbBlockTableRecord
  2
SW_NOTE_0
340
0
102
{BLKREFS
331
2BE
102
}
  0
BLOCK_RECORD
  5
2C0
330
1
100
AcDbSymbolTableRecord
100
AcDbBlockTableRecord
  2
SW_NOTE_1
340
0
102
{BLKREFS
331
2C6
102
}
  0
ENDTAB
  0
ENDSEC
  0
SECTION
  2
BLOCKS
  0
BLOCK
  5
20
330
1F
100
AcDbEntity
  8
0
100
AcDbBlockBegin
  2
*Model_Space
 70
     0
 10
0.0
 20
0.0
 30
0.0
  3
*Model_Space
  1

  0
ENDBLK
  5
21
330
1F
100
AcDbEntity
  8
0
100
AcDbBlockEnd
  0
BLOCK
  5
1C
330
1B
100
AcDbEntity
 67
     1
  8
0
100
AcDbBlockBegin
  2
*Paper_Space
 70
     0
 10
0.0
 20
0.0
 30
0.0
  3
*Paper_Space
  1

  0
ENDBLK
  5
1D
330
1B
100
AcDbEntity
 67
     1
  8
0
100
AcDbBlockEnd
  0
BLOCK
  5
144
330
143
100
AcDbEntity
  8
0
100
AcDbBlockBegin
  2
_D
 70
     0
 10
0.0
 20
0.0
 30
0.0
  3
_D
  1

  0
SOLID
  5
146
330
143
100
AcDbEntity
  8
0
  6
Continuous
 62
     7
370
    18
100
AcDbTrace
 10
194.7133615723
 20
226.6400544854
 30
0.0
 11
198.0153615723
 21
226.1320544854
 31
0.0
 12
198.0153615723
 22
227.1480544854
 32
0.0
 13
198.0153615723
 23
227.1480544854
 33
0.0
  0
SOLID
  5
147
330
143
100
AcDbEntity
  8
0
  6
Continuous
 62
     7
370
    18
100
AcDbTrace
 10
271.7133615723
 20
226.6400544854
 30
0.0
 11
268.4113615723
 21
227.1480544854
 31
0.0
 12
268.4113615723
 22
226.1320544854
 32
0.0
 13
268.4113615723
 23
226.1320544854
 33
0.0
  0
LINE
  5
148
330
143
100
AcDbEntity
  8
0
  6
Continuous
 62
     7
370
    18
100
AcDbLine
 10
194.7133615723
 20
223.3043469327
 30
0.0
 11
194.7133615723
 21
229.8150544854
 31
0.0
  0
LINE
  5
149
330
143
100
AcDbEntity
  8
0
  6
Continuous
 62
     7
370
    18
100
AcDbLine
 10
271.7133615723
 20
223.3043469327
 30
0.0
 11
271.7133615723
 21
229.8150544854
 31
0.0
  0
LINE
  5
14A
330
143
100
AcDbEntity
  8
0
  6
Continuous
 62
     7
370
    18
100
AcDbLine
 10
194.7133615723
 20
226.6400544854
 30
0.0
 11
228.9974332183
 21
226.6400544854
 31
0.0
  0
LINE
  5
14B
330
143
100
AcDbEntity
  8
0
  6
Continuous
 62
     7
370
    18
100
AcDbLine
 10
271.7133615723
 20
226.6400544854
 30
0.0
 11
239.554308015
 21
226.6400544854
 31
0.0
  0
MTEXT
  5
14C
330
143
100
AcDbEntity
  8
0
  6
Continuous
 62
     7
370
    18
100
AcDbMText
 10
228.9974332183
 20
228.2126885827
 30
0.0
 40
3.175
 41
0.0
 71
     1
 72
     1
  1
77.00
  7
SLDTEXTSTYLE0
 73
     1
 44
1.0
  0
ENDBLK
  5
145
330
143
100
AcDbEntity
  8
0
100
AcDbBlockEnd
  0
BLOCK
  5
14F
330
14E
100
AcDbEntity
  8
0
100
AcDbBlockBegin
  2
_D_1
 70
     0
 10
0.0
 20
0.0
 30
0.0
  3
_D_1
  1

  0
SOLID
  5
151
330
14E
100
AcDbEntity
  8
0
  6
Continuous
 62
     7
370
    18
100
AcDbTrace
 10
178.5994123091
 20
222.0343469327
 30
0.0
 11
178.0914123091
 21
218.7323469327
 31
0.0
 12
179.1074123091
 22
218.7323469327
 32
0.0
 13
179.1074123091
 23
218.7323469327
 33
0.0
  0
SOLID
  5
152
330
14E
100
AcDbEntity
  8
0
  6
Continuous
 62
     7
370
    18
100
AcDbTrace
 10
178.5994123091
 20
179.0343469327
 30
0.0
 11
179.1074123091
 21
182.3363469327
 31
0.0
 12
178.0914123091
 22
182.3363469327
 32
0.0
 13
178.0914123091
 23
182.3363469327
 33
0.0
  0
LINE
  5
153
330
14E
100
AcDbEntity
  8
0
  6
Continuous
 62
     7
370
    18
100
AcDbLine
 10
193.4433615723
 20
222.0343469327
 30
0.0
 11
175.4244123091
 21
222.0343469327
 31
0.0
  0
LINE
  5
154
330
14E
100
AcDbEntity
  8
0
  6
Continuous
 62
     7
370
    18
100
AcDbLine
 10
193.4433615723
 20
179.0343469327
 30
0.0
 11
175.4244123091
 21
179.0343469327
 31
0.0
  0
LINE
  5
155
330
14E
100
AcDbEntity
  8
0
  6
Continuous
 62
     7
370
    18
100
AcDbLine
 10
178.5994123091
 20
222.0343469327
 30
0.0
 11
178.5994123091
 21
193.3823294778
 31
0.0
  0
LINE
  5
156
330
14E
100
AcDbEntity
  8
0
  6
Continuous
 62
     7
370
    18
100
AcDbLine
 10
178.5994123091
 20
179.0343469327
 30
0.0
 11
178.5994123091
 21
188.3420168263
 31
0.0
  0
MTEXT
  5
157
330
14E
100
AcDbEntity
  8
0
  6
Continuous
 62
     7
370
    18
100
AcDbMText
 10
173.3209749107
 20
192.4348072493
 30
0.0
 40
3.175
 41
0.0
 71
     1
 72
     1
  1
43.00
  7
SLDTEXTSTYLE0
 73
     1
 44
1.0
  0
ENDBLK
  5
150
330
14E
100
AcDbEntity
  8
0
100
AcDbBlockEnd
  0
BLOCK
  5
15B
330
15A
100
AcDbEntity
  8
0
100
AcDbBlockBegin
  2
_D_2
 70
     0
 10
0.0
 20
0.0
 30
0.0
  3
_D_2
  1

  0
SOLID
  5
15D
330
15A
100
AcDbEntity
  8
0
  6
Continuous
 62
     7
370
    18
100
AcDbTrace
 10
193.7517260612
 20
227.2001199257
 30
0.0
 11
196.4122359028
 21
225.1794875041
 31
0.0
 12
196.8965642681
 22
226.0726179731
 32
0.0
 13
196.8965642681
 23
226.0726179731
 33
0.0
  0
LINE
  5
15E
330
15A
100
AcDbEntity
  8
0
  6
Continuous
 62
     7
370
    18
100
AcDbLine
 10
193.7517260612
 20
227.2001199257
 30
0.0
 11
211.5248118312
 21
217.5620996418
 31
0.0
  0
LINE
  5
15F
330
15A
100
AcDbEntity
  8
0
  6
Continuous
 62
     7
370
    18
100
AcDbLine
 10
211.5248118312
 20
217.5620996418
 30
0.0
 11
217.8748118312
 21
217.5620996418
 31
0.0
  0
MTEXT
  5
160
330
15A
100
AcDbEntity
  8
0
  6
Continuous
 62
     7
370
    18
100
AcDbMText
 10
217.8748118312
 20
219.1021640498
 30
0.0
 40
3.175
 41
0.0
 71
     1
 72
     1
  1
%%c
  7
SLDTEXTSTYLE0
 73
     1
 44
1.0
  0
MTEXT
  5
161
330
15A
100
AcDbEntity
  8
0
  6
Continuous
 62
     7
370
    18
100
AcDbMText
 10
222.663108594
 20
219.1506709966
 30
0.0
 40
3.175
 41
0.0
 71
     1
 72
     1
  1
3.50
  7
SLDTEXTSTYLE0
 73
     1
 44
1.0
  0
ENDBLK
  5
15C
330
15A
100
AcDbEntity
  8
0
100
AcDbBlockEnd
  0
BLOCK
  5
165
330
164
100
AcDbEntity
  8
0
100
AcDbBlockBegin
  2
_D_3
 70
     0
 10
0.0
 20
0.0
 30
0.0
  3
_D_3
  1

  0
SOLID
  5
167
330
164
100
AcDbEntity
  8
0
  6
Continuous
 62
     7
370
    18
100
AcDbTrace
 10
220.7133615723
 20
94.8507594722
 30
0.0
 11
224.0153615723
 21
94.3427594722
 31
0.0
 12
224.0153615723
 22
95.3587594722
 32
0.0
 13
224.0153615723
 23
95.3587594722
 33
0.0
  0
SOLID
  5
168
330
164
100
AcDbEntity
  8
0
  6
Continuous
 62
     7
370
    18
100
AcDbTrace
 10
245.7133615723
 20
94.8507594722
 30
0.0
 11
242.4113615723
 21
95.3587594722
 31
0.0
 12
242.4113615723
 22
94.3427594722
 32
0.0
 13
242.4113615723
 23
94.3427594722
 33
0.0
  0
LINE
  5
169
330
164
100
AcDbEntity
  8
0
  6
Continuous
 62
     7
370
    18
100
AcDbLine
 10
220.7133615723
 20
89.8043469327
 30
0.0
 11
220.7133615723
 21
98.0257594722
 31
0.0
  0
LINE
  5
16A
330
164
100
AcDbEntity
  8
0
  6
Continuous
 62
     7
370
    18
100
AcDbLine
 10
245.7133615723
 20
89.8043469327
 30
0.0
 11
245.7133615723
 21
98.0257594722
 31
0.0
  0
LINE
  5
16B
330
164
100
AcDbEntity
  8
0
  6
Continuous
 62
     7
370
    18
100
AcDbLine
 10
220.7133615723
 20
94.8507594722
 30
0.0
 11
227.284310861
 21
94.8507594722
 31
0.0
  0
LINE
  5
16C
330
164
100
AcDbEntity
  8
0
  6
Continuous
 62
     7
370
    18
100
AcDbLine
 10
245.7133615723
 20
94.8507594722
 30
0.0
 11
237.8411856578
 21
94.8507594722
 31
0.0
  0
MTEXT
  5
16D
330
164
100
AcDbEntity
  8
0
  6
Continuous
 62
     7
370
    18
100
AcDbMText
 10
227.284310861
 20
96.4233935695
 30
0.0
 40
3.175
 41
0.0
 71
     1
 72
     1
  1
25.00
  7
SLDTEXTSTYLE0
 73
     1
 44
1.0
  0
ENDBLK
  5
166
330
164
100
AcDbEntity
  8
0
100
AcDbBlockEnd
  0
BLOCK
  5
170
330
16F
100
AcDbEntity
  8
0
100
AcDbBlockBegin
  2
_D_4
 70
     0
 10
0.0
 20
0.0
 30
0.0
  3
_D_4
  1

  0
SOLID
  5
172
330
16F
100
AcDbEntity
  8
0
  6
Continuous
 62
     7
370
    18
100
AcDbTrace
 10
251.4744655461
 20
86.5343469327
 30
0.0
 11
250.9664655461
 21
83.2323469327
 31
0.0
 12
251.9824655461
 22
83.2323469327
 32
0.0
 13
251.9824655461
 23
83.2323469327
 33
0.0
  0
SOLID
  5
173
330
16F
100
AcDbEntity
  8
0
  6
Continuous
 62
     7
370
    18
100
AcDbTrace
 10
251.4744655461
 20
88.5343469327
 30
0.0
 11
251.9824655461
 21
91.8363469327
 31
0.0
 12
250.9664655461
 22
91.8363469327
 32
0.0
 13
250.9664655461
 23
91.8363469327
 33
0.0
  0
LINE
  5
174
330
16F
100
AcDbEntity
  8
0
  6
Continuous
 62
     7
370
    18
100
AcDbLine
 10
246.9833615723
 20
86.5343469327
 30
0.0
 11
254.6494655461
 21
86.5343469327
 31
0.0
  0
LINE
  5
175
330
16F
100
AcDbEntity
  8
0
  6
Continuous
 62
     7
370
    18
100
AcDbLine
 10
246.9833615723
 20
88.5343469327
 30
0.0
 11
254.6494655461
 21
88.5343469327
 31
0.0
  0
LINE
  5
176
330
16F
100
AcDbEntity
  8
0
  6
Continuous
 62
     7
370
    18
100
AcDbLine
 10
251.4744655461
 20
86.5343469327
 30
0.0
 11
251.4744655461
 21
80.1843469327
 31
0.0
  0
LINE
  5
177
330
16F
100
AcDbEntity
  8
0
  6
Continuous
 62
     7
370
    18
100
AcDbLine
 10
251.4744655461
 20
88.5343469327
 30
0.0
 11
251.4744655461
 21
94.8843469327
 31
0.0
  0
MTEXT
  5
178
330
16F
100
AcDbEntity
  8
0
  6
Continuous
 62
     7
370
    18
100
AcDbMText
 10
247.3690140293
 20
89.1763145908
 30
0.0
 40
3.175
 41
0.0
 71
     1
 72
     1
  1
2.00
  7
SLDTEXTSTYLE0
 73
     1
 44
1.0
  0
ENDBLK
  5
171
330
16F
100
AcDbEntity
  8
0
100
AcDbBlockEnd
  0
BLOCK
  5
17B
330
17A
100
AcDbEntity
  8
0
100
AcDbBlockBegin
  2
_D_5
 70
     0
 10
0.0
 20
0.0
 30
0.0
  3
_D_5
  1

  0
SOLID
  5
17D
330
17A
100
AcDbEntity
  8
0
  6
Continuous
 62
     7
370
    18
100
AcDbTrace
 10
132.2133615723
 20
255.6520741309
 30
0.0
 11
135.5153615723
 21
255.1440741309
 31
0.0
 12
135.5153615723
 22
256.1600741309
 32
0.0
 13
135.5153615723
 23
256.1600741309
 33
0.0
  0
SOLID
  5
17E
330
17A
100
AcDbEntity
  8
0
  6
Continuous
 62
     7
370
    18
100
AcDbTrace
 10
364.2133615723
 20
255.6520741309
 30
0.0
 11
360.9113615723
 21
256.1600741309
 31
0.0
 12
360.9113615723
 22
255.1440741309
 32
0.0
 13
360.9113615723
 23
255.1440741309
 33
0.0
  0
LINE
  5
17F
330
17A
100
AcDbEntity
  8
0
  6
Continuous
 62
     7
370
    18
100
AcDbLine
 10
132.2133615723
 20
241.8043469327
 30
0.0
 11
132.2133615723
 21
258.8270741309
 31
0.0
  0
LINE
  5
180
330
17A
100
AcDbEntity
  8
0
  6
Continuous
 62
     7
370
    18
100
AcDbLine
 10
364.2133615723
 20
241.8043469327
 30
0.0
 11
364.2133615723
 21
258.8270741309
 31
0.0
  0
LINE
  5
181
330
17A
100
AcDbEntity
  8
0
  6
Continuous
 62
     7
370
    18
100
AcDbLine
 10
132.2133615723
 20
255.6520741309
 30
0.0
 11
292.2352207351
 21
255.6520741309
 31
0.0
  0
LINE
  5
182
330
17A
100
AcDbEntity
  8
0
  6
Continuous
 62
     7
370
    18
100
AcDbLine
 10
364.2133615723
 20
255.6520741309
 30
0.0
 11
305.138067295
 21
255.6520741309
 31
0.0
  0
MTEXT
  5
183
330
17A
100
AcDbEntity
  8
0
  6
Continuous
 62
     7
370
    18
100
AcDbMText
 10
292.2352207351
 20
257.2247082282
 30
0.0
 40
3.175
 41
0.0
 71
     1
 72
     1
  1
232.00
  7
SLDTEXTSTYLE0
 73
     1
 44
1.0
  0
ENDBLK
  5
17C
330
17A
100
AcDbEntity
  8
0
100
AcDbBlockEnd
  0
BLOCK
  5
186
330
185
100
AcDbEntity
  8
0
100
AcDbBlockBegin
  2
_D_6
 70
     0
 10
0.0
 20
0.0
 30
0.0
  3
_D_6
  1

  0
SOLID
  5
188
330
185
100
AcDbEntity
  8
0
  6
Continuous
 62
     7
370
    18
100
AcDbTrace
 10
179.255511795
 20
74.9533871633
 30
0.0
 11
177.1645708899
 21
72.34777128
 31
0.0
 12
178.0444527001
 22
71.83977128
 32
0.0
 13
178.0444527001
 23
71.83977128
 33
0.0
  0
SOLID
  5
189
330
185
100
AcDbEntity
  8
0
  6
Continuous
 62
     7
370
    18
100
AcDbTrace
 10
179.755511795
 20
75.8194125671
 30
0.0
 11
181.8464527001
 21
78.4250284504
 31
0.0
 12
180.9665708899
 22
78.9330284504
 32
0.0
 13
180.9665708899
 23
78.9330284504
 33
0.0
  0
LINE
  5
18A
330
185
100
AcDbEntity
  8
0
  6
Continuous
 62
     7
370
    18
100
AcDbLine
 10
180.6135093095
 20
74.1693469327
 30
0.0
 11
176.505881138
 21
76.5408871633
 31
0.0
  0
LINE
  5
18B
330
185
100
AcDbEntity
  8
0
  6
Continuous
 62
     7
370
    18
100
AcDbLine
 10
181.1135093095
 20
75.0353723365
 30
0.0
 11
177.005881138
 21
77.4069125671
 31
0.0
  0
LINE
  5
18C
330
185
100
AcDbEntity
  8
0
  6
Continuous
 62
     7
370
    18
100
AcDbLine
 10
179.255511795
 20
74.9533871633
 30
0.0
 11
176.080511795
 21
69.4541258493
 31
0.0
  0
LINE
  5
18D
330
185
100
AcDbEntity
  8
0
  6
Continuous
 62
     7
370
    18
100
AcDbLine
 10
179.755511795
 20
75.8194125671
 30
0.0
 11
181.0329915593
 21
78.0320724246
 31
0.0
  0
LINE
  5
18E
330
185
100
AcDbEntity
  8
0
  6
Continuous
 62
     7
370
    18
100
AcDbLine
 10
181.0329915593
 20
78.0320724246
 30
0.0
 11
174.6829915593
 21
78.0320724246
 31
0.0
  0
MTEXT
  5
18F
330
185
100
AcDbEntity
  8
0
  6
Continuous
 62
     7
370
    18
100
AcDbMText
 10
166.4720885257
 20
79.6047065218
 30
0.0
 40
3.175
 41
0.0
 71
     1
 72
     1
  1
1.00
  7
SLDTEXTSTYLE0
 73
     1
 44
1.0
  0
ENDBLK
  5
187
330
185
100
AcDbEntity
  8
0
100
AcDbBlockEnd
  0
BLOCK
  5
192
330
191
100
AcDbEntity
  8
0
100
AcDbBlockBegin
  2
_D_7
 70
     0
 10
0.0
 20
0.0
 30
0.0
  3
_D_7
  1

  0
SOLID
  5
194
330
191
100
AcDbEntity
  8
0
  6
Continuous
 62
     7
370
    18
100
AcDbTrace
 10
187.5197211333
 20
77.4640004574
 30
0.0
 11
186.3086620384
 21
80.5776163407
 31
0.0
 12
185.4287802281
 22
80.0696163407
 32
0.0
 13
185.4287802281
 23
80.0696163407
 33
0.0
  0
SOLID
  5
195
330
191
100
AcDbEntity
  8
0
  6
Continuous
 62
     7
370
    18
100
AcDbTrace
 10
188.0197211333
 20
76.5979750536
 30
0.0
 11
189.2307802281
 21
73.4843591703
 31
0.0
 12
190.1106620384
 22
73.9923591703
 32
0.0
 13
190.1106620384
 23
73.9923591703
 33
0.0
  0
LINE
  5
196
330
191
100
AcDbEntity
  8
0
  6
Continuous
 62
     7
370
    18
100
AcDbLine
 10
183.3132138351
 20
75.0353723365
 30
0.0
 11
190.2693517903
 21
79.0515004574
 31
0.0
  0
LINE
  5
197
330
191
100
AcDbEntity
  8
0
  6
Continuous
 62
     7
370
    18
100
AcDbLine
 10
183.8132138351
 20
74.1693469327
 30
0.0
 11
190.7693517903
 21
78.1854750536
 31
0.0
  0
LINE
  5
198
330
191
100
AcDbEntity
  8
0
  6
Continuous
 62
     7
370
    18
100
AcDbLine
 10
187.5197211333
 20
77.4640004574
 30
0.0
 11
184.3447211333
 21
82.9632617714
 31
0.0
  0
LINE
  5
199
330
191
100
AcDbEntity
  8
0
  6
Continuous
 62
     7
370
    18
100
AcDbLine
 10
188.0197211333
 20
76.5979750536
 30
0.0
 11
188.8671125423
 21
75.1302500793
 31
0.0
  0
LINE
  5
19A
330
191
100
AcDbEntity
  8
0
  6
Continuous
 62
     7
370
    18
100
AcDbLine
 10
188.8671125423
 20
75.1302500793
 30
0.0
 11
195.2171125423
 21
75.1302500793
 31
0.0
  0
MTEXT
  5
19B
330
191
100
AcDbEntity
  8
0
  6
Continuous
 62
     7
370
    18
100
AcDbMText
 10
195.2171125423
 20
76.7028841766
 30
0.0
 40
3.175
 41
0.0
 71
     1
 72
     1
  1
1.00
  7
SLDTEXTSTYLE0
 73
     1
 44
1.0
  0
ENDBLK
  5
193
330
191
100
AcDbEntity
  8
0
100
AcDbBlockEnd
  0
BLOCK
  5
19E
330
19D
100
AcDbEntity
  8
0
100
AcDbBlockBegin
  2
_D_8
 70
     0
 10
0.0
 20
0.0
 30
0.0
  3
_D_8
  1

  0
SOLID
  5
1A0
330
19D
100
AcDbEntity
  8
0
  6
Continuous
 62
     7
370
    18
100
AcDbTrace
 10
181.7133615723
 20
71.3396773483
 30
0.0
 11
178.4113615723
 21
71.8476773483
 31
0.0
 12
178.4113615723
 22
70.8316773483
 32
0.0
 13
178.4113615723
 23
70.8316773483
 33
0.0
  0
SOLID
  5
1A1
330
19D
100
AcDbEntity
  8
0
  6
Continuous
 62
     7
370
    18
100
AcDbTrace
 10
182.7133615723
 20
71.3396773483
 30
0.0
 11
186.0153615723
 21
70.8316773483
 31
0.0
 12
186.0153615723
 22
71.8476773483
 32
0.0
 13
186.0153615723
 23
71.8476773483
 33
0.0
  0
LINE
  5
1A2
330
19D
100
AcDbEntity
  8
0
  6
Continuous
 62
     7
370
    18
100
AcDbLine
 10
181.7133615723
 20
72.2643469327
 30
0.0
 11
181.7133615723
 21
68.1646773483
 31
0.0
  0
LINE
  5
1A3
330
19D
100
AcDbEntity
  8
0
  6
Continuous
 62
     7
370
    18
100
AcDbLine
 10
182.7133615723
 20
72.2643469327
 30
0.0
 11
182.7133615723
 21
68.1646773483
 31
0.0
  0
LINE
  5
1A4
330
19D
100
AcDbEntity
  8
0
  6
Continuous
 62
     7
370
    18
100
AcDbLine
 10
181.7133615723
 20
71.3396773483
 30
0.0
 11
175.3633615723
 21
71.3396773483
 31
0.0
  0
LINE
  5
1A5
330
19D
100
AcDbEntity
  8
0
  6
Continuous
 62
     7
370
    18
100
AcDbLine
 10
182.7133615723
 20
71.3396773483
 30
0.0
 11
186.7996662447
 21
71.3396773483
 31
0.0
  0
MTEXT
  5
1A6
330
19D
100
AcDbEntity
  8
0
  6
Continuous
 62
     7
370
    18
100
AcDbMText
 10
186.7996662447
 20
72.9123114456
 30
0.0
 40
3.175
 41
0.0
 71
     1
 72
     1
  1
1.00
  7
SLDTEXTSTYLE0
 73
     1
 44
1.0
  0
ENDBLK
  5
19F
330
19D
100
AcDbEntity
  8
0
100
AcDbBlockEnd
  0
BLOCK
  5
1A9
330
1A8
100
AcDbEntity
  8
0
100
AcDbBlockBegin
  2
_D_9
 70
     0
 10
0.0
 20
0.0
 30
0.0
  3
_D_9
  1

  0
SOLID
  5
1AB
330
1A8
100
AcDbEntity
  8
0
  6
Continuous
 62
     7
370
    18
100
AcDbTrace
 10
308.5658894146
 20
76.5062413686
 30
0.0
 11
306.4749485095
 21
73.9006254853
 31
0.0
 12
307.3548303197
 22
73.3926254853
 32
0.0
 13
307.3548303197
 23
73.3926254853
 33
0.0
  0
SOLID
  5
1AC
330
1A8
100
AcDbEntity
  8
0
  6
Continuous
 62
     7
370
    18
100
AcDbTrace
 10
309.0658894146
 20
77.3722667724
 30
0.0
 11
311.1568303197
 21
79.9778826557
 31
0.0
 12
310.2769485095
 22
80.4858826557
 32
0.0
 13
310.2769485095
 23
80.4858826557
 33
0.0
  0
LINE
  5
1AD
330
1A8
100
AcDbEntity
  8
0
  6
Continuous
 62
     7
370
    18
100
AcDbLine
 10
312.6135093095
 20
74.1693469327
 30
0.0
 11
305.8162587576
 21
78.0937413686
 31
0.0
  0
LINE
  5
1AE
330
1A8
100
AcDbEntity
  8
0
  6
Continuous
 62
     7
370
    18
100
AcDbLine
 10
313.1135093095
 20
75.0353723365
 30
0.0
 11
306.3162587576
 21
78.9597667724
 31
0.0
  0
LINE
  5
1AF
330
1A8
100
AcDbEntity
  8
0
  6
Continuous
 62
     7
370
    18
100
AcDbLine
 10
308.5658894146
 20
76.5062413686
 30
0.0
 11
308.4540377324
 21
76.3125085721
 31
0.0
  0
LINE
  5
1B0
330
1A8
100
AcDbEntity
  8
0
  6
Continuous
 62
     7
370
    18
100
AcDbLine
 10
309.0658894146
 20
77.3722667724
 30
0.0
 11
312.2408894146
 21
82.8715280864
 31
0.0
  0
LINE
  5
1B1
330
1A8
100
AcDbEntity
  8
0
  6
Continuous
 62
     7
370
    18
100
AcDbLine
 10
308.4540377324
 20
76.3125085721
 30
0.0
 11
302.1040377324
 21
76.3125085721
 31
0.0
  0
MTEXT
  5
1B2
330
1A8
100
AcDbEntity
  8
0
  6
Continuous
 62
     7
370
    18
100
AcDbMText
 10
293.8931346988
 20
77.8851426693
 30
0.0
 40
3.175
 41
0.0
 71
     1
 72
     1
  1
1.00
  7
SLDTEXTSTYLE0
 73
     1
 44
1.0
  0
ENDBLK
  5
1AA
330
1A8
100
AcDbEntity
  8
0
100
AcDbBlockEnd
  0
BLOCK
  5
1B5
330
1B4
100
AcDbEntity
  8
0
100
AcDbBlockBegin
  2
_D_10
 70
     0
 10
0.0
 20
0.0
 30
0.0
  3
_D_10
  1

  0
SOLID
  5
1B7
330
1B4
100
AcDbEntity
  8
0
  6
Continuous
 62
     7
370
    18
100
AcDbTrace
 10
313.7133615723
 20
70.4389833792
 30
0.0
 11
310.4113615723
 21
70.9469833792
 31
0.0
 12
310.4113615723
 22
69.9309833792
 32
0.0
 13
310.4113615723
 23
69.9309833792
 33
0.0
  0
SOLID
  5
1B8
330
1B4
100
AcDbEntity
  8
0
  6
Continuous
 62
     7
370
    18
100
AcDbTrace
 10
314.7133615723
 20
70.4389833792
 30
0.0
 11
318.0153615723
 21
69.9309833792
 31
0.0
 12
318.0153615723
 22
70.9469833792
 32
0.0
 13
318.0153615723
 23
70.9469833792
 33
0.0
  0
LINE
  5
1B9
330
1B4
100
AcDbEntity
  8
0
  6
Continuous
 62
     7
370
    18
100
AcDbLine
 10
313.7133615723
 20
72.2643469327
 30
0.0
 11
313.7133615723
 21
67.2639833792
 31
0.0
  0
LINE
  5
1BA
330
1B4
100
AcDbEntity
  8
0
  6
Continuous
 62
     7
370
    18
100
AcDbLine
 10
314.7133615723
 20
72.2643469327
 30
0.0
 11
314.7133615723
 21
67.2639833792
 31
0.0
  0
LINE
  5
1BB
330
1B4
100
AcDbEntity
  8
0
  6
Continuous
 62
     7
370
    18
100
AcDbLine
 10
313.7133615723
 20
70.4389833792
 30
0.0
 11
307.3633615723
 21
70.4389833792
 31
0.0
  0
LINE
  5
1BC
330
1B4
100
AcDbEntity
  8
0
  6
Continuous
 62
     7
370
    18
100
AcDbLine
 10
314.7133615723
 20
70.4389833792
 30
0.0
 11
316.5254430165
 21
70.4389833792
 31
0.0
  0
MTEXT
  5
1BD
330
1B4
100
AcDbEntity
  8
0
  6
Continuous
 62
     7
370
    18
100
AcDbMText
 10
316.5254430165
 20
72.0116174764
 30
0.0
 40
3.175
 41
0.0
 71
     1
 72
     1
  1
1.00
  7
SLDTEXTSTYLE0
 73
     1
 44
1.0
  0
ENDBLK
  5
1B6
330
1B4
100
AcDbEntity
  8
0
100
AcDbBlockEnd
  0
BLOCK
  5
1C0
330
1BF
100
AcDbEntity
  8
0
100
AcDbBlockBegin
  2
_D_11
 70
     0
 10
0.0
 20
0.0
 30
0.0
  3
_D_11
  1

  0
SOLID
  5
1C2
330
1BF
100
AcDbEntity
  8
0
  6
Continuous
 62
     7
370
    18
100
AcDbTrace
 10
314.7133615723
 20
248.2209523594
 30
0.0
 11
318.0153615723
 21
247.7129523594
 31
0.0
 12
318.0153615723
 22
248.7289523594
 32
0.0
 13
318.0153615723
 23
248.7289523594
 33
0.0
  0
SOLID
  5
1C3
330
1BF
100
AcDbEntity
  8
0
  6
Continuous
 62
     7
370
    18
100
AcDbTrace
 10
313.7133615723
 20
248.2209523594
 30
0.0
 11
310.4113615723
 21
248.7289523594
 31
0.0
 12
310.4113615723
 22
247.7129523594
 32
0.0
 13
310.4113615723
 23
247.7129523594
 33
0.0
  0
LINE
  5
1C4
330
1BF
100
AcDbEntity
  8
0
  6
Continuous
 62
     7
370
    18
100
AcDbLine
 10
314.7133615723
 20
241.8043469327
 30
0.0
 11
314.7133615723
 21
251.3959523594
 31
0.0
  0
LINE
  5
1C5
330
1BF
100
AcDbEntity
  8
0
  6
Continuous
 62
     7
370
    18
100
AcDbLine
 10
313.7133615723
 20
241.8043469327
 30
0.0
 11
313.7133615723
 21
251.3959523594
 31
0.0
  0
LINE
  5
1C6
330
1BF
100
AcDbEntity
  8
0
  6
Continuous
 62
     7
370
    18
100
AcDbLine
 10
314.7133615723
 20
248.2209523594
 30
0.0
 11
321.0633615723
 21
248.2209523594
 31
0.0
  0
LINE
  5
1C7
330
1BF
100
AcDbEntity
  8
0
  6
Continuous
 62
     7
370
    18
100
AcDbLine
 10
313.7133615723
 20
248.2209523594
 30
0.0
 11
286.212212556
 21
248.2209523594
 31
0.0
  0
MTEXT
  5
1C8
330
1BF
100
AcDbEntity
  8
0
  6
Continuous
 62
     7
370
    18
100
AcDbMText
 10
278.0013095224
 20
249.7935864566
 30
0.0
 40
3.175
 41
0.0
 71
     1
 72
     1
  1
1.00
  7
SLDTEXTSTYLE0
 73
     1
 44
1.0
  0
ENDBLK
  5
1C1
330
1BF
100
AcDbEntity
  8
0
100
AcDbBlockEnd
  0
BLOCK
  5
1CB
330
1CA
100
AcDbEntity
  8
0
100
AcDbBlockBegin
  2
_D_12
 70
     0
 10
0.0
 20
0.0
 30
0.0
  3
_D_12
  1

  0
SOLID
  5
1CD
330
1CA
100
AcDbEntity
  8
0
  6
Continuous
 62
     7
370
    18
100
AcDbTrace
 10
303.8388221196
 20
245.6580646747
 30
0.0
 11
301.7478812145
 21
243.0524487914
 31
0.0
 12
302.6277630248
 22
242.5444487914
 32
0.0
 13
302.6277630248
 23
242.5444487914
 33
0.0
  0
SOLID
  5
1CE
330
1CA
100
AcDbEntity
  8
0
  6
Continuous
 62
     7
370
    18
100
AcDbTrace
 10
304.3388221196
 20
246.5240900784
 30
0.0
 11
306.4297630248
 21
249.1297059617
 31
0.0
 12
305.5498812145
 22
249.6377059617
 32
0.0
 13
305.5498812145
 23
249.6377059617
 33
0.0
  0
LINE
  5
1CF
330
1CA
100
AcDbEntity
  8
0
  6
Continuous
 62
     7
370
    18
100
AcDbLine
 10
313.1135093095
 20
240.3033215289
 30
0.0
 11
301.0891914626
 21
247.2455646747
 31
0.0
  0
LINE
  5
1D0
330
1CA
100
AcDbEntity
  8
0
  6
Continuous
 62
     7
370
    18
100
AcDbLine
 10
313.6135093095
 20
241.1693469327
 30
0.0
 11
301.5891914626
 21
248.1115900784
 31
0.0
  0
LINE
  5
1D1
330
1CA
100
AcDbEntity
  8
0
  6
Continuous
 62
     7
370
    18
100
AcDbLine
 10
303.8388221196
 20
245.6580646747
 30
0.0
 11
303.4214675127
 21
244.9351852906
 31
0.0
  0
LINE
  5
1D2
330
1CA
100
AcDbEntity
  8
0
  6
Continuous
 62
     7
370
    18
100
AcDbLine
 10
304.3388221196
 20
246.5240900784
 30
0.0
 11
307.5138221196
 21
252.0233513925
 31
0.0
  0
LINE
  5
1D3
330
1CA
100
AcDbEntity
  8
0
  6
Continuous
 62
     7
370
    18
100
AcDbLine
 10
303.4214675127
 20
244.9351852906
 30
0.0
 11
297.0714675127
 21
244.9351852906
 31
0.0
  0
MTEXT
  5
1D4
330
1CA
100
AcDbEntity
  8
0
  6
Continuous
 62
     7
370
    18
100
AcDbMText
 10
288.860564479
 20
246.5078193879
 30
0.0
 40
3.175
 41
0.0
 71
     1
 72
     1
  1
1.00
  7
SLDTEXTSTYLE0
 73
     1
 44
1.0
  0
ENDBLK
  5
1CC
330
1CA
100
AcDbEntity
  8
0
100
AcDbBlockEnd
  0
BLOCK
  5
1D7
330
1D6
100
AcDbEntity
  8
0
100
AcDbBlockBegin
  2
_D_13
 70
     0
 10
0.0
 20
0.0
 30
0.0
  3
_D_13
  1

  0
SOLID
  5
1D9
330
1D6
100
AcDbEntity
  8
0
  6
Continuous
 62
     7
370
    18
100
AcDbTrace
 10
309.2171611369
 20
237.938464401
 30
0.0
 11
308.006102042
 21
241.0520802842
 31
0.0
 12
307.1262202317
 22
240.5440802842
 32
0.0
 13
307.1262202317
 23
240.5440802842
 33
0.0
  0
SOLID
  5
1DA
330
1D6
100
AcDbEntity
  8
0
  6
Continuous
 62
     7
370
    18
100
AcDbTrace
 10
309.7171611369
 20
237.0724389972
 30
0.0
 11
310.9282202317
 21
233.9588231139
 31
0.0
 12
311.808102042
 22
234.4668231139
 32
0.0
 13
311.808102042
 23
234.4668231139
 33
0.0
  0
LINE
  5
1DB
330
1D6
100
AcDbEntity
  8
0
  6
Continuous
 62
     7
370
    18
100
AcDbLine
 10
312.6135093095
 20
239.8993469327
 30
0.0
 11
306.4675304799
 21
236.350964401
 31
0.0
  0
LINE
  5
1DC
330
1D6
100
AcDbEntity
  8
0
  6
Continuous
 62
     7
370
    18
100
AcDbLine
 10
313.1135093095
 20
239.0333215289
 30
0.0
 11
306.9675304799
 21
235.4849389972
 31
0.0
  0
LINE
  5
1DD
330
1D6
100
AcDbEntity
  8
0
  6
Continuous
 62
     7
370
    18
100
AcDbLine
 10
309.2171611369
 20
237.938464401
 30
0.0
 11
306.0421611369
 21
243.437725715
 31
0.0
  0
LINE
  5
1DE
330
1D6
100
AcDbEntity
  8
0
  6
Continuous
 62
     7
370
    18
100
AcDbLine
 10
309.7171611369
 20
237.0724389972
 30
0.0
 11
313.4757593613
 21
230.5623559072
 31
0.0
  0
LINE
  5
1DF
330
1D6
100
AcDbEntity
  8
0
  6
Continuous
 62
     7
370
    18
100
AcDbLine
 10
313.4757593613
 20
230.5623559072
 30
0.0
 11
307.1257593613
 21
230.5623559072
 31
0.0
  0
MTEXT
  5
1E0
330
1D6
100
AcDbEntity
  8
0
  6
Continuous
 62
     7
370
    18
100
AcDbMText
 10
298.9148563277
 20
232.1349900045
 30
0.0
 40
3.175
 41
0.0
 71
     1
 72
     1
  1
1.00
  7
SLDTEXTSTYLE0
 73
     1
 44
1.0
  0
ENDBLK
  5
1D8
330
1D6
100
AcDbEntity
  8
0
100
AcDbBlockEnd
  0
BLOCK
  5
1E3
330
1E2
100
AcDbEntity
  8
0
100
AcDbBlockBegin
  2
_D_14
 70
     0
 10
0.0
 20
0.0
 30
0.0
  3
_D_14
  1

  0
SOLID
  5
1E5
330
1E2
100
AcDbEntity
  8
0
  6
Continuous
 62
     7
370
    18
100
AcDbTrace
 10
181.7069169063
 20
243.5030931254
 30
0.0
 11
178.4049169063
 21
244.0110931254
 31
0.0
 12
178.4049169063
 22
242.9950931254
 32
0.0
 13
178.4049169063
 23
242.9950931254
 33
0.0
  0
SOLID
  5
1E6
330
1E2
100
AcDbEntity
  8
0
  6
Continuous
 62
     7
370
    18
100
AcDbTrace
 10
182.7069169063
 20
243.5030931254
 30
0.0
 11
186.0089169063
 21
242.9950931254
 31
0.0
 12
186.0089169063
 22
244.0110931254
 32
0.0
 13
186.0089169063
 23
244.0110931254
 33
0.0
  0
LINE
  5
1E7
330
1E2
100
AcDbEntity
  8
0
  6
Continuous
 62
     7
370
    18
100
AcDbLine
 10
181.7069169063
 20
241.8043469327
 30
0.0
 11
181.7069169063
 21
246.6780931254
 31
0.0
  0
LINE
  5
1E8
330
1E2
100
AcDbEntity
  8
0
  6
Continuous
 62
     7
370
    18
100
AcDbLine
 10
182.7069169063
 20
241.8043469327
 30
0.0
 11
182.7069169063
 21
246.6780931254
 31
0.0
  0
LINE
  5
1E9
330
1E2
100
AcDbEntity
  8
0
  6
Continuous
 62
     7
370
    18
100
AcDbLine
 10
181.7069169063
 20
243.5030931254
 30
0.0
 11
176.4281579753
 21
243.5030931254
 31
0.0
  0
LINE
  5
1EA
330
1E2
100
AcDbEntity
  8
0
  6
Continuous
 62
     7
370
    18
100
AcDbLine
 10
182.7069169063
 20
243.5030931254
 30
0.0
 11
189.0569169063
 21
243.5030931254
 31
0.0
  0
MTEXT
  5
1EB
330
1E2
100
AcDbEntity
  8
0
  6
Continuous
 62
     7
370
    18
100
AcDbMText
 10
168.2172549417
 20
245.0757272227
 30
0.0
 40
3.175
 41
0.0
 71
     1
 72
     1
  1
1.00
  7
SLDTEXTSTYLE0
 73
     1
 44
1.0
  0
ENDBLK
  5
1E4
330
1E2
100
AcDbEntity
  8
0
100
AcDbBlockEnd
  0
BLOCK
  5
1EE
330
1ED
100
AcDbEntity
  8
0
100
AcDbBlockBegin
  2
_D_15
 70
     0
 10
0.0
 20
0.0
 30
0.0
  3
_D_15
  1

  0
SOLID
  5
1F0
330
1ED
100
AcDbEntity
  8
0
  6
Continuous
 62
     7
370
    18
100
AcDbTrace
 10
355.0529602644
 20
216.0275405969
 30
0.0
 11
358.0862706467
 21
217.4276463518
 31
0.0
 12
357.5251609223
 22
218.2746480503
 32
0.0
 13
357.5251609223
 23
218.2746480503
 33
0.0
  0
LINE
  5
1F1
330
1ED
100
AcDbEntity
  8
0
  6
Continuous
 62
     7
370
    18
100
AcDbLine
 10
355.0529602644
 20
216.0275405969
 30
0.0
 11
383.9317754633
 21
235.1587702804
 31
0.0
  0
LINE
  5
1F2
330
1ED
100
AcDbEntity
  8
0
  6
Continuous
 62
     7
370
    18
100
AcDbLine
 10
383.9317754633
 20
235.1587702804
 30
0.0
 11
390.2817754633
 21
235.1587702804
 31
0.0
  0
MTEXT
  5
1F3
330
1ED
100
AcDbEntity
  8
0
  6
Continuous
 62
     7
370
    18
100
AcDbMText
 10
390.2817754633
 20
236.6988346884
 30
0.0
 40
3.175
 41
0.0
 71
     1
 72
     1
  1
%%c
  7
SLDTEXTSTYLE0
 73
     1
 44
1.0
  0
MTEXT
  5
1F4
330
1ED
100
AcDbEntity
  8
0
  6
Continuous
 62
     7
370
    18
100
AcDbMText
 10
395.0700722262
 20
236.7473416352
 30
0.0
 40
3.175
 41
0.0
 71
     1
 72
     1
  1
38.00
  7
SLDTEXTSTYLE0
 73
     1
 44
1.0
  0
ENDBLK
  5
1EF
330
1ED
100
AcDbEntity
  8
0
100
AcDbBlockEnd
  0
BLOCK
  5
1F7
330
1F6
100
AcDbEntity
  8
0
100
AcDbBlockBegin
  2
_D_16
 70
     0
 10
0.0
 20
0.0
 30
0.0
  3
_D_16
  1

  0
SOLID
  5
1F9
330
1F6
100
AcDbEntity
  8
0
  6
Continuous
 62
     7
370
    18
100
AcDbTrace
 10
377.1945346596
 20
205.5343469327
 30
0.0
 11
377.7025346596
 21
208.8363469327
 31
0.0
 12
376.6865346596
 22
208.8363469327
 32
0.0
 13
376.6865346596
 23
208.8363469327
 33
0.0
  0
SOLID
  5
1FA
330
1F6
100
AcDbEntity
  8
0
  6
Continuous
 62
     7
370
    18
100
AcDbTrace
 10
377.1945346596
 20
240.5343469327
 30
0.0
 11
376.6865346596
 21
237.2323469327
 31
0.0
 12
377.7025346596
 22
237.2323469327
 32
0.0
 13
377.7025346596
 23
237.2323469327
 33
0.0
  0
LINE
  5
1FB
330
1F6
100
AcDbEntity
  8
0
  6
Continuous
 62
     7
370
    18
100
AcDbLine
 10
340.4833615723
 20
205.5343469327
 30
0.0
 11
380.3695346596
 21
205.5343469327
 31
0.0
  0
LINE
  5
1FC
330
1F6
100
AcDbEntity
  8
0
  6
Continuous
 62
     7
370
    18
100
AcDbLine
 10
365.4833615723
 20
240.5343469327
 30
0.0
 11
380.3695346596
 21
240.5343469327
 31
0.0
  0
LINE
  5
1FD
330
1F6
100
AcDbEntity
  8
0
  6
Continuous
 62
     7
370
    18
100
AcDbLine
 10
377.1945346596
 20
205.5343469327
 30
0.0
 11
377.1945346596
 21
219.5865789319
 31
0.0
  0
LINE
  5
1FE
330
1F6
100
AcDbEntity
  8
0
  6
Continuous
 62
     7
370
    18
100
AcDbLine
 10
377.1945346596
 20
240.5343469327
 30
0.0
 11
377.1945346596
 21
224.6268915834
 31
0.0
  0
MTEXT
  5
1FF
330
1F6
100
AcDbEntity
  8
0
  6
Continuous
 62
     7
370
    18
100
AcDbMText
 10
371.9160972612
 20
223.6793693549
 30
0.0
 40
3.175
 41
0.0
 71
     1
 72
     1
  1
35.00
  7
SLDTEXTSTYLE0
 73
     1
 44
1.0
  0
ENDBLK
  5
1F8
330
1F6
100
AcDbEntity
  8
0
100
AcDbBlockEnd
  0
BLOCK
  5
202
330
201
100
AcDbEntity
  8
0
100
AcDbBlockBegin
  2
_D_17
 70
     0
 10
0.0
 20
0.0
 30
0.0
  3
_D_17
  1

  0
SOLID
  5
204
330
201
100
AcDbEntity
  8
0
  6
Continuous
 62
     7
370
    18
100
AcDbTrace
 10
339.2133615723
 20
260.1823840411
 30
0.0
 11
342.5153615723
 21
259.6743840411
 31
0.0
 12
342.5153615723
 22
260.6903840411
 32
0.0
 13
342.5153615723
 23
260.6903840411
 33
0.0
  0
SOLID
  5
205
330
201
100
AcDbEntity
  8
0
  6
Continuous
 62
     7
370
    18
100
AcDbTrace
 10
364.2133615723
 20
260.1823840411
 30
0.0
 11
360.9113615723
 21
260.6903840411
 31
0.0
 12
360.9113615723
 22
259.6743840411
 32
0.0
 13
360.9113615723
 23
259.6743840411
 33
0.0
  0
LINE
  5
206
330
201
100
AcDbEntity
  8
0
  6
Continuous
 62
     7
370
    18
100
AcDbLine
 10
339.2133615723
 20
206.8043469327
 30
0.0
 11
339.2133615723
 21
263.3573840411
 31
0.0
  0
LINE
  5
207
330
201
100
AcDbEntity
  8
0
  6
Continuous
 62
     7
370
    18
100
AcDbLine
 10
364.2133615723
 20
241.8043469327
 30
0.0
 11
364.2133615723
 21
263.3573840411
 31
0.0
  0
LINE
  5
208
330
201
100
AcDbEntity
  8
0
  6
Continuous
 62
     7
370
    18
100
AcDbLine
 10
339.2133615723
 20
260.1823840411
 30
0.0
 11
364.2133615723
 21
260.1823840411
 31
0.0
  0
LINE
  5
209
330
201
100
AcDbEntity
  8
0
  6
Continuous
 62
     7
370
    18
100
AcDbLine
 10
364.2133615723
 20
260.1823840411
 30
0.0
 11
375.7083261446
 21
260.1823840411
 31
0.0
  0
MTEXT
  5
20A
330
201
100
AcDbEntity
  8
0
  6
Continuous
 62
     7
370
    18
100
AcDbMText
 10
375.7083261446
 20
261.7550181384
 30
0.0
 40
3.175
 41
0.0
 71
     1
 72
     1
  1
25.00
  7
SLDTEXTSTYLE0
 73
     1
 44
1.0
  0
ENDBLK
  5
203
330
201
100
AcDbEntity
  8
0
100
AcDbBlockEnd
  0
BLOCK
  5
20E
330
20D
100
AcDbEntity
  8
0
100
AcDbBlockBegin
  2
_D_18
 70
     0
 10
0.0
 20
0.0
 30
0.0
  3
_D_18
  1

  0
ARC
  5
210
330
20D
100
AcDbEntity
  8
0
  6
Continuous
 62
     7
370
    18
100
AcDbCircle
 10
374.2133615723
 20
240.5343469327
 30
0.0
 40
13.90647703912822
100
AcDbArc
 50
154.4075274432
 51
180.0
  0
ARC
  5
211
330
20D
100
AcDbEntity
  8
0
  6
Continuous
 62
     7
370
    18
100
AcDbCircle
 10
374.2133615723
 20
240.5343469327
 30
0.0
 40
13.90647703912825
100
AcDbArc
 50
225.0
 51
250.5924725568
  0
SOLID
  5
212
330
20D
100
AcDbEntity
  8
0
  6
Continuous
 62
     7
370
    18
100
AcDbTrace
 10
360.3068845332
 20
240.5343469327
 30
0.0
 11
361.1954576216
 21
243.7548602251
 31
0.0
 12
360.1863519805
 22
243.8730203075
 32
0.0
 13
360.1863519805
 23
243.8730203075
 33
0.0
  0
SOLID
  5
213
330
20D
100
AcDbEntity
  8
0
  6
Continuous
 62
     7
370
    18
100
AcDbTrace
 10
364.3799973556
 20
230.7009827159
 30
0.0
 11
366.6555665537
 21
228.254954747
 31
0.0
 12
367.2855601999
 22
229.0520519843
 32
0.0
 13
367.2855601999
 23
229.0520519843
 33
0.0
  0
LINE
  5
214
330
20D
100
AcDbEntity
  8
0
  6
Continuous
 62
     7
370
    18
100
AcDbLine
 10
356.1096781088
 20
222.4306634692
 30
0.0
 11
366.6250613858
 21
232.9460467462
 31
0.0
  0
MTEXT
  5
215
330
20D
100
AcDbEntity
  8
0
  6
Continuous
 62
     7
370
    18
100
AcDbMText
 10
358.1952292586
 20
236.7314043776
 30
0.0
 40
3.175
 41
0.0
 71
     1
 72
     1
  1
45°
  7
SLDTEXTSTYLE0
 73
     1
 44
1.0
  0
ENDBLK
  5
20F
330
20D
100
AcDbEntity
  8
0
100
AcDbBlockEnd
  0
BLOCK
  5
218
330
217
100
AcDbEntity
  8
0
100
AcDbBlockBegin
  2
_D_19
 70
     0
 10
0.0
 20
0.0
 30
0.0
  3
_D_19
  1

  0
SOLID
  5
21A
330
217
100
AcDbEntity
  8
0
  6
Continuous
 62
     7
370
    18
100
AcDbTrace
 10
356.9687368492
 20
220.5773082918
 30
0.0
 11
359.6270294055
 21
218.553759754
 31
0.0
 12
360.1123368247
 22
219.4463586051
 32
0.0
 13
360.1123368247
 23
219.4463586051
 33
0.0
  0
LINE
  5
21B
330
217
100
AcDbEntity
  8
0
  6
Continuous
 62
     7
370
    18
100
AcDbLine
 10
356.9687368492
 20
220.5773082918
 30
0.0
 11
375.9998225992
 21
210.230076612
 31
0.0
  0
LINE
  5
21C
330
217
100
AcDbEntity
  8
0
  6
Continuous
 62
     7
370
    18
100
AcDbLine
 10
375.9998225992
 20
210.230076612
 30
0.0
 11
382.3498225992
 21
210.230076612
 31
0.0
  0
MTEXT
  5
21D
330
217
100
AcDbEntity
  8
0
  6
Continuous
 62
     7
370
    18
100
AcDbMText
 10
382.3498225992
 20
211.77014102
 30
0.0
 40
3.175
 41
0.0
 71
     1
 72
     1
  1
%%c
  7
SLDTEXTSTYLE0
 73
     1
 44
1.0
  0
MTEXT
  5
21E
330
217
100
AcDbEntity
  8
0
  6
Continuous
 62
     7
370
    18
100
AcDbMText
 10
387.1381193621
 20
211.8186479668
 30
0.0
 40
3.175
 41
0.0
 71
     1
 72
     1
  1
4.00
  7
SLDTEXTSTYLE0
 73
     1
 44
1.0
  0
ENDBLK
  5
219
330
217
100
AcDbEntity
  8
0
100
AcDbBlockEnd
  0
BLOCK
  5
222
330
221
100
AcDbEntity
  8
0
100
AcDbBlockBegin
  2
_NONE
 70
     0
 10
0.0
 20
0.0
 30
0.0
  3
_NONE
  1

  0
ENDBLK
  5
223
330
221
100
AcDbEntity
  8
0
100
AcDbBlockEnd
  0
BLOCK
  5
225
330
224
100
AcDbEntity
  8
0
100
AcDbBlockBegin
  2
_D_20
 70
     0
 10
0.0
 20
0.0
 30
0.0
  3
_D_20
  1

  0
MTEXT
  5
227
330
224
100
AcDbEntity
  8
0
  6
Continuous
 62
     7
370
    18
100
AcDbMText
 10
338.0403754579
 20
207.10698103
 30
0.0
 40
3.175
 41
0.0
 71
     1
 72
     1
  1
4
  7
SLDTEXTSTYLE0
 73
     1
 44
1.0
  0
ENDBLK
  5
226
330
224
100
AcDbEntity
  8
0
100
AcDbBlockEnd
  0
BLOCK
  5
22A
330
229
100
AcDbEntity
  8
0
100
AcDbBlockBegin
  2
_D_21
 70
     0
 10
0.0
 20
0.0
 30
0.0
  3
_D_21
  1

  0
SOLID
  5
22C
330
229
100
AcDbEntity
  8
0
  6
Continuous
 62
     7
370
    18
100
AcDbTrace
 10
284.8997627893
 20
92.818467754
 30
0.0
 11
288.2017627893
 21
92.310467754
 31
0.0
 12
288.2017627893
 22
93.326467754
 32
0.0
 13
288.2017627893
 23
93.326467754
 33
0.0
  0
SOLID
  5
22D
330
229
100
AcDbEntity
  8
0
  6
Continuous
 62
     7
370
    18
100
AcDbTrace
 10
307.8997627893
 20
92.818467754
 30
0.0
 11
304.5977627893
 21
93.326467754
 31
0.0
 12
304.5977627893
 22
92.310467754
 32
0.0
 13
304.5977627893
 23
92.310467754
 33
0.0
  0
LINE
  5
22E
330
229
100
AcDbEntity
  8
0
  6
Continuous
 62
     7
370
    18
100
AcDbLine
 10
284.8997627893
 20
98.5540081225
 30
0.0
 11
284.8997627893
 21
89.643467754
 31
0.0
  0
LINE
  5
22F
330
229
100
AcDbEntity
  8
0
  6
Continuous
 62
     7
370
    18
100
AcDbLine
 10
307.8997627893
 20
98.5540081225
 30
0.0
 11
307.8997627893
 21
89.643467754
 31
0.0
  0
LINE
  5
230
330
229
100
AcDbEntity
  8
0
  6
Continuous
 62
     7
370
    18
100
AcDbLine
 10
284.8997627893
 20
92.818467754
 30
0.0
 11
307.8997627893
 21
92.818467754
 31
0.0
  0
LINE
  5
231
330
229
100
AcDbEntity
  8
0
  6
Continuous
 62
     7
370
    18
100
AcDbLine
 10
307.8997627893
 20
92.818467754
 30
0.0
 11
325.8080408796
 21
92.818467754
 31
0.0
  0
MTEXT
  5
232
330
229
100
AcDbEntity
  8
0
  6
Continuous
 62
     7
370
    18
100
AcDbMText
 10
325.8080408796
 20
94.3911018513
 30
0.0
 40
3.175
 41
0.0
 71
     1
 72
     1
  1
23.00
  7
SLDTEXTSTYLE0
 73
     1
 44
1.0
  0
ENDBLK
  5
22B
330
229
100
AcDbEntity
  8
0
100
AcDbBlockEnd
  0
BLOCK
  5
235
330
234
100
AcDbEntity
  8
0
100
AcDbBlockBegin
  2
_D_22
 70
     0
 10
0.0
 20
0.0
 30
0.0
  3
_D_22
  1

  0
SOLID
  5
237
330
234
100
AcDbEntity
  8
0
  6
Continuous
 62
     7
370
    18
100
AcDbTrace
 10
343.5854233772
 20
97.8240081225
 30
0.0
 11
343.0774233772
 21
94.5220081225
 31
0.0
 12
344.0934233772
 22
94.5220081225
 32
0.0
 13
344.0934233772
 23
94.5220081225
 33
0.0
  0
SOLID
  5
238
330
234
100
AcDbEntity
  8
0
  6
Continuous
 62
     7
370
    18
100
AcDbTrace
 10
343.5854233772
 20
99.8240081225
 30
0.0
 11
344.0934233772
 21
103.1260081225
 31
0.0
 12
343.0774233772
 22
103.1260081225
 32
0.0
 13
343.0774233772
 23
103.1260081225
 33
0.0
  0
LINE
  5
239
330
234
100
AcDbEntity
  8
0
  6
Continuous
 62
     7
370
    18
100
AcDbLine
 10
309.1697627893
 20
97.8240081225
 30
0.0
 11
346.7604233772
 21
97.8240081225
 31
0.0
  0
LINE
  5
23A
330
234
100
AcDbEntity
  8
0
  6
Continuous
 62
     7
370
    18
100
AcDbLine
 10
309.1697627893
 20
99.8240081225
 30
0.0
 11
346.7604233772
 21
99.8240081225
 31
0.0
  0
LINE
  5
23B
330
234
100
AcDbEntity
  8
0
  6
Continuous
 62
     7
370
    18
100
AcDbLine
 10
349.9354233772
 20
103.7516949849
 30
0.0
 11
343.5854233772
 21
103.7516949849
 31
0.0
  0
LINE
  5
23C
330
234
100
AcDbEntity
  8
0
  6
Continuous
 62
     7
370
    18
100
AcDbLine
 10
343.5854233772
 20
103.7516949849
 30
0.0
 11
343.5854233772
 21
99.8240081225
 31
0.0
  0
LINE
  5
23D
330
234
100
AcDbEntity
  8
0
  6
Continuous
 62
     7
370
    18
100
AcDbLine
 10
343.5854233772
 20
97.8240081225
 30
0.0
 11
343.5854233772
 21
91.4740081225
 31
0.0
  0
MTEXT
  5
23E
330
234
100
AcDbEntity
  8
0
  6
Continuous
 62
     7
370
    18
100
AcDbMText
 10
349.9354233772
 20
105.3243290821
 30
0.0
 40
3.175
 41
0.0
 71
     1
 72
     1
  1
2.00
  7
SLDTEXTSTYLE0
 73
     1
 44
1.0
  0
ENDBLK
  5
236
330
234
100
AcDbEntity
  8
0
100
AcDbBlockEnd
  0
BLOCK
  5
241
330
240
100
AcDbEntity
  8
0
100
AcDbBlockBegin
  2
_D_23
 70
     0
 10
0.0
 20
0.0
 30
0.0
  3
_D_23
  1

  0
MTEXT
  5
243
330
240
100
AcDbEntity
  8
0
  6
Continuous
 62
     7
370
    18
100
AcDbMText
 10
295.2267766749
 20
102.3966422198
 30
0.0
 40
3.175
 41
0.0
 71
     1
 72
     1
  1
5
  7
SLDTEXTSTYLE0
 73
     1
 44
1.0
  0
ENDBLK
  5
242
330
240
100
AcDbEntity
  8
0
100
AcDbBlockEnd
  0
BLOCK
  5
246
330
245
100
AcDbEntity
  8
0
100
AcDbBlockBegin
  2
_D_24
 70
     0
 10
0.0
 20
0.0
 30
0.0
  3
_D_24
  1

  0
MTEXT
  5
248
330
245
100
AcDbEntity
  8
0
  6
Continuous
 62
     7
370
    18
100
AcDbMText
 10
295.2267766749
 20
133.8966422198
 30
0.0
 40
3.175
 41
0.0
 71
     1
 72
     1
  1
4
  7
SLDTEXTSTYLE0
 73
     1
 44
1.0
  0
ENDBLK
  5
247
330
245
100
AcDbEntity
  8
0
100
AcDbBlockEnd
  0
BLOCK
  5
24B
330
24A
100
AcDbEntity
  8
0
100
AcDbBlockBegin
  2
_D_25
 70
     0
 10
0.0
 20
0.0
 30
0.0
  3
_D_25
  1

  0
SOLID
  5
24D
330
24A
100
AcDbEntity
  8
0
  6
Continuous
 62
     7
370
    18
100
AcDbTrace
 10
157.2133615723
 20
267.1781814783
 30
0.0
 11
153.9113615723
 21
267.6861814783
 31
0.0
 12
153.9113615723
 22
266.6701814783
 32
0.0
 13
153.9113615723
 23
266.6701814783
 33
0.0
  0
SOLID
  5
24E
330
24A
100
AcDbEntity
  8
0
  6
Continuous
 62
     7
370
    18
100
AcDbTrace
 10
132.2133615723
 20
267.1781814783
 30
0.0
 11
135.5153615723
 21
266.6701814783
 31
0.0
 12
135.5153615723
 22
267.6861814783
 32
0.0
 13
135.5153615723
 23
267.6861814783
 33
0.0
  0
LINE
  5
24F
330
24A
100
AcDbEntity
  8
0
  6
Continuous
 62
     7
370
    18
100
AcDbLine
 10
157.2133615723
 20
236.8043469327
 30
0.0
 11
157.2133615723
 21
270.3531814783
 31
0.0
  0
LINE
  5
250
330
24A
100
AcDbEntity
  8
0
  6
Continuous
 62
     7
370
    18
100
AcDbLine
 10
132.2133615723
 20
241.8043469327
 30
0.0
 11
132.2133615723
 21
270.3531814783
 31
0.0
  0
LINE
  5
251
330
24A
100
AcDbEntity
  8
0
  6
Continuous
 62
     7
370
    18
100
AcDbLine
 10
157.2133615723
 20
267.1781814783
 30
0.0
 11
150.5057244423
 21
267.1781814783
 31
0.0
  0
LINE
  5
252
330
24A
100
AcDbEntity
  8
0
  6
Continuous
 62
     7
370
    18
100
AcDbLine
 10
132.2133615723
 20
267.1781814783
 30
0.0
 11
139.9488496456
 21
267.1781814783
 31
0.0
  0
MTEXT
  5
253
330
24A
100
AcDbEntity
  8
0
  6
Continuous
 62
     7
370
    18
100
AcDbMText
 10
139.9488496456
 20
268.7508155755
 30
0.0
 40
3.175
 41
0.0
 71
     1
 72
     1
  1
25.00
  7
SLDTEXTSTYLE0
 73
     1
 44
1.0
  0
ENDBLK
  5
24C
330
24A
100
AcDbEntity
  8
0
100
AcDbBlockEnd
  0
BLOCK
  5
256
330
255
100
AcDbEntity
  8
0
100
AcDbBlockBegin
  2
_D_26
 70
     0
 10
0.0
 20
0.0
 30
0.0
  3
_D_26
  1

  0
SOLID
  5
258
330
255
100
AcDbEntity
  8
0
  6
Continuous
 62
     7
370
    18
100
AcDbTrace
 10
91.1497153435
 20
235.5343469327
 30
0.0
 11
90.6417153435
 21
232.2323469327
 31
0.0
 12
91.6577153435
 22
232.2323469327
 32
0.0
 13
91.6577153435
 23
232.2323469327
 33
0.0
  0
SOLID
  5
259
330
255
100
AcDbEntity
  8
0
  6
Continuous
 62
     7
370
    18
100
AcDbTrace
 10
91.1497153435
 20
240.5343469327
 30
0.0
 11
91.6577153435
 21
243.8363469327
 31
0.0
 12
90.6417153435
 22
243.8363469327
 32
0.0
 13
90.6417153435
 23
243.8363469327
 33
0.0
  0
LINE
  5
25A
330
255
100
AcDbEntity
  8
0
  6
Continuous
 62
     7
370
    18
100
AcDbLine
 10
155.9433615723
 20
235.5343469327
 30
0.0
 11
87.9747153435
 21
235.5343469327
 31
0.0
  0
LINE
  5
25B
330
255
100
AcDbEntity
  8
0
  6
Continuous
 62
     7
370
    18
100
AcDbLine
 10
130.9433615723
 20
240.5343469327
 30
0.0
 11
87.9747153435
 21
240.5343469327
 31
0.0
  0
LINE
  5
25C
330
255
100
AcDbEntity
  8
0
  6
Continuous
 62
     7
370
    18
100
AcDbLine
 10
84.7997153435
 20
245.7703218584
 30
0.0
 11
91.1497153435
 21
245.7703218584
 31
0.0
  0
LINE
  5
25D
330
255
100
AcDbEntity
  8
0
  6
Continuous
 62
     7
370
    18
100
AcDbLine
 10
91.1497153435
 20
245.7703218584
 30
0.0
 11
91.1497153435
 21
240.5343469327
 31
0.0
  0
LINE
  5
25E
330
255
100
AcDbEntity
  8
0
  6
Continuous
 62
     7
370
    18
100
AcDbLine
 10
91.1497153435
 20
235.5343469327
 30
0.0
 11
91.1497153435
 21
229.1843469327
 31
0.0
  0
MTEXT
  5
25F
330
255
100
AcDbEntity
  8
0
  6
Continuous
 62
     7
370
    18
100
AcDbMText
 10
76.5888123099
 20
247.3429559557
 30
0.0
 40
3.175
 41
0.0
 71
     1
 72
     1
  1
5.00
  7
SLDTEXTSTYLE0
 73
     1
 44
1.0
  0
ENDBLK
  5
257
330
255
100
AcDbEntity
  8
0
100
AcDbBlockEnd
  0
BLOCK
  5
262
330
261
100
AcDbEntity
  8
0
100
AcDbBlockBegin
  2
_D_27
 70
     0
 10
0.0
 20
0.0
 30
0.0
  3
_D_27
  1

  0
SOLID
  5
264
330
261
100
AcDbEntity
  8
0
  6
Continuous
 62
     7
370
    18
100
AcDbTrace
 10
157.6765722302
 20
233.5887272663
 30
0.0
 11
157.9471456312
 21
230.2588536899
 31
0.0
 12
158.9355204217
 22
230.4941647041
 32
0.0
 13
158.9355204217
 23
230.4941647041
 33
0.0
  0
LINE
  5
265
330
261
100
AcDbEntity
  8
0
  6
Continuous
 62
     7
370
    18
100
AcDbLine
 10
157.6765722302
 20
233.5887272663
 30
0.0
 11
160.5961350434
 21
221.3257131716
 31
0.0
  0
LINE
  5
266
330
261
100
AcDbEntity
  8
0
  6
Continuous
 62
     7
370
    18
100
AcDbLine
 10
160.5961350434
 20
221.3257131716
 30
0.0
 11
154.2461350434
 21
221.3257131716
 31
0.0
  0
MTEXT
  5
267
330
261
100
AcDbEntity
  8
0
  6
Continuous
 62
     7
370
    18
100
AcDbMText
 10
141.2469357125
 20
222.8657775797
 30
0.0
 40
3.175
 41
0.0
 71
     1
 72
     1
  1
%%c
  7
SLDTEXTSTYLE0
 73
     1
 44
1.0
  0
MTEXT
  5
268
330
261
100
AcDbEntity
  8
0
  6
Continuous
 62
     7
370
    18
100
AcDbMText
 10
146.0352324754
 20
222.9142845264
 30
0.0
 40
3.175
 41
0.0
 71
     1
 72
     1
  1
4.00
  7
SLDTEXTSTYLE0
 73
     1
 44
1.0
  0
ENDBLK
  5
263
330
261
100
AcDbEntity
  8
0
100
AcDbBlockEnd
  0
BLOCK
  5
26B
330
26A
100
AcDbEntity
  8
0
100
AcDbBlockBegin
  2
_D_28
 70
     0
 10
0.0
 20
0.0
 30
0.0
  3
_D_28
  1

  0
SOLID
  5
26D
330
26A
100
AcDbEntity
  8
0
  6
Continuous
 62
     7
370
    18
100
AcDbTrace
 10
89.5870076413
 20
157.0343469327
 30
0.0
 11
90.0950076413
 21
160.3363469327
 31
0.0
 12
89.0790076413
 22
160.3363469327
 32
0.0
 13
89.0790076413
 23
160.3363469327
 33
0.0
  0
SOLID
  5
26E
330
26A
100
AcDbEntity
  8
0
  6
Continuous
 62
     7
370
    18
100
AcDbTrace
 10
89.5870076413
 20
240.5343469327
 30
0.0
 11
89.0790076413
 21
237.2323469327
 31
0.0
 12
90.0950076413
 22
237.2323469327
 32
0.0
 13
90.0950076413
 23
237.2323469327
 33
0.0
  0
LINE
  5
26F
330
26A
100
AcDbEntity
  8
0
  6
Continuous
 62
     7
370
    18
100
AcDbLine
 10
135.9433615723
 20
157.0343469327
 30
0.0
 11
86.4120076413
 21
157.0343469327
 31
0.0
  0
LINE
  5
270
330
26A
100
AcDbEntity
  8
0
  6
Continuous
 62
     7
370
    18
100
AcDbLine
 10
130.9433615723
 20
240.5343469327
 30
0.0
 11
86.4120076413
 21
240.5343469327
 31
0.0
  0
LINE
  5
271
330
26A
100
AcDbEntity
  8
0
  6
Continuous
 62
     7
370
    18
100
AcDbLine
 10
89.5870076413
 20
157.0343469327
 30
0.0
 11
89.5870076413
 21
190.2689319235
 31
0.0
  0
LINE
  5
272
330
26A
100
AcDbEntity
  8
0
  6
Continuous
 62
     7
370
    18
100
AcDbLine
 10
89.5870076413
 20
240.5343469327
 30
0.0
 11
89.5870076413
 21
195.309244575
 31
0.0
  0
MTEXT
  5
273
330
26A
100
AcDbEntity
  8
0
  6
Continuous
 62
     7
370
    18
100
AcDbMText
 10
84.3085702429
 20
194.3617223465
 30
0.0
 40
3.175
 41
0.0
 71
     1
 72
     1
  1
83.50
  7
SLDTEXTSTYLE0
 73
     1
 44
1.0
  0
ENDBLK
  5
26C
330
26A
100
AcDbEntity
  8
0
100
AcDbBlockEnd
  0
BLOCK
  5
276
330
275
100
AcDbEntity
  8
0
100
AcDbBlockBegin
  2
_D_29
 70
     0
 10
0.0
 20
0.0
 30
0.0
  3
_D_29
  1

  0
SOLID
  5
278
330
275
100
AcDbEntity
  8
0
  6
Continuous
 62
     7
370
    18
100
AcDbTrace
 10
137.2133615723
 20
168.5973211549
 30
0.0
 11
140.5153615723
 21
168.0893211549
 31
0.0
 12
140.5153615723
 22
169.1053211549
 32
0.0
 13
140.5153615723
 23
169.1053211549
 33
0.0
  0
SOLID
  5
279
330
275
100
AcDbEntity
  8
0
  6
Continuous
 62
     7
370
    18
100
AcDbTrace
 10
132.2133615723
 20
168.5973211549
 30
0.0
 11
128.9113615723
 21
169.1053211549
 31
0.0
 12
128.9113615723
 22
168.0893211549
 32
0.0
 13
128.9113615723
 23
168.0893211549
 33
0.0
  0
LINE
  5
27A
330
275
100
AcDbEntity
  8
0
  6
Continuous
 62
     7
370
    18
100
AcDbLine
 10
137.2133615723
 20
158.3043469327
 30
0.0
 11
137.2133615723
 21
171.7723211549
 31
0.0
  0
LINE
  5
27B
330
275
100
AcDbEntity
  8
0
  6
Continuous
 62
     7
370
    18
100
AcDbLine
 10
137.2133615723
 20
168.5973211549
 30
0.0
 11
143.5633615723
 21
168.5973211549
 31
0.0
  0
LINE
  5
27C
330
275
100
AcDbEntity
  8
0
  6
Continuous
 62
     7
370
    18
100
AcDbLine
 10
132.2133615723
 20
168.5973211549
 30
0.0
 11
124.7240219811
 21
168.5973211549
 31
0.0
  0
MTEXT
  5
27D
330
275
100
AcDbEntity
  8
0
  6
Continuous
 62
     7
370
    18
100
AcDbMText
 10
116.5131189475
 20
170.1699552521
 30
0.0
 40
3.175
 41
0.0
 71
     1
 72
     1
  1
5.00
  7
SLDTEXTSTYLE0
 73
     1
 44
1.0
  0
ENDBLK
  5
277
330
275
100
AcDbEntity
  8
0
100
AcDbBlockEnd
  0
BLOCK
  5
280
330
27F
100
AcDbEntity
  8
0
100
AcDbBlockBegin
  2
_D_30
 70
     0
 10
0.0
 20
0.0
 30
0.0
  3
_D_30
  1

  0
SOLID
  5
282
330
27F
100
AcDbEntity
  8
0
  6
Continuous
 62
     7
370
    18
100
AcDbTrace
 10
114.4305451427
 20
78.5343469327
 30
0.0
 11
114.9385451427
 21
81.8363469327
 31
0.0
 12
113.9225451427
 22
81.8363469327
 32
0.0
 13
113.9225451427
 23
81.8363469327
 33
0.0
  0
SOLID
  5
283
330
27F
100
AcDbEntity
  8
0
  6
Continuous
 62
     7
370
    18
100
AcDbTrace
 10
114.4305451427
 20
73.5343469327
 30
0.0
 11
113.9225451427
 21
70.2323469327
 31
0.0
 12
114.9385451427
 22
70.2323469327
 32
0.0
 13
114.9385451427
 23
70.2323469327
 33
0.0
  0
LINE
  5
284
330
27F
100
AcDbEntity
  8
0
  6
Continuous
 62
     7
370
    18
100
AcDbLine
 10
155.9433615723
 20
78.5343469327
 30
0.0
 11
111.2555451427
 21
78.5343469327
 31
0.0
  0
LINE
  5
285
330
27F
100
AcDbEntity
  8
0
  6
Continuous
 62
     7
370
    18
100
AcDbLine
 10
130.9433615723
 20
73.5343469327
 30
0.0
 11
111.2555451427
 21
73.5343469327
 31
0.0
  0
LINE
  5
286
330
27F
100
AcDbEntity
  8
0
  6
Continuous
 62
     7
370
    18
100
AcDbLine
 10
114.4305451427
 20
78.5343469327
 30
0.0
 11
114.4305451427
 21
84.8843469327
 31
0.0
  0
LINE
  5
287
330
27F
100
AcDbEntity
  8
0
  6
Continuous
 62
     7
370
    18
100
AcDbLine
 10
114.4305451427
 20
73.5343469327
 30
0.0
 11
114.4305451427
 21
67.1843469327
 31
0.0
  0
MTEXT
  5
288
330
27F
100
AcDbEntity
  8
0
  6
Continuous
 62
     7
370
    18
100
AcDbMText
 10
110.3250936259
 20
77.3558437759
 30
0.0
 40
3.175
 41
0.0
 71
     1
 72
     1
  1
5.00
  7
SLDTEXTSTYLE0
 73
     1
 44
1.0
  0
ENDBLK
  5
281
330
27F
100
AcDbEntity
  8
0
100
AcDbBlockEnd
  0
BLOCK
  5
28B
330
28A
100
AcDbEntity
  8
0
100
AcDbBlockBegin
  2
_D_31
 70
     0
 10
0.0
 20
0.0
 30
0.0
  3
_D_31
  1

  0
SOLID
  5
28D
330
28A
100
AcDbEntity
  8
0
  6
Continuous
 62
     7
370
    18
100
AcDbTrace
 10
359.2133615723
 20
170.7586146358
 30
0.0
 11
355.9113615723
 21
171.2666146358
 31
0.0
 12
355.9113615723
 22
170.2506146358
 32
0.0
 13
355.9113615723
 23
170.2506146358
 33
0.0
  0
SOLID
  5
28E
330
28A
100
AcDbEntity
  8
0
  6
Continuous
 62
     7
370
    18
100
AcDbTrace
 10
364.2133615723
 20
170.7586146358
 30
0.0
 11
367.5153615723
 21
170.2506146358
 31
0.0
 12
367.5153615723
 22
171.2666146358
 32
0.0
 13
367.5153615723
 23
171.2666146358
 33
0.0
  0
LINE
  5
28F
330
28A
100
AcDbEntity
  8
0
  6
Continuous
 62
     7
370
    18
100
AcDbLine
 10
359.2133615723
 20
158.3043469327
 30
0.0
 11
359.2133615723
 21
173.9336146358
 31
0.0
  0
LINE
  5
290
330
28A
100
AcDbEntity
  8
0
  6
Continuous
 62
     7
370
    18
100
AcDbLine
 10
359.2133615723
 20
170.7586146358
 30
0.0
 11
352.8633615723
 21
170.7586146358
 31
0.0
  0
LINE
  5
291
330
28A
100
AcDbEntity
  8
0
  6
Continuous
 62
     7
370
    18
100
AcDbLine
 10
364.2133615723
 20
170.7586146358
 30
0.0
 11
376.8813120261
 21
170.7586146358
 31
0.0
  0
MTEXT
  5
292
330
28A
100
AcDbEntity
  8
0
  6
Continuous
 62
     7
370
    18
100
AcDbMText
 10
376.8813120261
 20
172.331248733
 30
0.0
 40
3.175
 41
0.0
 71
     1
 72
     1
  1
5.00
  7
SLDTEXTSTYLE0
 73
     1
 44
1.0
  0
ENDBLK
  5
28C
330
28A
100
AcDbEntity
  8
0
100
AcDbBlockEnd
  0
BLOCK
  5
2B6
330
2B5
100
AcDbEntity
  8
0
100
AcDbBlockBegin
  2
SW_NOTE_0
 70
     0
 10
0.0
 20
0.0
 30
0.0
  3
SW_NOTE_0
  1

  0
MTEXT
  5
2B8
330
2B5
100
AcDbEntity
  8
0
  6
Continuous
 62
     0
370
     0
100
AcDbMText
 10
0.0
 20
1.9336016097
 30
0.0
 40
1.5
 41
0.0
 71
     1
 72
     1
  1
UNLESS OTHERWISE SPECIFIED:
  7
SLDTEXTSTYLE0
 73
     1
 44
1.0
  0
MTEXT
  5
2B9
330
2B5
100
AcDbEntity
  8
0
  6
Continuous
 62
     0
370
     0
100
AcDbMText
 10
0.0
 20
-0.5663983345
 30
0.0
 40
1.5
 41
0.0
 71
     1
 72
     1
  1
DIMENSIONS ARE IN MILLIMETERS
  7
SLDTEXTSTYLE0
 73
     1
 44
1.0
  0
MTEXT
  5
2BA
330
2B5
100
AcDbEntity
  8
0
  6
Continuous
 62
     0
370
     0
100
AcDbMText
 10
0.0
 20
-3.0663982786
 30
0.0
 40
1.5
 41
0.0
 71
     1
 72
     1
  1
SURFACE FINISH:
  7
SLDTEXTSTYLE0
 73
     1
 44
1.0
  0
MTEXT
  5
2BB
330
2B5
100
AcDbEntity
  8
0
  6
Continuous
 62
     0
370
     0
100
AcDbMText
 10
0.0
 20
-5.5663982227
 30
0.0
 40
1.5
 41
0.0
 71
     1
 72
     1
  1
TOLERANCES:
  7
SLDTEXTSTYLE0
 73
     1
 44
1.0
  0
MTEXT
  5
2BC
330
2B5
100
AcDbEntity
  8
0
  6
Continuous
 62
     0
370
     0
100
AcDbMText
 10
1.6875
 20
-8.0663981668
 30
0.0
 40
1.5
 41
0.0
 71
     1
 72
     1
  1
LINEAR:
  7
SLDTEXTSTYLE0
 73
     1
 44
1.0
  0
MTEXT
  5
2BD
330
2B5
100
AcDbEntity
  8
0
  6
Continuous
 62
     0
370
     0
100
AcDbMText
 10
1.6875
 20
-10.5663981109
 30
0.0
 40
1.5
 41
0.0
 71
     1
 72
     1
  1
ANGULAR:
  7
SLDTEXTSTYLE0
 73
     1
 44
1.0
  0
ENDBLK
  5
2B7
330
2B5
100
AcDbEntity
  8
0
100
AcDbBlockEnd
  0
BLOCK
  5
2C1
330
2C0
100
AcDbEntity
  8
0
100
AcDbBlockBegin
  2
SW_NOTE_1
 70
     0
 10
0.0
 20
0.0
 30
0.0
  3
SW_NOTE_1
  1

  0
MTEXT
  5
2C3
330
2C0
100
AcDbEntity
  8
0
  6
Continuous
 62
     0
370
     0
100
AcDbMText
 10
0.0
 20
1.9336016097
 30
0.0
 40
1.5
 41
0.0
 71
     1
 72
     1
  1
DEBURR AND
  7
SLDTEXTSTYLE0
 73
     1
 44
1.0
  0
MTEXT
  5
2C4
330
2C0
100
AcDbEntity
  8
0
  6
Continuous
 62
     0
370
     0
100
AcDbMText
 10
0.0
 20
-0.5663983345
 30
0.0
 40
1.5
 41
0.0
 71
     1
 72
     1
  1
BREAK SHARP
  7
SLDTEXTSTYLE0
 73
     1
 44
1.0
  0
MTEXT
  5
2C5
330
2C0
100
AcDbEntity
  8
0
  6
Continuous
 62
     0
370
     0
100
AcDbMText
 10
0.0
 20
-3.0663982786
 30
0.0
 40
1.5
 41
0.0
 71
     1
 72
     1
  1
EDGES
  7
SLDTEXTSTYLE0
 73
     1
 44
1.0
  0
ENDBLK
  5
2C2
330
2C0
100
AcDbEntity
  8
0
100
AcDbBlockEnd
  0
ENDSEC
  0
SECTION
  2
ENTITIES
  0
VIEWPORT
  5
74
330
1B
100
AcDbEntity
 67
     1
  8
0
100
AcDbViewport
 10
210.0
 20
148.5
 30
0.0
 40
444.36
 41
314.226
 68
     1
 69
     1
 12
210.0
 22
148.5
 13
0.0
 23
0.0
 14
10.0
 24
10.0
 15
10.0
 25
10.0
 16
0.0
 26
0.0
 36
1.0
 17
0.0
 27
0.0
 37
0.0
 42
50.0
 43
0.0
 44
0.0
 45
314.226
 50
0.0
 51
0.0
 72
   100
 90
   557152
  1

281
     0
 71
     1
 74
     0
110
0.0
120
0.0
130
0.0
111
1.0
121
0.0
131
0.0
112
0.0
122
1.0
132
0.0
 79
     0
146
0.0
  0
LINE
  5
76
330
1B
100
AcDbEntity
 67
     1
  8
0
  6
Continuous
 62
     7
370
    18
100
AcDbLine
 10
194.7133615723
 20
222.0343469327
 30
0.0
 11
271.7133615723
 21
222.0343469327
 31
0.0
  0
LINE
  5
77
330
1B
100
AcDbEntity
 67
     1
  8
0
  6
Continuous
 62
     7
370
    18
100
AcDbLine
 10
194.7133615723
 20
222.0343469327
 30
0.0
 11
194.7133615723
 21
179.0343469327
 31
0.0
  0
LINE
  5
78
330
1B
100
AcDbEntity
 67
     1
  8
0
  6
Continuous
 62
     7
370
    18
100
AcDbLine
 10
194.7133615723
 20
179.0343469327
 30
0.0
 11
271.7133615723
 21
179.0343469327
 31
0.0
  0
LINE
  5
79
330
1B
100
AcDbEntity
 67
     1
  8
0
  6
Continuous
 62
     7
370
    18
100
AcDbLine
 10
271.7133615723
 20
222.0343469327
 30
0.0
 11
271.7133615723
 21
179.0343469327
 31
0.0
  0
LINE
  5
7A
330
1B
100
AcDbEntity
 67
     1
  8
0
  6
Continuous
 62
     7
370
    18
100
AcDbLine
 10
220.7133615723
 20
86.5343469327
 30
0.0
 11
245.7133615723
 21
86.5343469327
 31
0.0
  0
LINE
  5
7B
330
1B
100
AcDbEntity
 67
     1
  8
0
  6
Continuous
 62
     7
370
    18
100
AcDbLine
 10
220.7133615723
 20
86.5343469327
 30
0.0
 11
220.7133615723
 21
88.5343469327
 31
0.0
  0
LINE
  5
7C
330
1B
100
AcDbEntity
 67
     1
  8
0
  6
Continuous
 62
     7
370
    18
100
AcDbLine
 10
220.7133615723
 20
88.5343469327
 30
0.0
 11
245.7133615723
 21
88.5343469327
 31
0.0
  0
LINE
  5
7D
330
1B
100
AcDbEntity
 67
     1
  8
0
  6
Continuous
 62
     7
370
    18
100
AcDbLine
 10
245.7133615723
 20
86.5343469327
 30
0.0
 11
245.7133615723
 21
88.5343469327
 31
0.0
  0
LINE
  5
7E
330
1B
100
AcDbEntity
 67
     1
  8
0
  6
CENTERX2
 62
     7
370
    18
100
AcDbLine
 10
220.7133615723
 20
86.5343469327
 30
0.0
 11
245.7133615723
 21
88.5343469327
 31
0.0
  0
LINE
  5
7F
330
1B
100
AcDbEntity
 67
     1
  8
0
  6
CENTERX2
 62
     7
370
    18
100
AcDbLine
 10
220.7133615723
 20
88.5343469327
 30
0.0
 11
245.7133615723
 21
86.5343469327
 31
0.0
  0
LINE
  5
80
330
1B
100
AcDbEntity
 67
     1
  8
0
  6
Continuous
 62
     7
370
    18
100
AcDbLine
 10
132.2133615723
 20
240.5343469327
 30
0.0
 11
181.7069169063
 21
240.5343469327
 31
0.0
  0
LINE
  5
81
330
1B
100
AcDbEntity
 67
     1
  8
0
  6
Continuous
 62
     7
370
    18
100
AcDbLine
 10
132.2133615723
 20
240.5343469327
 30
0.0
 11
132.2133615723
 21
73.5343469327
 31
0.0
  0
LINE
  5
82
330
1B
100
AcDbEntity
 67
     1
  8
0
  6
Continuous
 62
     7
370
    18
100
AcDbLine
 10
132.2133615723
 20
73.5343469327
 30
0.0
 11
181.7133615723
 21
73.5343469327
 31
0.0
  0
LINE
  5
83
330
1B
100
AcDbEntity
 67
     1
  8
0
  6
Continuous
 62
     7
370
    18
100
AcDbLine
 10
364.2133615723
 20
240.5343469327
 30
0.0
 11
364.2133615723
 21
73.5343469327
 31
0.0
  0
LINE
  5
84
330
1B
100
AcDbEntity
 67
     1
  8
0
  6
Continuous
 62
     7
370
    18
100
AcDbLine
 10
181.7069169063
 20
240.5343469327
 30
0.0
 11
182.2133615723
 21
240.0343884681
 31
0.0
  0
LINE
  5
85
330
1B
100
AcDbEntity
 67
     1
  8
0
  6
Continuous
 62
     7
370
    18
100
AcDbLine
 10
182.2133615723
 20
240.0343884681
 30
0.0
 11
182.7069169063
 21
240.5343469327
 31
0.0
  0
LINE
  5
86
330
1B
100
AcDbEntity
 67
     1
  8
0
  6
Continuous
 62
     7
370
    18
100
AcDbLine
 10
182.7069169063
 20
240.5343469327
 30
0.0
 11
313.7133615723
 21
240.5343469327
 31
0.0
  0
LINE
  5
87
330
1B
100
AcDbEntity
 67
     1
  8
0
  6
Continuous
 62
     7
370
    18
100
AcDbLine
 10
181.7133615723
 20
73.5343469327
 30
0.0
 11
182.2133615723
 21
74.4003723365
 31
0.0
  0
LINE
  5
88
330
1B
100
AcDbEntity
 67
     1
  8
0
  6
Continuous
 62
     7
370
    18
100
AcDbLine
 10
182.2133615723
 20
74.4003723365
 30
0.0
 11
182.7133615723
 21
73.5343469327
 31
0.0
  0
LINE
  5
89
330
1B
100
AcDbEntity
 67
     1
  8
0
  6
Continuous
 62
     7
370
    18
100
AcDbLine
 10
313.7133615723
 20
73.5343469327
 30
0.0
 11
314.2133615723
 21
74.4003723365
 31
0.0
  0
LINE
  5
8A
330
1B
100
AcDbEntity
 67
     1
  8
0
  6
Continuous
 62
     7
370
    18
100
AcDbLine
 10
314.2133615723
 20
74.4003723365
 30
0.0
 11
314.7133615723
 21
73.5343469327
 31
0.0
  0
LINE
  5
8B
330
1B
100
AcDbEntity
 67
     1
  8
0
  6
Continuous
 62
     7
370
    18
100
AcDbLine
 10
313.7133615723
 20
240.5343469327
 30
0.0
 11
314.2133615723
 21
239.6683215289
 31
0.0
  0
LINE
  5
8C
330
1B
100
AcDbEntity
 67
     1
  8
0
  6
Continuous
 62
     7
370
    18
100
AcDbLine
 10
314.2133615723
 20
239.6683215289
 30
0.0
 11
314.7133615723
 21
240.5343469327
 31
0.0
  0
LINE
  5
8D
330
1B
100
AcDbEntity
 67
     1
  8
0
  6
Continuous
 62
     7
370
    18
100
AcDbLine
 10
314.7133615723
 20
240.5343469327
 30
0.0
 11
364.2133615723
 21
240.5343469327
 31
0.0
  0
LINE
  5
8E
330
1B
100
AcDbEntity
 67
     1
  8
0
  6
Continuous
 62
     7
370
    18
100
AcDbLine
 10
314.7133615723
 20
73.5343469327
 30
0.0
 11
364.2133615723
 21
73.5343469327
 31
0.0
  0
LINE
  5
8F
330
1B
100
AcDbEntity
 67
     1
  8
0
  6
Continuous
 62
     7
370
    18
100
AcDbLine
 10
182.7133615723
 20
73.5343469327
 30
0.0
 11
313.7133615723
 21
73.5343469327
 31
0.0
  0
LINE
  5
90
330
1B
100
AcDbEntity
 67
     1
  8
0
  6
CENTERX2
 62
     7
370
    18
100
AcDbLine
 10
339.2133615723
 20
205.5343469327
 30
0.0
 11
355.2116524967
 21
221.532637857
 31
0.0
  0
LINE
  5
91
330
1B
100
AcDbEntity
 67
     1
  8
0
  6
Continuous
 62
     7
370
    18
100
AcDbLine
 10
284.8997627893
 20
101.8240081225
 30
0.0
 11
307.8997627893
 21
101.8240081225
 31
0.0
  0
LINE
  5
92
330
1B
100
AcDbEntity
 67
     1
  8
0
  6
Continuous
 62
     7
370
    18
100
AcDbLine
 10
284.8997627893
 20
97.8240081225
 30
0.0
 11
307.8997627893
 21
97.8240081225
 31
0.0
  0
LINE
  5
93
330
1B
100
AcDbEntity
 67
     1
  8
0
  6
Continuous
 62
     7
370
    18
100
AcDbLine
 10
284.8997627893
 20
103.8240081225
 30
0.0
 11
307.8997627893
 21
103.8240081225
 31
0.0
  0
LINE
  5
94
330
1B
100
AcDbEntity
 67
     1
  8
0
  6
Continuous
 62
     7
370
    18
100
AcDbLine
 10
284.8997627893
 20
99.8240081225
 30
0.0
 11
307.8997627893
 21
99.8240081225
 31
0.0
  0
LINE
  5
95
330
1B
100
AcDbEntity
 67
     1
  8
0
  6
Continuous
 62
     7
370
    18
100
AcDbLine
 10
284.8997627893
 20
105.8240081225
 30
0.0
 11
307.8997627893
 21
105.8240081225
 31
0.0
  0
LINE
  5
96
330
1B
100
AcDbEntity
 67
     1
  8
0
  6
Continuous
 62
     7
370
    18
100
AcDbLine
 10
284.8997627893
 20
107.8240081225
 30
0.0
 11
307.8997627893
 21
107.8240081225
 31
0.0
  0
LINE
  5
97
330
1B
100
AcDbEntity
 67
     1
  8
0
  6
Continuous
 62
     7
370
    18
100
AcDbLine
 10
284.8997627893
 20
109.8240081225
 30
0.0
 11
307.8997627893
 21
109.8240081225
 31
0.0
  0
LINE
  5
98
330
1B
100
AcDbEntity
 67
     1
  8
0
  6
Continuous
 62
     7
370
    18
100
AcDbLine
 10
284.8997627893
 20
111.8240081225
 30
0.0
 11
307.8997627893
 21
111.8240081225
 31
0.0
  0
LINE
  5
99
330
1B
100
AcDbEntity
 67
     1
  8
0
  6
Continuous
 62
     7
370
    18
100
AcDbLine
 10
284.8997627893
 20
113.8240081225
 30
0.0
 11
307.8997627893
 21
113.8240081225
 31
0.0
  0
LINE
  5
9A
330
1B
100
AcDbEntity
 67
     1
  8
0
  6
Continuous
 62
     7
370
    18
100
AcDbLine
 10
284.8997627893
 20
115.8240081225
 30
0.0
 11
307.8997627893
 21
115.8240081225
 31
0.0
  0
LINE
  5
9B
330
1B
100
AcDbEntity
 67
     1
  8
0
  6
Continuous
 62
     7
370
    18
100
AcDbLine
 10
284.8997627893
 20
136.8240081225
 30
0.0
 11
307.8997627893
 21
136.8240081225
 31
0.0
  0
LINE
  5
9C
330
1B
100
AcDbEntity
 67
     1
  8
0
  6
Continuous
 62
     7
370
    18
100
AcDbLine
 10
284.8997627893
 20
132.8240081225
 30
0.0
 11
307.8997627893
 21
132.8240081225
 31
0.0
  0
LINE
  5
9D
330
1B
100
AcDbEntity
 67
     1
  8
0
  6
Continuous
 62
     7
370
    18
100
AcDbLine
 10
284.8997627893
 20
138.8240081225
 30
0.0
 11
307.8997627893
 21
138.8240081225
 31
0.0
  0
LINE
  5
9E
330
1B
100
AcDbEntity
 67
     1
  8
0
  6
Continuous
 62
     7
370
    18
100
AcDbLine
 10
284.8997627893
 20
134.8240081225
 30
0.0
 11
307.8997627893
 21
134.8240081225
 31
0.0
  0
LINE
  5
9F
330
1B
100
AcDbEntity
 67
     1
  8
0
  6
Continuous
 62
     7
370
    18
100
AcDbLine
 10
284.8997627893
 20
140.8240081225
 30
0.0
 11
307.8997627893
 21
140.8240081225
 31
0.0
  0
LINE
  5
A0
330
1B
100
AcDbEntity
 67
     1
  8
0
  6
Continuous
 62
     7
370
    18
100
AcDbLine
 10
284.8997627893
 20
142.8240081225
 30
0.0
 11
307.8997627893
 21
142.8240081225
 31
0.0
  0
LINE
  5
A1
330
1B
100
AcDbEntity
 67
     1
  8
0
  6
Continuous
 62
     7
370
    18
100
AcDbLine
 10
284.8997627893
 20
144.8240081225
 30
0.0
 11
307.8997627893
 21
144.8240081225
 31
0.0
  0
LINE
  5
A2
330
1B
100
AcDbEntity
 67
     1
  8
0
  6
Continuous
 62
     7
370
    18
100
AcDbLine
 10
284.8997627893
 20
146.8240081225
 30
0.0
 11
307.8997627893
 21
146.8240081225
 31
0.0
  0
LINE
  5
A3
330
1B
100
AcDbEntity
 67
     1
  8
0
  6
Continuous
 62
     7
370
    18
100
AcDbLine
 10
284.8997627893
 20
148.8240081225
 30
0.0
 11
307.8997627893
 21
148.8240081225
 31
0.0
  0
LINE
  5
A4
330
1B
100
AcDbEntity
 67
     1
  8
0
  6
Continuous
 62
     7
370
    18
100
AcDbLine
 10
284.8997627893
 20
150.8240081225
 30
0.0
 11
307.8997627893
 21
150.8240081225
 31
0.0
  0
LINE
  5
A5
330
1B
100
AcDbEntity
 67
     1
  8
0
  6
Continuous
 62
     7
370
    18
100
AcDbLine
 10
284.8997627893
 20
171.8240081225
 30
0.0
 11
307.8997627893
 21
171.8240081225
 31
0.0
  0
LINE
  5
A6
330
1B
100
AcDbEntity
 67
     1
  8
0
  6
Continuous
 62
     7
370
    18
100
AcDbLine
 10
284.8997627893
 20
167.8240081225
 30
0.0
 11
307.8997627893
 21
167.8240081225
 31
0.0
  0
LINE
  5
A7
330
1B
100
AcDbEntity
 67
     1
  8
0
  6
Continuous
 62
     7
370
    18
100
AcDbLine
 10
284.8997627893
 20
173.8240081225
 30
0.0
 11
307.8997627893
 21
173.8240081225
 31
0.0
  0
LINE
  5
A8
330
1B
100
AcDbEntity
 67
     1
  8
0
  6
Continuous
 62
     7
370
    18
100
AcDbLine
 10
284.8997627893
 20
169.8240081225
 30
0.0
 11
307.8997627893
 21
169.8240081225
 31
0.0
  0
LINE
  5
A9
330
1B
100
AcDbEntity
 67
     1
  8
0
  6
Continuous
 62
     7
370
    18
100
AcDbLine
 10
284.8997627893
 20
175.8240081225
 30
0.0
 11
307.8997627893
 21
175.8240081225
 31
0.0
  0
LINE
  5
AA
330
1B
100
AcDbEntity
 67
     1
  8
0
  6
Continuous
 62
     7
370
    18
100
AcDbLine
 10
284.8997627893
 20
177.8240081225
 30
0.0
 11
307.8997627893
 21
177.8240081225
 31
0.0
  0
LINE
  5
AB
330
1B
100
AcDbEntity
 67
     1
  8
0
  6
Continuous
 62
     7
370
    18
100
AcDbLine
 10
284.8997627893
 20
179.8240081225
 30
0.0
 11
307.8997627893
 21
179.8240081225
 31
0.0
  0
LINE
  5
AC
330
1B
100
AcDbEntity
 67
     1
  8
0
  6
Continuous
 62
     7
370
    18
100
AcDbLine
 10
284.8997627893
 20
181.8240081225
 30
0.0
 11
307.8997627893
 21
181.8240081225
 31
0.0
  0
LINE
  5
AD
330
1B
100
AcDbEntity
 67
     1
  8
0
  6
Continuous
 62
     7
370
    18
100
AcDbLine
 10
284.8997627893
 20
183.8240081225
 30
0.0
 11
307.8997627893
 21
183.8240081225
 31
0.0
  0
LINE
  5
AE
330
1B
100
AcDbEntity
 67
     1
  8
0
  6
Continuous
 62
     7
370
    18
100
AcDbLine
 10
284.8997627893
 20
185.8240081225
 30
0.0
 11
307.8997627893
 21
185.8240081225
 31
0.0
  0
LINE
  5
AF
330
1B
100
AcDbEntity
 67
     1
  8
0
  6
Continuous
 62
     7
370
    18
100
AcDbLine
 10
284.8997627893
 20
206.8240081225
 30
0.0
 11
307.8997627893
 21
206.8240081225
 31
0.0
  0
LINE
  5
B0
330
1B
100
AcDbEntity
 67
     1
  8
0
  6
Continuous
 62
     7
370
    18
100
AcDbLine
 10
284.8997627893
 20
202.8240081225
 30
0.0
 11
307.8997627893
 21
202.8240081225
 31
0.0
  0
LINE
  5
B1
330
1B
100
AcDbEntity
 67
     1
  8
0
  6
Continuous
 62
     7
370
    18
100
AcDbLine
 10
284.8997627893
 20
208.8240081225
 30
0.0
 11
307.8997627893
 21
208.8240081225
 31
0.0
  0
LINE
  5
B2
330
1B
100
AcDbEntity
 67
     1
  8
0
  6
Continuous
 62
     7
370
    18
100
AcDbLine
 10
284.8997627893
 20
204.8240081225
 30
0.0
 11
307.8997627893
 21
204.8240081225
 31
0.0
  0
LINE
  5
B3
330
1B
100
AcDbEntity
 67
     1
  8
0
  6
Continuous
 62
     7
370
    18
100
AcDbLine
 10
284.8997627893
 20
210.8240081225
 30
0.0
 11
307.8997627893
 21
210.8240081225
 31
0.0
  0
LINE
  5
B4
330
1B
100
AcDbEntity
 67
     1
  8
0
  6
Continuous
 62
     7
370
    18
100
AcDbLine
 10
284.8997627893
 20
212.8240081225
 30
0.0
 11
307.8997627893
 21
212.8240081225
 31
0.0
  0
LINE
  5
B5
330
1B
100
AcDbEntity
 67
     1
  8
0
  6
Continuous
 62
     7
370
    18
100
AcDbLine
 10
284.8997627893
 20
214.8240081225
 30
0.0
 11
307.8997627893
 21
214.8240081225
 31
0.0
  0
LINE
  5
B6
330
1B
100
AcDbEntity
 67
     1
  8
0
  6
Continuous
 62
     7
370
    18
100
AcDbLine
 10
284.8997627893
 20
216.8240081225
 30
0.0
 11
307.8997627893
 21
216.8240081225
 31
0.0
  0
LINE
  5
B7
330
1B
100
AcDbEntity
 67
     1
  8
0
  6
Continuous
 62
     7
370
    18
100
AcDbLine
 10
284.8997627893
 20
218.8240081225
 30
0.0
 11
307.8997627893
 21
218.8240081225
 31
0.0
  0
LINE
  5
B8
330
1B
100
AcDbEntity
 67
     1
  8
0
  6
Continuous
 62
     7
370
    18
100
AcDbLine
 10
284.8997627893
 20
220.8240081225
 30
0.0
 11
307.8997627893
 21
220.8240081225
 31
0.0
  0
LINE
  5
B9
330
1B
100
AcDbEntity
 67
     1
  8
0
  6
Continuous
 62
     7
370
    50
100
AcDbLine
 10
230.0
 20
14.25
 30
0.0
 11
410.0
 21
14.25
 31
0.0
  0
LINE
  5
BA
330
1B
100
AcDbEntity
 67
     1
  8
0
  6
Continuous
 62
     7
370
    50
100
AcDbLine
 10
410.0
 20
48.25
 30
0.0
 11
230.0
 21
48.25
 31
0.0
  0
LINE
  5
BB
330
1B
100
AcDbEntity
 67
     1
  8
0
  6
Continuous
 62
     7
370
    50
100
AcDbLine
 10
230.0
 20
65.25
 30
0.0
 11
410.0
 21
65.25
 31
0.0
  0
LINE
  5
BC
330
1B
100
AcDbEntity
 67
     1
  8
0
  6
Continuous
 62
     7
370
    50
100
AcDbLine
 10
256.9909524338
 20
48.25
 30
0.0
 11
256.9909524338
 21
10.0
 31
0.0
  0
LINE
  5
BD
330
1B
100
AcDbEntity
 67
     1
  8
0
  6
Continuous
 62
     7
370
    50
100
AcDbLine
 10
328.8
 20
31.25
 30
0.0
 11
230.0
 21
31.25
 31
0.0
  0
LINE
  5
BE
330
1B
100
AcDbEntity
 67
     1
  8
0
  6
Continuous
 62
     7
370
    50
100
AcDbLine
 10
328.8
 20
35.5
 30
0.0
 11
230.0
 21
35.5
 31
0.0
  0
LINE
  5
BF
330
1B
100
AcDbEntity
 67
     1
  8
0
  6
Continuous
 62
     7
370
    50
100
AcDbLine
 10
328.8
 20
39.75
 30
0.0
 11
230.0
 21
39.75
 31
0.0
  0
LINE
  5
C0
330
1B
100
AcDbEntity
 67
     1
  8
0
  6
Continuous
 62
     7
370
    50
100
AcDbLine
 10
328.8
 20
44.0
 30
0.0
 11
230.0
 21
44.0
 31
0.0
  0
LINE
  5
C1
330
1B
100
AcDbEntity
 67
     1
  8
0
  6
Continuous
 62
     7
370
    50
100
AcDbLine
 10
284.6
 20
10.0
 30
0.0
 11
284.6
 21
48.25
 31
0.0
  0
LINE
  5
C2
330
1B
100
AcDbEntity
 67
     1
  8
0
  6
Continuous
 62
     7
370
    50
100
AcDbLine
 10
230.0
 20
65.25
 30
0.0
 11
230.0
 21
10.0
 31
0.0
  0
LINE
  5
C3
330
1B
100
AcDbEntity
 67
     1
  8
0
  6
Continuous
 62
     7
370
    50
100
AcDbLine
 10
237.8
 20
48.25
 30
0.0
 11
237.8
 21
10.0
 31
0.0
  0
LINE
  5
C4
330
1B
100
AcDbEntity
 67
     1
  8
0
  6
Continuous
 62
     7
370
    50
100
AcDbLine
 10
263.8
 20
48.25
 30
0.0
 11
263.8
 21
65.25
 31
0.0
  0
LINE
  5
C5
330
1B
100
AcDbEntity
 67
     1
  8
0
  6
Continuous
 62
     7
370
    50
100
AcDbLine
 10
274.3989261635
 20
48.25
 30
0.0
 11
274.3989261635
 21
10.0
 31
0.0
  0
LINE
  5
C6
330
1B
100
AcDbEntity
 67
     1
  8
0
  6
Continuous
 62
     7
370
    50
100
AcDbLine
 10
295.0
 20
31.25
 30
0.0
 11
295.0
 21
48.25
 31
0.0
  0
LINE
  5
C7
330
1B
100
AcDbEntity
 67
     1
  8
0
  6
Continuous
 62
     7
370
    50
100
AcDbLine
 10
284.6
 20
18.5
 30
0.0
 11
230.0
 21
18.5
 31
0.0
  0
LINE
  5
C8
330
1B
100
AcDbEntity
 67
     1
  8
0
  6
Continuous
 62
     7
370
    50
100
AcDbLine
 10
310.6
 20
65.25
 30
0.0
 11
310.6
 21
27.0
 31
0.0
  0
LINE
  5
C9
330
1B
100
AcDbEntity
 67
     1
  8
0
  6
Continuous
 62
     7
370
    50
100
AcDbLine
 10
284.6
 20
22.749928
 30
0.0
 11
230.0
 21
22.749928
 31
0.0
  0
LINE
  5
CA
330
1B
100
AcDbEntity
 67
     1
  8
0
  6
Continuous
 62
     7
370
    50
100
AcDbLine
 10
284.6
 20
27.0
 30
0.0
 11
230.0
 21
27.0
 31
0.0
  0
LINE
  5
CB
330
1B
100
AcDbEntity
 67
     1
  8
0
  6
Continuous
 62
     7
370
    50
100
AcDbLine
 10
284.6
 20
27.0
 30
0.0
 11
410.0
 21
27.0
 31
0.0
  0
LINE
  5
CC
330
1B
100
AcDbEntity
 67
     1
  8
0
  6
Continuous
 62
     7
370
    50
100
AcDbLine
 10
328.8
 20
65.25
 30
0.0
 11
328.8
 21
10.0
 31
0.0
  0
LINE
  5
CD
330
1B
100
AcDbEntity
 67
     1
  8
0
  6
Continuous
 62
     7
370
    50
100
AcDbLine
 10
373.0
 20
10.0
 30
0.0
 11
373.0
 21
14.25
 31
0.0
  0
LINE
  5
CE
330
1B
100
AcDbEntity
 67
     1
  8
0
  6
Continuous
 62
     7
370
    50
100
AcDbLine
 10
380.8
 20
58.875
 30
0.0
 11
380.8
 21
65.25
 31
0.0
  0
LINE
  5
CF
330
1B
100
AcDbEntity
 67
     1
  8
0
  6
Continuous
 62
     7
370
    50
100
AcDbLine
 10
397.0
 20
14.25
 30
0.0
 11
397.0
 21
27.0
 31
0.0
  0
LINE
  5
D0
330
1B
100
AcDbEntity
 67
     1
  8
0
  6
Continuous
 62
     7
370
    50
100
AcDbLine
 10
410.0
 20
58.875
 30
0.0
 11
328.8
 21
58.875
 31
0.0
  0
LINE
  5
D1
330
1B
100
AcDbEntity
 67
     1
  8
0
  6
Continuous
 62
     7
370
    50
100
AcDbLine
 10
410.0
 20
18.5
 30
0.0
 11
397.0
 21
18.5
 31
0.0
  0
LINE
  5
D2
330
1B
100
AcDbEntity
 67
     1
  8
0
  6
Continuous
 62
     7
370
    70
100
AcDbLine
 10
10.0
 20
10.0
 30
0.0
 11
10.0
 21
287.0
 31
0.0
  0
LINE
  5
D3
330
1B
100
AcDbEntity
 67
     1
  8
0
  6
Continuous
 62
     7
370
    70
100
AcDbLine
 10
10.0
 20
287.0
 30
0.0
 11
410.0
 21
287.0
 31
0.0
  0
LINE
  5
D4
330
1B
100
AcDbEntity
 67
     1
  8
0
  6
Continuous
 62
     7
370
    70
100
AcDbLine
 10
410.0
 20
287.0
 30
0.0
 11
410.0
 21
10.0
 31
0.0
  0
LINE
  5
D5
330
1B
100
AcDbEntity
 67
     1
  8
0
  6
Continuous
 62
     7
370
    70
100
AcDbLine
 10
410.0
 20
10.0
 30
0.0
 11
10.0
 21
10.0
 31
0.0
  0
LINE
  5
D6
330
1B
100
AcDbEntity
 67
     1
  8
0
  6
Continuous
 62
     7
370
    35
100
AcDbLine
 10
2.5
 20
148.5
 30
0.0
 11
10.0
 21
148.5
 31
0.0
  0
LINE
  5
D7
330
1B
100
AcDbEntity
 67
     1
  8
0
  6
Continuous
 62
     7
370
    35
100
AcDbLine
 10
210.0
 20
294.5
 30
0.0
 11
210.0
 21
287.0
 31
0.0
  0
LINE
  5
D8
330
1B
100
AcDbEntity
 67
     1
  8
0
  6
Continuous
 62
     7
370
    35
100
AcDbLine
 10
417.5
 20
148.5
 30
0.0
 11
410.0
 21
148.5
 31
0.0
  0
LINE
  5
D9
330
1B
100
AcDbEntity
 67
     1
  8
0
  6
Continuous
 62
     7
370
    35
100
AcDbLine
 10
210.0
 20
2.5
 30
0.0
 11
210.0
 21
10.0
 31
0.0
  0
LINE
  5
DA
330
1B
100
AcDbEntity
 67
     1
  8
0
  6
Continuous
 62
     7
370
    35
100
AcDbLine
 10
10.0
 20
48.5
 30
0.0
 11
2.5
 21
48.5
 31
0.0
  0
LINE
  5
DB
330
1B
100
AcDbEntity
 67
     1
  8
0
  6
Continuous
 62
     7
370
    35
100
AcDbLine
 10
410.0
 20
48.5
 30
0.0
 11
417.5
 21
48.5
 31
0.0
  0
LINE
  5
DC
330
1B
100
AcDbEntity
 67
     1
  8
0
  6
Continuous
 62
     7
370
    35
100
AcDbLine
 10
10.0
 20
98.5
 30
0.0
 11
2.5
 21
98.5
 31
0.0
  0
LINE
  5
DD
330
1B
100
AcDbEntity
 67
     1
  8
0
  6
Continuous
 62
     7
370
    35
100
AcDbLine
 10
410.0
 20
98.5
 30
0.0
 11
417.5
 21
98.5
 31
0.0
  0
LINE
  5
DE
330
1B
100
AcDbEntity
 67
     1
  8
0
  6
Continuous
 62
     7
370
    35
100
AcDbLine
 10
10.0
 20
148.5
 30
0.0
 11
2.5
 21
148.5
 31
0.0
  0
LINE
  5
DF
330
1B
100
AcDbEntity
 67
     1
  8
0
  6
Continuous
 62
     7
370
    35
100
AcDbLine
 10
410.0
 20
148.5
 30
0.0
 11
417.5
 21
148.5
 31
0.0
  0
LINE
  5
E0
330
1B
100
AcDbEntity
 67
     1
  8
0
  6
Continuous
 62
     7
370
    35
100
AcDbLine
 10
10.0
 20
198.5
 30
0.0
 11
2.5
 21
198.5
 31
0.0
  0
LINE
  5
E1
330
1B
100
AcDbEntity
 67
     1
  8
0
  6
Continuous
 62
     7
370
    35
100
AcDbLine
 10
410.0
 20
198.5
 30
0.0
 11
417.5
 21
198.5
 31
0.0
  0
LINE
  5
E2
330
1B
100
AcDbEntity
 67
     1
  8
0
  6
Continuous
 62
     7
370
    35
100
AcDbLine
 10
10.0
 20
248.5
 30
0.0
 11
2.5
 21
248.5
 31
0.0
  0
LINE
  5
E3
330
1B
100
AcDbEntity
 67
     1
  8
0
  6
Continuous
 62
     7
370
    35
100
AcDbLine
 10
410.0
 20
248.5
 30
0.0
 11
417.5
 21
248.5
 31
0.0
  0
LINE
  5
E4
330
1B
100
AcDbEntity
 67
     1
  8
0
  6
Continuous
 62
     7
370
    35
100
AcDbLine
 10
60.0
 20
287.0
 30
0.0
 11
60.0
 21
294.5
 31
0.0
  0
LINE
  5
E5
330
1B
100
AcDbEntity
 67
     1
  8
0
  6
Continuous
 62
     7
370
    35
100
AcDbLine
 10
60.0
 20
10.0
 30
0.0
 11
60.0
 21
2.5
 31
0.0
  0
LINE
  5
E6
330
1B
100
AcDbEntity
 67
     1
  8
0
  6
Continuous
 62
     7
370
    35
100
AcDbLine
 10
110.0
 20
287.0
 30
0.0
 11
110.0
 21
294.5
 31
0.0
  0
LINE
  5
E7
330
1B
100
AcDbEntity
 67
     1
  8
0
  6
Continuous
 62
     7
370
    35
100
AcDbLine
 10
110.0
 20
10.0
 30
0.0
 11
110.0
 21
2.5
 31
0.0
  0
LINE
  5
E8
330
1B
100
AcDbEntity
 67
     1
  8
0
  6
Continuous
 62
     7
370
    35
100
AcDbLine
 10
160.0
 20
287.0
 30
0.0
 11
160.0
 21
294.5
 31
0.0
  0
LINE
  5
E9
330
1B
100
AcDbEntity
 67
     1
  8
0
  6
Continuous
 62
     7
370
    35
100
AcDbLine
 10
160.0
 20
10.0
 30
0.0
 11
160.0
 21
2.5
 31
0.0
  0
LINE
  5
EA
330
1B
100
AcDbEntity
 67
     1
  8
0
  6
Continuous
 62
     7
370
    35
100
AcDbLine
 10
210.0
 20
287.0
 30
0.0
 11
210.0
 21
294.5
 31
0.0
  0
LINE
  5
EB
330
1B
100
AcDbEntity
 67
     1
  8
0
  6
Continuous
 62
     7
370
    35
100
AcDbLine
 10
210.0
 20
10.0
 30
0.0
 11
210.0
 21
2.5
 31
0.0
  0
LINE
  5
EC
330
1B
100
AcDbEntity
 67
     1
  8
0
  6
Continuous
 62
     7
370
    35
100
AcDbLine
 10
260.0
 20
287.0
 30
0.0
 11
260.0
 21
294.5
 31
0.0
  0
LINE
  5
ED
330
1B
100
AcDbEntity
 67
     1
  8
0
  6
Continuous
 62
     7
370
    35
100
AcDbLine
 10
260.0
 20
10.0
 30
0.0
 11
260.0
 21
2.5
 31
0.0
  0
LINE
  5
EE
330
1B
100
AcDbEntity
 67
     1
  8
0
  6
Continuous
 62
     7
370
    35
100
AcDbLine
 10
310.0
 20
287.0
 30
0.0
 11
310.0
 21
294.5
 31
0.0
  0
LINE
  5
EF
330
1B
100
AcDbEntity
 67
     1
  8
0
  6
Continuous
 62
     7
370
    35
100
AcDbLine
 10
310.0
 20
10.0
 30
0.0
 11
310.0
 21
2.5
 31
0.0
  0
LINE
  5
F0
330
1B
100
AcDbEntity
 67
     1
  8
0
  6
Continuous
 62
     7
370
    35
100
AcDbLine
 10
360.0
 20
287.0
 30
0.0
 11
360.0
 21
294.5
 31
0.0
  0
LINE
  5
F1
330
1B
100
AcDbEntity
 67
     1
  8
0
  6
Continuous
 62
     7
370
    35
100
AcDbLine
 10
360.0
 20
10.0
 30
0.0
 11
360.0
 21
2.5
 31
0.0
  0
CIRCLE
  5
F2
330
1B
100
AcDbEntity
 67
     1
  8
0
  6
Continuous
 62
     7
370
    18
100
AcDbCircle
 10
192.2133615723
 20
228.0343469327
 30
0.0
 40
1.750000000000014
  0
CIRCLE
  5
F3
330
1B
100
AcDbEntity
 67
     1
  8
0
  6
Continuous
 62
     7
370
    18
100
AcDbCircle
 10
192.2133615723
 20
173.0538338988
 30
0.0
 40
1.750000000000014
  0
CIRCLE
  5
F4
330
1B
100
AcDbEntity
 67
     1
  8
0
  6
Continuous
 62
     7
370
    18
100
AcDbCircle
 10
274.2133615723
 20
173.0538338988
 30
0.0
 40
1.750000000000068
  0
CIRCLE
  5
F5
330
1B
100
AcDbEntity
 67
     1
  8
0
  6
Continuous
 62
     7
370
    18
100
AcDbCircle
 10
274.2133615723
 20
228.0343469327
 30
0.0
 40
1.750000000000068
  0
CIRCLE
  5
F6
330
1B
100
AcDbEntity
 67
     1
  8
0
  6
Continuous
 62
     7
370
    18
100
AcDbCircle
 10
339.2133615723
 20
205.5343469327
 30
0.0
 40
18.99999999999996
  0
ARC
  5
F7
330
1B
100
AcDbEntity
 67
     1
  8
0
  6
Continuous
 62
     7
370
    18
100
AcDbCircle
 10
284.8997627893
 20
98.8240081225
 30
0.0
 40
1.0
100
AcDbArc
 50
90.0
 51
270.0
  0
CIRCLE
  5
F8
330
1B
100
AcDbEntity
 67
     1
  8
0
  6
Continuous
 62
     7
370
    18
100
AcDbCircle
 10
355.2116524967
 20
221.532637857
 30
0.0
 40
1.999999999999886
  0
ARC
  5
F9
330
1B
100
AcDbEntity
 67
     1
  8
0
  6
Continuous
 62
     7
370
    18
100
AcDbCircle
 10
307.8997627893
 20
98.8240081225
 30
0.0
 40
1.0
100
AcDbArc
 50
270.0
 51
90.0
  0
CIRCLE
  5
FA
330
1B
100
AcDbEntity
 67
     1
  8
0
  6
Continuous
 62
     7
370
    18
100
AcDbCircle
 10
355.2116524967
 20
189.5360560084
 30
0.0
 40
2.000000000000293
  0
ARC
  5
FB
330
1B
100
AcDbEntity
 67
     1
  8
0
  6
Continuous
 62
     7
370
    18
100
AcDbCircle
 10
284.8997627893
 20
102.8240081225
 30
0.0
 40
1.0
100
AcDbArc
 50
90.0
 51
270.0
  0
CIRCLE
  5
FC
330
1B
100
AcDbEntity
 67
     1
  8
0
  6
Continuous
 62
     7
370
    18
100
AcDbCircle
 10
323.215070648
 20
189.5360560084
 30
0.0
 40
1.999999999999987
  0
ARC
  5
FD
330
1B
100
AcDbEntity
 67
     1
  8
0
  6
Continuous
 62
     7
370
    18
100
AcDbCircle
 10
307.8997627893
 20
102.8240081225
 30
0.0
 40
1.0
100
AcDbArc
 50
270.0
 51
90.0
  0
CIRCLE
  5
FE
330
1B
100
AcDbEntity
 67
     1
  8
0
  6
Continuous
 62
     7
370
    18
100
AcDbCircle
 10
323.215070648
 20
221.532637857
 30
0.0
 40
1.999999999999255
  0
ARC
  5
FF
330
1B
100
AcDbEntity
 67
     1
  8
0
  6
Continuous
 62
     7
370
    18
100
AcDbCircle
 10
284.8997627893
 20
106.8240081225
 30
0.0
 40
1.0
100
AcDbArc
 50
90.0
 51
270.0
  0
ARC
  5
100
330
1B
100
AcDbEntity
 67
     1
  8
0
  6
Continuous
 62
     7
370
    18
100
AcDbCircle
 10
307.8997627893
 20
106.8240081225
 30
0.0
 40
1.0
100
AcDbArc
 50
270.0
 51
90.0
  0
ARC
  5
101
330
1B
100
AcDbEntity
 67
     1
  8
0
  6
Continuous
 62
     7
370
    18
100
AcDbCircle
 10
284.8997627893
 20
110.8240081225
 30
0.0
 40
1.0
100
AcDbArc
 50
90.0
 51
270.0
  0
ARC
  5
102
330
1B
100
AcDbEntity
 67
     1
  8
0
  6
Continuous
 62
     7
370
    18
100
AcDbCircle
 10
307.8997627893
 20
110.8240081225
 30
0.0
 40
1.0
100
AcDbArc
 50
270.0
 51
90.0
  0
ARC
  5
103
330
1B
100
AcDbEntity
 67
     1
  8
0
  6
Continuous
 62
     7
370
    18
100
AcDbCircle
 10
284.8997627893
 20
114.8240081225
 30
0.0
 40
1.0
100
AcDbArc
 50
90.0
 51
270.0
  0
ARC
  5
104
330
1B
100
AcDbEntity
 67
     1
  8
0
  6
Continuous
 62
     7
370
    18
100
AcDbCircle
 10
307.8997627893
 20
114.8240081225
 30
0.0
 40
1.0
100
AcDbArc
 50
270.0
 51
90.0
  0
ARC
  5
105
330
1B
100
AcDbEntity
 67
     1
  8
0
  6
Continuous
 62
     7
370
    18
100
AcDbCircle
 10
284.8997627893
 20
133.8240081225
 30
0.0
 40
1.0
100
AcDbArc
 50
90.0
 51
270.0
  0
ARC
  5
106
330
1B
100
AcDbEntity
 67
     1
  8
0
  6
Continuous
 62
     7
370
    18
100
AcDbCircle
 10
307.8997627893
 20
133.8240081225
 30
0.0
 40
1.0
100
AcDbArc
 50
270.0
 51
90.0
  0
ARC
  5
107
330
1B
100
AcDbEntity
 67
     1
  8
0
  6
Continuous
 62
     7
370
    18
100
AcDbCircle
 10
284.8997627893
 20
137.8240081225
 30
0.0
 40
1.0
100
AcDbArc
 50
90.0
 51
270.0
  0
ARC
  5
108
330
1B
100
AcDbEntity
 67
     1
  8
0
  6
Continuous
 62
     7
370
    18
100
AcDbCircle
 10
307.8997627893
 20
137.8240081225
 30
0.0
 40
1.0
100
AcDbArc
 50
270.0
 51
90.0
  0
ARC
  5
109
330
1B
100
AcDbEntity
 67
     1
  8
0
  6
Continuous
 62
     7
370
    18
100
AcDbCircle
 10
284.8997627893
 20
141.8240081225
 30
0.0
 40
1.0
100
AcDbArc
 50
90.0
 51
270.0
  0
ARC
  5
10A
330
1B
100
AcDbEntity
 67
     1
  8
0
  6
Continuous
 62
     7
370
    18
100
AcDbCircle
 10
307.8997627893
 20
141.8240081225
 30
0.0
 40
1.0
100
AcDbArc
 50
270.0
 51
90.0
  0
ARC
  5
10B
330
1B
100
AcDbEntity
 67
     1
  8
0
  6
Continuous
 62
     7
370
    18
100
AcDbCircle
 10
284.8997627893
 20
145.8240081225
 30
0.0
 40
1.0
100
AcDbArc
 50
90.0
 51
270.0
  0
ARC
  5
10C
330
1B
100
AcDbEntity
 67
     1
  8
0
  6
Continuous
 62
     7
370
    18
100
AcDbCircle
 10
307.8997627893
 20
145.8240081225
 30
0.0
 40
1.0
100
AcDbArc
 50
270.0
 51
90.0
  0
ARC
  5
10D
330
1B
100
AcDbEntity
 67
     1
  8
0
  6
Continuous
 62
     7
370
    18
100
AcDbCircle
 10
284.8997627893
 20
149.8240081225
 30
0.0
 40
1.0
100
AcDbArc
 50
90.0
 51
270.0
  0
ARC
  5
10E
330
1B
100
AcDbEntity
 67
     1
  8
0
  6
Continuous
 62
     7
370
    18
100
AcDbCircle
 10
307.8997627893
 20
149.8240081225
 30
0.0
 40
1.0
100
AcDbArc
 50
270.0
 51
90.0
  0
ARC
  5
10F
330
1B
100
AcDbEntity
 67
     1
  8
0
  6
Continuous
 62
     7
370
    18
100
AcDbCircle
 10
284.8997627893
 20
168.8240081225
 30
0.0
 40
1.0
100
AcDbArc
 50
90.0
 51
270.0
  0
ARC
  5
110
330
1B
100
AcDbEntity
 67
     1
  8
0
  6
Continuous
 62
     7
370
    18
100
AcDbCircle
 10
307.8997627893
 20
168.8240081225
 30
0.0
 40
1.0
100
AcDbArc
 50
270.0
 51
90.0
  0
ARC
  5
111
330
1B
100
AcDbEntity
 67
     1
  8
0
  6
Continuous
 62
     7
370
    18
100
AcDbCircle
 10
284.8997627893
 20
172.8240081225
 30
0.0
 40
1.0
100
AcDbArc
 50
90.0
 51
270.0
  0
ARC
  5
112
330
1B
100
AcDbEntity
 67
     1
  8
0
  6
Continuous
 62
     7
370
    18
100
AcDbCircle
 10
307.8997627893
 20
172.8240081225
 30
0.0
 40
1.0
100
AcDbArc
 50
270.0
 51
90.0
  0
ARC
  5
113
330
1B
100
AcDbEntity
 67
     1
  8
0
  6
Continuous
 62
     7
370
    18
100
AcDbCircle
 10
284.8997627893
 20
176.8240081225
 30
0.0
 40
1.0
100
AcDbArc
 50
90.0
 51
270.0
  0
ARC
  5
114
330
1B
100
AcDbEntity
 67
     1
  8
0
  6
Continuous
 62
     7
370
    18
100
AcDbCircle
 10
307.8997627893
 20
176.8240081225
 30
0.0
 40
1.0
100
AcDbArc
 50
270.0
 51
90.0
  0
ARC
  5
115
330
1B
100
AcDbEntity
 67
     1
  8
0
  6
Continuous
 62
     7
370
    18
100
AcDbCircle
 10
284.8997627893
 20
180.8240081225
 30
0.0
 40
1.0
100
AcDbArc
 50
90.0
 51
270.0
  0
ARC
  5
116
330
1B
100
AcDbEntity
 67
     1
  8
0
  6
Continuous
 62
     7
370
    18
100
AcDbCircle
 10
307.8997627893
 20
180.8240081225
 30
0.0
 40
1.0
100
AcDbArc
 50
270.0
 51
90.0
  0
ARC
  5
117
330
1B
100
AcDbEntity
 67
     1
  8
0
  6
Continuous
 62
     7
370
    18
100
AcDbCircle
 10
284.8997627893
 20
184.8240081225
 30
0.0
 40
1.0
100
AcDbArc
 50
90.0
 51
270.0
  0
ARC
  5
118
330
1B
100
AcDbEntity
 67
     1
  8
0
  6
Continuous
 62
     7
370
    18
100
AcDbCircle
 10
307.8997627893
 20
184.8240081225
 30
0.0
 40
1.0
100
AcDbArc
 50
270.0
 51
90.0
  0
ARC
  5
119
330
1B
100
AcDbEntity
 67
     1
  8
0
  6
Continuous
 62
     7
370
    18
100
AcDbCircle
 10
284.8997627893
 20
203.8240081225
 30
0.0
 40
1.0
100
AcDbArc
 50
90.0
 51
270.0
  0
ARC
  5
11A
330
1B
100
AcDbEntity
 67
     1
  8
0
  6
Continuous
 62
     7
370
    18
100
AcDbCircle
 10
307.8997627893
 20
203.8240081225
 30
0.0
 40
1.0
100
AcDbArc
 50
270.0
 51
90.0
  0
ARC
  5
11B
330
1B
100
AcDbEntity
 67
     1
  8
0
  6
Continuous
 62
     7
370
    18
100
AcDbCircle
 10
284.8997627893
 20
207.8240081225
 30
0.0
 40
1.0
100
AcDbArc
 50
90.0
 51
270.0
  0
ARC
  5
11C
330
1B
100
AcDbEntity
 67
     1
  8
0
  6
Continuous
 62
     7
370
    18
100
AcDbCircle
 10
307.8997627893
 20
207.8240081225
 30
0.0
 40
1.0
100
AcDbArc
 50
270.0
 51
90.0
  0
ARC
  5
11D
330
1B
100
AcDbEntity
 67
     1
  8
0
  6
Continuous
 62
     7
370
    18
100
AcDbCircle
 10
284.8997627893
 20
211.8240081225
 30
0.0
 40
1.0
100
AcDbArc
 50
90.0
 51
270.0
  0
ARC
  5
11E
330
1B
100
AcDbEntity
 67
     1
  8
0
  6
Continuous
 62
     7
370
    18
100
AcDbCircle
 10
307.8997627893
 20
211.8240081225
 30
0.0
 40
1.0
100
AcDbArc
 50
270.0
 51
90.0
  0
ARC
  5
11F
330
1B
100
AcDbEntity
 67
     1
  8
0
  6
Continuous
 62
     7
370
    18
100
AcDbCircle
 10
284.8997627893
 20
215.8240081225
 30
0.0
 40
1.0
100
AcDbArc
 50
90.0
 51
270.0
  0
ARC
  5
120
330
1B
100
AcDbEntity
 67
     1
  8
0
  6
Continuous
 62
     7
370
    18
100
AcDbCircle
 10
307.8997627893
 20
215.8240081225
 30
0.0
 40
1.0
100
AcDbArc
 50
270.0
 51
90.0
  0
ARC
  5
121
330
1B
100
AcDbEntity
 67
     1
  8
0
  6
Continuous
 62
     7
370
    18
100
AcDbCircle
 10
284.8997627893
 20
219.8240081225
 30
0.0
 40
1.0
100
AcDbArc
 50
90.0
 51
270.0
  0
ARC
  5
122
330
1B
100
AcDbEntity
 67
     1
  8
0
  6
Continuous
 62
     7
370
    18
100
AcDbCircle
 10
307.8997627893
 20
219.8240081225
 30
0.0
 40
1.0
100
AcDbArc
 50
270.0
 51
90.0
  0
CIRCLE
  5
123
330
1B
100
AcDbEntity
 67
     1
  8
0
  6
Continuous
 62
     7
370
    18
100
AcDbCircle
 10
157.2133615723
 20
235.5343469327
 30
0.0
 40
1.999999999999987
  0
CIRCLE
  5
124
330
1B
100
AcDbEntity
 67
     1
  8
0
  6
Continuous
 62
     7
370
    18
100
AcDbCircle
 10
137.2133615723
 20
157.0343469327
 30
0.0
 40
1.999999999999995
  0
CIRCLE
  5
125
330
1B
100
AcDbEntity
 67
     1
  8
0
  6
Continuous
 62
     7
370
    18
100
AcDbCircle
 10
157.2133615723
 20
78.5343469327
 30
0.0
 40
1.999999999999995
  0
CIRCLE
  5
126
330
1B
100
AcDbEntity
 67
     1
  8
0
  6
Continuous
 62
     7
370
    18
100
AcDbCircle
 10
339.2133615723
 20
78.5343469327
 30
0.0
 40
1.999999999999995
  0
CIRCLE
  5
127
330
1B
100
AcDbEntity
 67
     1
  8
0
  6
Continuous
 62
     7
370
    18
100
AcDbCircle
 10
359.2133615723
 20
157.0343469327
 30
0.0
 40
1.999999999999995
  0
CIRCLE
  5
128
330
1B
100
AcDbEntity
 67
     1
  8
0
  6
Continuous
 62
     7
370
    18
100
AcDbCircle
 10
339.2133615723
 20
235.5343469327
 30
0.0
 40
1.999999999999987
  0
POINT
  5
129
330
1B
100
AcDbEntity
 67
     1
  8
0
  6
Continuous
 62
     7
370
     0
100
AcDbPoint
 10
233.2133615723
 20
200.5343469327
 30
0.0
  0
POINT
  5
12A
330
1B
100
AcDbEntity
 67
     1
  8
0
  6
Continuous
 62
     7
370
     0
100
AcDbPoint
 10
233.2133615723
 20
87.5343469327
 30
0.0
  0
POINT
  5
12B
330
1B
100
AcDbEntity
 67
     1
  8
0
  6
Continuous
 62
     7
370
     0
100
AcDbPoint
 10
296.3997627893
 20
98.8240081225
 30
0.0
  0
POINT
  5
12C
330
1B
100
AcDbEntity
 67
     1
  8
0
  6
Continuous
 62
     7
370
     0
100
AcDbPoint
 10
339.2133615723
 20
205.5343469327
 30
0.0
  0
POINT
  5
12D
330
1B
100
AcDbEntity
 67
     1
  8
0
  6
Continuous
 62
     7
370
     0
100
AcDbPoint
 10
296.3997627893
 20
102.8240081225
 30
0.0
  0
POINT
  5
12E
330
1B
100
AcDbEntity
 67
     1
  8
0
  6
Continuous
 62
     7
370
     0
100
AcDbPoint
 10
296.3997627893
 20
106.8240081225
 30
0.0
  0
POINT
  5
12F
330
1B
100
AcDbEntity
 67
     1
  8
0
  6
Continuous
 62
     7
370
     0
100
AcDbPoint
 10
296.3997627893
 20
110.8240081225
 30
0.0
  0
POINT
  5
130
330
1B
100
AcDbEntity
 67
     1
  8
0
  6
Continuous
 62
     7
370
     0
100
AcDbPoint
 10
296.3997627893
 20
114.8240081225
 30
0.0
  0
POINT
  5
131
330
1B
100
AcDbEntity
 67
     1
  8
0
  6
Continuous
 62
     7
370
     0
100
AcDbPoint
 10
296.3997627893
 20
133.8240081225
 30
0.0
  0
POINT
  5
132
330
1B
100
AcDbEntity
 67
     1
  8
0
  6
Continuous
 62
     7
370
     0
100
AcDbPoint
 10
296.3997627893
 20
137.8240081225
 30
0.0
  0
POINT
  5
133
330
1B
100
AcDbEntity
 67
     1
  8
0
  6
Continuous
 62
     7
370
     0
100
AcDbPoint
 10
296.3997627893
 20
141.8240081225
 30
0.0
  0
POINT
  5
134
330
1B
100
AcDbEntity
 67
     1
  8
0
  6
Continuous
 62
     7
370
     0
100
AcDbPoint
 10
296.3997627893
 20
145.8240081225
 30
0.0
  0
POINT
  5
135
330
1B
100
AcDbEntity
 67
     1
  8
0
  6
Continuous
 62
     7
370
     0
100
AcDbPoint
 10
296.3997627893
 20
149.8240081225
 30
0.0
  0
POINT
  5
136
330
1B
100
AcDbEntity
 67
     1
  8
0
  6
Continuous
 62
     7
370
     0
100
AcDbPoint
 10
296.3997627893
 20
168.8240081225
 30
0.0
  0
POINT
  5
137
330
1B
100
AcDbEntity
 67
     1
  8
0
  6
Continuous
 62
     7
370
     0
100
AcDbPoint
 10
296.3997627893
 20
172.8240081225
 30
0.0
  0
POINT
  5
138
330
1B
100
AcDbEntity
 67
     1
  8
0
  6
Continuous
 62
     7
370
     0
100
AcDbPoint
 10
296.3997627893
 20
176.8240081225
 30
0.0
  0
POINT
  5
139
330
1B
100
AcDbEntity
 67
     1
  8
0
  6
Continuous
 62
     7
370
     0
100
AcDbPoint
 10
296.3997627893
 20
180.8240081225
 30
0.0
  0
POINT
  5
13A
330
1B
100
AcDbEntity
 67
     1
  8
0
  6
Continuous
 62
     7
370
     0
100
AcDbPoint
 10
296.3997627893
 20
184.8240081225
 30
0.0
  0
POINT
  5
13B
330
1B
100
AcDbEntity
 67
     1
  8
0
  6
Continuous
 62
     7
370
     0
100
AcDbPoint
 10
296.3997627893
 20
203.8240081225
 30
0.0
  0
POINT
  5
13C
330
1B
100
AcDbEntity
 67
     1
  8
0
  6
Continuous
 62
     7
370
     0
100
AcDbPoint
 10
296.3997627893
 20
207.8240081225
 30
0.0
  0
POINT
  5
13D
330
1B
100
AcDbEntity
 67
     1
  8
0
  6
Continuous
 62
     7
370
     0
100
AcDbPoint
 10
296.3997627893
 20
211.8240081225
 30
0.0
  0
POINT
  5
13E
330
1B
100
AcDbEntity
 67
     1
  8
0
  6
Continuous
 62
     7
370
     0
100
AcDbPoint
 10
296.3997627893
 20
215.8240081225
 30
0.0
  0
POINT
  5
13F
330
1B
100
AcDbEntity
 67
     1
  8
0
  6
Continuous
 62
     7
370
     0
100
AcDbPoint
 10
296.3997627893
 20
219.8240081225
 30
0.0
  0
DIMENSION
  5
140
330
1B
100
AcDbEntity
 67
     1
  8
0
  6
Continuous
 62
     7
370
    18
100
AcDbDimension
  2
_D
 10
271.7133615723
 20
226.6400544854
 30
0.0
 11
234.2758706166
 21
226.6400544854
 31
0.0
 70
   160
  1
<>
 71
     2
 42
-1.0
  3
SLDDIMSTYLE0
100
AcDbAlignedDimension
 13
194.7133615723
 23
222.0343469327
 33
0.0
 14
271.7133615723
 24
222.0343469327
 34
0.0
 50
0.0
100
AcDbRotatedDimension
  0
DIMENSION
  5
14D
330
1B
100
AcDbEntity
 67
     1
  8
0
  6
Continuous
 62
     7
370
    18
100
AcDbDimension
  2
_D_1
 10
178.5994123091
 20
179.0343469327
 30
0.0
 11
178.5994123091
 21
190.862173152
 31
0.0
 70
   160
  1
<>
 71
     2
 42
-1.0
  3
SLDDIMSTYLE0
100
AcDbAlignedDimension
 13
194.7133615723
 23
222.0343469327
 33
0.0
 14
194.7133615723
 24
179.0343469327
 34
0.0
 50
90.0
100
AcDbRotatedDimension
  0
DIMENSION
  5
158
330
1B
100
AcDbEntity
 67
     1
  8
0
  6
Continuous
 62
     7
370
    18
100
AcDbDimension
  2
_D_2
 10
190.6749970834
 20
228.8685739398
 30
0.0
 11
224.3744114966
 21
217.5620996418
 31
0.0
 70
   163
  1
<>
 71
     1
 42
-1.0
  3
SLDDIMSTYLE1
100
AcDbDiametricDimension
 15
193.7517260612
 25
227.2001199257
 35
0.0
 40
0.0
  0
DIMENSION
  5
162
330
1B
100
AcDbEntity
 67
     1
  8
0
  6
Continuous
 62
     7
370
    18
100
AcDbDimension
  2
_D_3
 10
245.7133615723
 20
94.8507594722
 30
0.0
 11
232.5627482594
 21
94.8507594722
 31
0.0
 70
   160
  1
<>
 71
     2
 42
-1.0
  3
SLDDIMSTYLE2
100
AcDbAlignedDimension
 13
220.7133615723
 23
88.5343469327
 33
0.0
 14
245.7133615723
 24
88.5343469327
 34
0.0
100
AcDbRotatedDimension
  0
DIMENSION
  5
16E
330
1B
100
AcDbEntity
 67
     1
  8
0
  6
Continuous
 62
     7
370
    18
100
AcDbDimension
  2
_D_4
 10
251.4744655461
 20
88.5343469327
 30
0.0
 11
251.4744655461
 21
87.6036804936
 31
0.0
 70
   160
  1
<>
 71
     2
 42
-1.0
  3
SLDDIMSTYLE2
100
AcDbAlignedDimension
 13
245.7133615723
 23
86.5343469327
 33
0.0
 14
245.7133615723
 24
88.5343469327
 34
0.0
 50
90.0
100
AcDbRotatedDimension
  0
DIMENSION
  5
179
330
1B
100
AcDbEntity
 67
     1
  8
0
  6
Continuous
 62
     7
370
    18
100
AcDbDimension
  2
_D_5
 10
364.2133615723
 20
255.6520741309
 30
0.0
 11
298.6866440151
 21
255.6520741309
 31
0.0
 70
   160
  1
<>
 71
     2
 42
-1.0
  3
SLDDIMSTYLE0
100
AcDbAlignedDimension
 13
132.2133615723
 23
240.5343469327
 33
0.0
 14
364.2133615723
 24
240.5343469327
 34
0.0
100
AcDbRotatedDimension
  0
DIMENSION
  5
184
330
1B
100
AcDbEntity
 67
     1
  8
0
  6
Continuous
 62
     7
370
    18
100
AcDbDimension
  2
_D_6
 10
179.755511795
 20
75.8194125671
 30
0.0
 11
181.0329915593
 21
78.0320724246
 31
0.0
 70
   160
  1
<>
 71
     2
 42
-1.0
  3
SLDDIMSTYLE2
100
AcDbAlignedDimension
 13
181.7133615723
 23
73.5343469327
 33
0.0
 14
182.2133615723
 24
74.4003723365
 34
0.0
 50
60.0
100
AcDbRotatedDimension
  0
DIMENSION
  5
190
330
1B
100
AcDbEntity
 67
     1
  8
0
  6
Continuous
 62
     7
370
    18
100
AcDbDimension
  2
_D_7
 10
188.0197211333
 20
76.5979750536
 30
0.0
 11
188.8671125423
 21
75.1302500793
 31
0.0
 70
   160
  1
<>
 71
     2
 42
-1.0
  3
SLDDIMSTYLE2
100
AcDbAlignedDimension
 13
182.2133615723
 23
74.4003723365
 33
0.0
 14
182.7133615723
 24
73.5343469327
 34
0.0
 50
-60.0
100
AcDbRotatedDimension
  0
DIMENSION
  5
19C
330
1B
100
AcDbEntity
 67
     1
  8
0
  6
Continuous
 62
     7
370
    18
100
AcDbDimension
  2
_D_8
 10
182.7133615723
 20
71.3396773483
 30
0.0
 11
190.9051177615
 21
71.3396773483
 31
0.0
 70
   160
  1
<>
 71
     2
 42
-1.0
  3
SLDDIMSTYLE2
100
AcDbAlignedDimension
 13
181.7133615723
 23
73.5343469327
 33
0.0
 14
182.7133615723
 24
73.5343469327
 34
0.0
100
AcDbRotatedDimension
  0
DIMENSION
  5
1A7
330
1B
100
AcDbEntity
 67
     1
  8
0
  6
Continuous
 62
     7
370
    18
100
AcDbDimension
  2
_D_9
 10
309.0658894146
 20
77.3722667724
 30
0.0
 11
308.4540377324
 21
76.3125085721
 31
0.0
 70
   160
  1
<>
 71
     2
 42
-1.0
  3
SLDDIMSTYLE2
100
AcDbAlignedDimension
 13
313.7133615723
 23
73.5343469327
 33
0.0
 14
314.2133615723
 24
74.4003723365
 34
0.0
 50
60.0
100
AcDbRotatedDimension
  0
DIMENSION
  5
1B3
330
1B
100
AcDbEntity
 67
     1
  8
0
  6
Continuous
 62
     7
370
    18
100
AcDbDimension
  2
_D_10
 10
314.7133615723
 20
70.4389833792
 30
0.0
 11
320.6308945333
 21
70.4389833792
 31
0.0
 70
   160
  1
<>
 71
     2
 42
-1.0
  3
SLDDIMSTYLE2
100
AcDbAlignedDimension
 13
313.7133615723
 23
73.5343469327
 33
0.0
 14
314.7133615723
 24
73.5343469327
 34
0.0
100
AcDbRotatedDimension
  0
DIMENSION
  5
1BE
330
1B
100
AcDbEntity
 67
     1
  8
0
  6
Continuous
 62
     7
370
    18
100
AcDbDimension
  2
_D_11
 10
313.7133615723
 20
248.2209523594
 30
0.0
 11
282.1067610392
 21
248.2209523594
 31
0.0
 70
   160
  1
<>
 71
     2
 42
-1.0
  3
SLDDIMSTYLE2
100
AcDbAlignedDimension
 13
314.7133615723
 23
240.5343469327
 33
0.0
 14
313.7133615723
 24
240.5343469327
 34
0.0
100
AcDbRotatedDimension
  0
DIMENSION
  5
1C9
330
1B
100
AcDbEntity
 67
     1
  8
0
  6
Continuous
 62
     7
370
    18
100
AcDbDimension
  2
_D_12
 10
304.3388221196
 20
246.5240900784
 30
0.0
 11
303.4214675127
 21
244.9351852906
 31
0.0
 70
   160
  1
<>
 71
     2
 42
-1.0
  3
SLDDIMSTYLE2
100
AcDbAlignedDimension
 13
314.2133615723
 23
239.6683215289
 33
0.0
 14
314.7133615723
 24
240.5343469327
 34
0.0
 50
60.0
100
AcDbRotatedDimension
  0
DIMENSION
  5
1D5
330
1B
100
AcDbEntity
 67
     1
  8
0
  6
Continuous
 62
     7
370
    18
100
AcDbDimension
  2
_D_13
 10
309.7171611369
 20
237.0724389972
 30
0.0
 11
313.4757593613
 21
230.5623559072
 31
0.0
 70
   160
  1
<>
 71
     2
 42
-1.0
  3
SLDDIMSTYLE2
100
AcDbAlignedDimension
 13
313.7133615723
 23
240.5343469327
 33
0.0
 14
314.2133615723
 24
239.6683215289
 34
0.0
 50
-60.0
100
AcDbRotatedDimension
  0
DIMENSION
  5
1E1
330
1B
100
AcDbEntity
 67
     1
  8
0
  6
Continuous
 62
     7
370
    18
100
AcDbDimension
  2
_D_14
 10
182.7069169063
 20
243.5030931254
 30
0.0
 11
172.3227064585
 21
243.5030931254
 31
0.0
 70
   160
  1
<>
 71
     2
 42
-1.0
  3
SLDDIMSTYLE2
100
AcDbAlignedDimension
 13
181.7069169063
 23
240.5343469327
 33
0.0
 14
182.7069169063
 24
240.5343469327
 34
0.0
100
AcDbRotatedDimension
  0
DIMENSION
  5
1EC
330
1B
100
AcDbEntity
 67
     1
  8
0
  6
Continuous
 62
     7
370
    18
100
AcDbDimension
  2
_D_15
 10
323.3737628802
 20
195.0411532686
 30
0.0
 11
397.9543610103
 21
235.1587702804
 31
0.0
 70
   163
  1
<>
 71
     1
 42
-1.0
  3
SLDDIMSTYLE1
100
AcDbDiametricDimension
 15
355.0529602644
 25
216.0275405969
 35
0.0
 40
0.0
  0
DIMENSION
  5
1F5
330
1B
100
AcDbEntity
 67
     1
  8
0
  6
Continuous
 62
     7
370
    18
100
AcDbDimension
  2
_D_16
 10
377.1945346596
 20
240.5343469327
 30
0.0
 11
377.1945346596
 21
222.1067352576
 31
0.0
 70
   160
  1
<>
 71
     2
 42
-1.0
  3
SLDDIMSTYLE0
100
AcDbAlignedDimension
 13
339.2133615723
 23
205.5343469327
 33
0.0
 14
364.2133615723
 24
240.5343469327
 34
0.0
 50
90.0
100
AcDbRotatedDimension
  0
DIMENSION
  5
200
330
1B
100
AcDbEntity
 67
     1
  8
0
  6
Continuous
 62
     7
370
    18
100
AcDbDimension
  2
_D_17
 10
364.2133615723
 20
260.1823840411
 30
0.0
 11
380.986763543
 21
260.1823840411
 31
0.0
 70
   160
  1
<>
 71
     2
 42
-1.0
  3
SLDDIMSTYLE0
100
AcDbAlignedDimension
 13
339.2133615723
 23
205.5343469327
 33
0.0
 14
364.2133615723
 24
240.5343469327
 34
0.0
100
AcDbRotatedDimension
  0
DIMENSION
  5
20B
330
1B
100
AcDbEntity
 67
     1
  8
0
  6
Continuous
 62
     7
370
    18
100
AcDbDimension
  2
_D_18
 10
339.2133615723
 20
205.5343469327
 30
0.0
 11
361.387868237
 21
235.1587702804
 31
0.0
 70
   162
  1
<>
 71
     1
 42
-1.0
  3
SLDDIMSTYLE3
100
AcDb2LineAngularDimension
 13
364.2133615723
 23
240.5343469327
 33
0.0
 14
314.7133615723
 24
240.5343469327
 34
0.0
 15
355.2116524967
 25
221.532637857
 35
0.0
 16
360.6522671101
 26
243.6144152153
 36
0.0
  0
DIMENSION
  5
216
330
1B
100
AcDbEntity
 67
     1
  8
0
  6
Continuous
 62
     7
370
    18
100
AcDbDimension
  2
_D_19
 10
353.4545681442
 20
222.4879674223
 30
0.0
 11
388.8494222646
 21
210.230076612
 31
0.0
 70
   163
  1
<>
 71
     1
 42
-1.0
  3
SLDDIMSTYLE1
100
AcDbDiametricDimension
 15
356.9687368492
 25
220.5773082918
 35
0.0
 40
0.0
  0
DIMENSION
  5
21F
330
1B
100
AcDbEntity
 67
     1
  8
0
  6
Continuous
 62
     7
370
    18
100
AcDbDimension
  2
_D_20
 10
339.2133615723
 20
189.5360560084
 30
0.0
 11
339.2133615723
 21
205.5343469327
 31
0.0
 70
   160
  1
<>
 71
     1
 42
-1.0
  3
SLDDIMSTYLE4
100
AcDbAlignedDimension
 13
355.2116524967
 23
221.532637857
 33
0.0
 14
355.2116524967
 24
189.5360560084
 34
0.0
 50
90.0
100
AcDbRotatedDimension
  0
DIMENSION
  5
228
330
1B
100
AcDbEntity
 67
     1
  8
0
  6
Continuous
 62
     7
370
    18
100
AcDbDimension
  2
_D_21
 10
307.8997627893
 20
92.818467754
 30
0.0
 11
331.086478278
 21
92.818467754
 31
0.0
 70
   160
  1
<>
 71
     2
 42
-1.0
  3
SLDDIMSTYLE0
100
AcDbAlignedDimension
 13
284.8997627893
 23
99.8240081225
 33
0.0
 14
307.8997627893
 24
99.8240081225
 34
0.0
 50
0.0
100
AcDbRotatedDimension
  0
DIMENSION
  5
233
330
1B
100
AcDbEntity
 67
     1
  8
0
  6
Continuous
 62
     7
370
    18
100
AcDbDimension
  2
_D_22
 10
343.5854233772
 20
99.8240081225
 30
0.0
 11
343.5854233772
 21
103.7516949849
 31
0.0
 70
   160
  1
<>
 71
     2
 42
-1.0
  3
SLDDIMSTYLE2
100
AcDbAlignedDimension
 13
307.8997627893
 23
97.8240081225
 33
0.0
 14
307.8997627893
 24
99.8240081225
 34
0.0
 50
90.0
100
AcDbRotatedDimension
  0
DIMENSION
  5
23F
330
1B
100
AcDbEntity
 67
     1
  8
0
  6
Continuous
 62
     7
370
    18
100
AcDbDimension
  2
_D_23
 10
296.3997627893
 20
102.8240081225
 30
0.0
 11
296.3997627893
 21
100.8240081225
 31
0.0
 70
   160
  1
<>
 71
     1
 42
-1.0
  3
SLDDIMSTYLE4
100
AcDbAlignedDimension
 13
296.3997627893
 23
98.8240081225
 33
0.0
 14
296.3997627893
 24
102.8240081225
 34
0.0
 50
90.0
100
AcDbRotatedDimension
  0
DIMENSION
  5
244
330
1B
100
AcDbEntity
 67
     1
  8
0
  6
Continuous
 62
     7
370
    18
100
AcDbDimension
  2
_D_24
 10
296.3997627893
 20
149.8240081225
 30
0.0
 11
296.3997627893
 21
132.3240081225
 31
0.0
 70
   160
  1
<>
 71
     1
 42
-1.0
  3
SLDDIMSTYLE4
100
AcDbAlignedDimension
 13
296.3997627893
 23
114.8240081225
 33
0.0
 14
296.3997627893
 24
149.8240081225
 34
0.0
 50
90.0
100
AcDbRotatedDimension
  0
DIMENSION
  5
249
330
1B
100
AcDbEntity
 67
     1
  8
0
  6
Continuous
 62
     7
370
    18
100
AcDbDimension
  2
_D_25
 10
132.2133615723
 20
267.1781814783
 30
0.0
 11
145.227287044
 21
267.1781814783
 31
0.0
 70
   160
  1
<>
 71
     2
 42
-1.0
  3
SLDDIMSTYLE2
100
AcDbAlignedDimension
 13
157.2133615723
 23
235.5343469327
 33
0.0
 14
132.2133615723
 24
240.5343469327
 34
0.0
100
AcDbRotatedDimension
  0
DIMENSION
  5
254
330
1B
100
AcDbEntity
 67
     1
  8
0
  6
Continuous
 62
     7
370
    18
100
AcDbDimension
  2
_D_26
 10
91.1497153435
 20
240.5343469327
 30
0.0
 11
91.1497153435
 21
245.7703218584
 31
0.0
 70
   160
  1
<>
 71
     2
 42
-1.0
  3
SLDDIMSTYLE2
100
AcDbAlignedDimension
 13
157.2133615723
 23
235.5343469327
 33
0.0
 14
132.2133615723
 24
240.5343469327
 34
0.0
 50
90.0
100
AcDbRotatedDimension
  0
DIMENSION
  5
260
330
1B
100
AcDbEntity
 67
     1
  8
0
  6
Continuous
 62
     7
370
    18
100
AcDbDimension
  2
_D_27
 10
156.7501509144
 20
237.4799665991
 30
0.0
 11
147.7465353779
 21
221.3257131716
 31
0.0
 70
   163
  1
<>
 71
     1
 42
-1.0
  3
SLDDIMSTYLE1
100
AcDbDiametricDimension
 15
157.6765722302
 25
233.5887272663
 35
0.0
 40
0.0
  0
DIMENSION
  5
269
330
1B
100
AcDbEntity
 67
     1
  8
0
  6
Continuous
 62
     7
370
    18
100
AcDbDimension
  2
_D_28
 10
89.5870076413
 20
240.5343469327
 30
0.0
 11
89.5870076413
 21
192.7890882493
 31
0.0
 70
   160
  1
<>
 71
     2
 42
-1.0
  3
SLDDIMSTYLE0
100
AcDbAlignedDimension
 13
137.2133615723
 23
157.0343469327
 33
0.0
 14
132.2133615723
 24
240.5343469327
 34
0.0
 50
90.0
100
AcDbRotatedDimension
  0
DIMENSION
  5
274
330
1B
100
AcDbEntity
 67
     1
  8
0
  6
Continuous
 62
     7
370
    18
100
AcDbDimension
  2
_D_29
 10
132.2133615723
 20
168.5973211549
 30
0.0
 11
120.6185704643
 21
168.5973211549
 31
0.0
 70
   160
  1
<>
 71
     2
 42
-1.0
  3
SLDDIMSTYLE2
100
AcDbAlignedDimension
 13
137.2133615723
 23
157.0343469327
 33
0.0
 14
132.2133615723
 24
240.5343469327
 34
0.0
100
AcDbRotatedDimension
  0
DIMENSION
  5
27E
330
1B
100
AcDbEntity
 67
     1
  8
0
  6
Continuous
 62
     7
370
    18
100
AcDbDimension
  2
_D_30
 10
114.4305451427
 20
73.5343469327
 30
0.0
 11
114.4305451427
 21
75.7832096786
 31
0.0
 70
   160
  1
<>
 71
     2
 42
-1.0
  3
SLDDIMSTYLE2
100
AcDbAlignedDimension
 13
157.2133615723
 23
78.5343469327
 33
0.0
 14
132.2133615723
 24
73.5343469327
 34
0.0
 50
90.0
100
AcDbRotatedDimension
  0
DIMENSION
  5
289
330
1B
100
AcDbEntity
 67
     1
  8
0
  6
Continuous
 62
     7
370
    18
100
AcDbDimension
  2
_D_31
 10
364.2133615723
 20
170.7586146358
 30
0.0
 11
380.986763543
 21
170.7586146358
 31
0.0
 70
   160
  1
<>
 71
     2
 42
-1.0
  3
SLDDIMSTYLE2
100
AcDbAlignedDimension
 13
359.2133615723
 23
157.0343469327
 33
0.0
 14
364.2133615723
 24
240.5343469327
 34
0.0
100
AcDbRotatedDimension
  0
MTEXT
  5
293
330
1B
100
AcDbEntity
 67
     1
  8
0
  6
Continuous
 62
     7
370
     0
100
AcDbMText
 10
4.7565833417
 20
24.2256904019
 30
0.0
 40
6.096
 41
0.0
 71
     2
 72
     1
  1
A
  7
SLDTEXTSTYLE0
 73
     1
 44
1.0
  0
MTEXT
  5
294
330
1B
100
AcDbEntity
 67
     1
  8
0
  6
Continuous
 62
     7
370
     0
100
AcDbMText
 10
414.7565833417
 20
24.2256904019
 30
0.0
 40
6.096
 41
0.0
 71
     2
 72
     1
  1
A
  7
SLDTEXTSTYLE0
 73
     1
 44
1.0
  0
MTEXT
  5
295
330
1B
100
AcDbEntity
 67
     1
  8
0
  6
Continuous
 62
     7
370
     0
100
AcDbMText
 10
4.9534332283
 20
73.4756904019
 30
0.0
 40
6.096
 41
0.0
 71
     2
 72
     1
  1
B
  7
SLDTEXTSTYLE0
 73
     1
 44
1.0
  0
MTEXT
  5
296
330
1B
100
AcDbEntity
 67
     1
  8
0
  6
Continuous
 62
     7
370
     0
100
AcDbMText
 10
414.9534332283
 20
73.4756904019
 30
0.0
 40
6.096
 41
0.0
 71
     2
 72
     1
  1
B
  7
SLDTEXTSTYLE0
 73
     1
 44
1.0
  0
MTEXT
  5
297
330
1B
100
AcDbEntity
 67
     1
  8
0
  6
Continuous
 62
     7
370
     0
100
AcDbMText
 10
4.9365000027
 20
123.4756904019
 30
0.0
 40
6.096
 41
0.0
 71
     2
 72
     1
  1
C
  7
SLDTEXTSTYLE0
 73
     1
 44
1.0
  0
MTEXT
  5
298
330
1B
100
AcDbEntity
 67
     1
  8
0
  6
Continuous
 62
     7
370
     0
100
AcDbMText
 10
414.9365000027
 20
123.4756904019
 30
0.0
 40
6.096
 41
0.0
 71
     2
 72
     1
  1
C
  7
SLDTEXTSTYLE0
 73
     1
 44
1.0
  0
MTEXT
  5
299
330
1B
100
AcDbEntity
 67
     1
  8
0
  6
Continuous
 62
     7
370
     0
100
AcDbMText
 10
4.9301500347
 20
173.4756904019
 30
0.0
 40
6.096
 41
0.0
 71
     2
 72
     1
  1
D
  7
SLDTEXTSTYLE0
 73
     1
 44
1.0
  0
MTEXT
  5
29A
330
1B
100
AcDbEntity
 67
     1
  8
0
  6
Continuous
 62
     7
370
     0
100
AcDbMText
 10
414.9301500347
 20
173.4756904019
 30
0.0
 40
6.096
 41
0.0
 71
     2
 72
     1
  1
D
  7
SLDTEXTSTYLE0
 73
     1
 44
1.0
  0
MTEXT
  5
29B
330
1B
100
AcDbEntity
 67
     1
  8
0
  6
Continuous
 62
     7
370
     0
100
AcDbMText
 10
5.0105832246
 20
223.4756904019
 30
0.0
 40
6.096
 41
0.0
 71
     2
 72
     1
  1
E
  7
SLDTEXTSTYLE0
 73
     1
 44
1.0
  0
MTEXT
  5
29C
330
1B
100
AcDbEntity
 67
     1
  8
0
  6
Continuous
 62
     7
370
     0
100
AcDbMText
 10
415.0105832246
 20
223.4756904019
 30
0.0
 40
6.096
 41
0.0
 71
     2
 72
     1
  1
E
  7
SLDTEXTSTYLE0
 73
     1
 44
1.0
  0
MTEXT
  5
29D
330
1B
100
AcDbEntity
 67
     1
  8
0
  6
Continuous
 62
     7
370
     0
100
AcDbMText
 10
4.9365000284
 20
272.7256904019
 30
0.0
 40
6.096
 41
0.0
 71
     2
 72
     1
  1
F
  7
SLDTEXTSTYLE0
 73
     1
 44
1.0
  0
MTEXT
  5
29E
330
1B
100
AcDbEntity
 67
     1
  8
0
  6
Continuous
 62
     7
370
     0
100
AcDbMText
 10
414.9365000284
 20
272.7256904019
 30
0.0
 40
6.096
 41
0.0
 71
     2
 72
     1
  1
F
  7
SLDTEXTSTYLE0
 73
     1
 44
1.0
  0
MTEXT
  5
29F
330
1B
100
AcDbEntity
 67
     1
  8
0
  6
Continuous
 62
     7
370
     0
100
AcDbMText
 10
29.9386166697
 20
8.1136904019
 30
0.0
 40
6.096
 41
0.0
 71
     2
 72
     1
  1
8
  7
SLDTEXTSTYLE0
 73
     1
 44
1.0
  0
MTEXT
  5
2A0
330
1B
100
AcDbEntity
 67
     1
  8
0
  6
Continuous
 62
     7
370
     0
100
AcDbMText
 10
29.9386166697
 20
295.1136904019
 30
0.0
 40
6.096
 41
0.0
 71
     2
 72
     1
  1
8
  7
SLDTEXTSTYLE0
 73
     1
 44
1.0
  0
MTEXT
  5
2A1
330
1B
100
AcDbEntity
 67
     1
  8
0
  6
Continuous
 62
     7
370
     0
100
AcDbMText
 10
84.9386166697
 20
8.1136904019
 30
0.0
 40
6.096
 41
0.0
 71
     2
 72
     1
  1
7
  7
SLDTEXTSTYLE0
 73
     1
 44
1.0
  0
MTEXT
  5
2A2
330
1B
100
AcDbEntity
 67
     1
  8
0
  6
Continuous
 62
     7
370
     0
100
AcDbMText
 10
84.9386166697
 20
295.1136904019
 30
0.0
 40
6.096
 41
0.0
 71
     2
 72
     1
  1
7
  7
SLDTEXTSTYLE0
 73
     1
 44
1.0
  0
MTEXT
  5
2A3
330
1B
100
AcDbEntity
 67
     1
  8
0
  6
Continuous
 62
     7
370
     0
100
AcDbMText
 10
134.9386166697
 20
8.1136904019
 30
0.0
 40
6.096
 41
0.0
 71
     2
 72
     1
  1
6
  7
SLDTEXTSTYLE0
 73
     1
 44
1.0
  0
MTEXT
  5
2A4
330
1B
100
AcDbEntity
 67
     1
  8
0
  6
Continuous
 62
     7
370
     0
100
AcDbMText
 10
134.9386166697
 20
295.1136904019
 30
0.0
 40
6.096
 41
0.0
 71
     2
 72
     1
  1
6
  7
SLDTEXTSTYLE0
 73
     1
 44
1.0
  0
MTEXT
  5
2A5
330
1B
100
AcDbEntity
 67
     1
  8
0
  6
Continuous
 62
     7
370
     0
100
AcDbMText
 10
184.9386166697
 20
8.1136904019
 30
0.0
 40
6.096
 41
0.0
 71
     2
 72
     1
  1
5
  7
SLDTEXTSTYLE0
 73
     1
 44
1.0
  0
MTEXT
  5
2A6
330
1B
100
AcDbEntity
 67
     1
  8
0
  6
Continuous
 62
     7
370
     0
100
AcDbMText
 10
184.9386166697
 20
295.1136904019
 30
0.0
 40
6.096
 41
0.0
 71
     2
 72
     1
  1
5
  7
SLDTEXTSTYLE0
 73
     1
 44
1.0
  0
MTEXT
  5
2A7
330
1B
100
AcDbEntity
 67
     1
  8
0
  6
Continuous
 62
     7
370
     0
100
AcDbMText
 10
234.9386166697
 20
8.1136904019
 30
0.0
 40
6.096
 41
0.0
 71
     2
 72
     1
  1
4
  7
SLDTEXTSTYLE0
 73
     1
 44
1.0
  0
MTEXT
  5
2A8
330
1B
100
AcDbEntity
 67
     1
  8
0
  6
Continuous
 62
     7
370
     0
100
AcDbMText
 10
234.9386166697
 20
295.1136904019
 30
0.0
 40
6.096
 41
0.0
 71
     2
 72
     1
  1
4
  7
SLDTEXTSTYLE0
 73
     1
 44
1.0
  0
MTEXT
  5
2A9
330
1B
100
AcDbEntity
 67
     1
  8
0
  6
Continuous
 62
     7
370
     0
100
AcDbMText
 10
284.9386166697
 20
8.1136904019
 30
0.0
 40
6.096
 41
0.0
 71
     2
 72
     1
  1
3
  7
SLDTEXTSTYLE0
 73
     1
 44
1.0
  0
MTEXT
  5
2AA
330
1B
100
AcDbEntity
 67
     1
  8
0
  6
Continuous
 62
     7
370
     0
100
AcDbMText
 10
284.9386166697
 20
295.1136904019
 30
0.0
 40
6.096
 41
0.0
 71
     2
 72
     1
  1
3
  7
SLDTEXTSTYLE0
 73
     1
 44
1.0
  0
MTEXT
  5
2AB
330
1B
100
AcDbEntity
 67
     1
  8
0
  6
Continuous
 62
     7
370
     0
100
AcDbMText
 10
334.9386166697
 20
8.1136904019
 30
0.0
 40
6.096
 41
0.0
 71
     2
 72
     1
  1
2
  7
SLDTEXTSTYLE0
 73
     1
 44
1.0
  0
MTEXT
  5
2AC
330
1B
100
AcDbEntity
 67
     1
  8
0
  6
Continuous
 62
     7
370
     0
100
AcDbMText
 10
334.9386166697
 20
295.1136904019
 30
0.0
 40
6.096
 41
0.0
 71
     2
 72
     1
  1
2
  7
SLDTEXTSTYLE0
 73
     1
 44
1.0
  0
MTEXT
  5
2AD
330
1B
100
AcDbEntity
 67
     1
  8
0
  6
Continuous
 62
     7
370
     0
100
AcDbMText
 10
389.9386166697
 20
8.1136904019
 30
0.0
 40
6.096
 41
0.0
 71
     2
 72
     1
  1
1
  7
SLDTEXTSTYLE0
 73
     1
 44
1.0
  0
MTEXT
  5
2AE
330
1B
100
AcDbEntity
 67
     1
  8
0
  6
Continuous
 62
     7
370
     0
100
AcDbMText
 10
389.9386166697
 20
295.1136904019
 30
0.0
 40
6.096
 41
0.0
 71
     2
 72
     1
  1
1
  7
SLDTEXTSTYLE0
 73
     1
 44
1.0
  0
MTEXT
  5
2B0
330
1B
100
AcDbEntity
 67
     1
  8
0
  6
Continuous
 62
     7
370
     0
100
AcDbMText
 10
230.6433628979
 20
42.3847813173
 30
0.0
 40
1.5
 41
0.0
 71
     1
 72
     1
  1
DRAWN
  7
SLDTEXTSTYLE1
 73
     1
 44
1.0
  0
MTEXT
  5
2B1
330
1B
100
AcDbEntity
 67
     1
  8
0
  6
Continuous
 62
     7
370
     0
100
AcDbMText
 10
230.9392221937
 20
38.1618530186
 30
0.0
 40
1.5
 41
0.0
 71
     1
 72
     1
  1
CHK'D
  7
SLDTEXTSTYLE0
 73
     1
 44
1.0
  0
MTEXT
  5
2B2
330
1B
100
AcDbEntity
 67
     1
  8
0
  6
Continuous
 62
     7
370
     0
100
AcDbMText
 10
230.4017224083
 20
34.0658666243
 30
0.0
 40
1.5
 41
0.0
 71
     1
 72
     1
  1
APPV'D
  7
SLDTEXTSTYLE0
 73
     1
 44
1.0
  0
MTEXT
  5
2B3
330
1B
100
AcDbEntity
 67
     1
  8
0
  6
Continuous
 62
     7
370
     0
100
AcDbMText
 10
231.1240107386
 20
29.7157844608
 30
0.0
 40
1.5
 41
0.0
 71
     1
 72
     1
  1
MFG
  7
SLDTEXTSTYLE0
 73
     1
 44
1.0
  0
MTEXT
  5
2B4
330
1B
100
AcDbEntity
 67
     1
  8
0
  6
Continuous
 62
     7
370
     0
100
AcDbMText
 10
231.509036604
 20
25.504662132
 30
0.0
 40
1.5
 41
0.0
 71
     1
 72
     1
  1
Q.A
  7
SLDTEXTSTYLE0
 73
     1
 44
1.0
  0
INSERT
  5
2BE
330
1B
100
AcDbEntity
 67
     1
  8
0
  6
Continuous
 62
     7
370
     0
100
AcDbBlockReference
  2
SW_NOTE_0
 10
230.5936687456
 20
61.9873698743
 30
0.0
  0
MTEXT
  5
2BF
330
1B
100
AcDbEntity
 67
     1
  8
0
  6
Continuous
 62
     7
370
     0
100
AcDbMText
 10
264.3712921668
 20
63.9192719951
 30
0.0
 40
1.5
 41
0.0
 71
     1
 72
     1
  1
FINISH:
  7
SLDTEXTSTYLE0
 73
     1
 44
1.0
  0
INSERT
  5
2C6
330
1B
100
AcDbEntity
 67
     1
  8
0
  6
Continuous
 62
     7
370
     0
100
AcDbBlockReference
  2
SW_NOTE_1
 10
311.3092156863
 20
62.069489643
 30
0.0
  0
MTEXT
  5
2C7
330
1B
100
AcDbEntity
 67
     1
  8
0
  6
Continuous
 62
     7
370
     0
100
AcDbMText
 10
244.3222392177
 20
46.5014826335
 30
0.0
 40
1.5
 41
0.0
 71
     1
 72
     1
  1
NAME
  7
SLDTEXTSTYLE0
 73
     1
 44
1.0
  0
MTEXT
  5
2C8
330
1B
100
AcDbEntity
 67
     1
  8
0
  6
Continuous
 62
     7
370
     0
100
AcDbMText
 10
260.0335875632
 20
46.5617563795
 30
0.0
 40
1.5
 41
0.0
 71
     1
 72
     1
  1
SIGNATURE
  7
SLDTEXTSTYLE0
 73
     1
 44
1.0
  0
MTEXT
  5
2C9
330
1B
100
AcDbEntity
 67
     1
  8
0
  6
Continuous
 62
     7
370
     0
100
AcDbMText
 10
277.2147019657
 20
46.5761792212
 30
0.0
 40
1.5
 41
0.0
 71
     1
 72
     1
  1
DATE
  7
SLDTEXTSTYLE0
 73
     1
 44
1.0
  0
MTEXT
  5
2CA
330
1B
100
AcDbEntity
 67
     1
  8
0
  6
Continuous
 62
     7
370
     0
100
AcDbMText
 10
285.6458623088
 20
25.9860562892
 30
0.0
 40
1.5
 41
0.0
 71
     1
 72
     1
  1
MATERIAL:
  7
SLDTEXTSTYLE0
 73
     1
 44
1.0
  0
MTEXT
  5
2CB
330
1B
100
AcDbEntity
 67
     1
  8
0
  6
Continuous
 62
     7
370
     0
100
AcDbMText
 10
342.6146405229
 20
62.5329935751
 30
0.0
 40
1.5
 41
0.0
 71
     1
 72
     1
  1
DO NOT SCALE DRAWING
  7
SLDTEXTSTYLE0
 73
     1
 44
1.0
  0
MTEXT
  5
2CC
330
1B
100
AcDbEntity
 67
     1
  8
0
  6
Continuous
 62
     7
370
     0
100
AcDbMText
 10
383.3275816993
 20
62.3349086805
 30
0.0
 40
1.5
 41
0.0
 71
     1
 72
     1
  1
REVISION
  7
SLDTEXTSTYLE0
 73
     1
 44
1.0
  0
MTEXT
  5
2CD
330
1B
100
AcDbEntity
 67
     1
  8
0
  6
Continuous
 62
     7
370
     0
100
AcDbMText
 10
330.090160639
 20
46.5761792212
 30
0.0
 40
1.5
 41
0.0
 71
     1
 72
     1
  1
TITLE:
  7
SLDTEXTSTYLE0
 73
     1
 44
1.0
  0
MTEXT
  5
2CE
330
1B
100
AcDbEntity
 67
     1
  8
0
  6
Continuous
 62
     7
370
     0
100
AcDbMText
 10
329.9530022162
 20
25.9860562892
 30
0.0
 40
1.5
 41
0.0
 71
     1
 72
     1
  1
DWG NO.
  7
SLDTEXTSTYLE0
 73
     1
 44
1.0
  0
MTEXT
  5
2CF
330
1B
100
AcDbEntity
 67
     1
  8
0
  6
Continuous
 62
     7
370
     0
100
AcDbMText
 10
330.0739661175
 20
12.9000872745
 30
0.0
 40
1.5
 41
0.0
 71
     1
 72
     1
  1
SCALE:1:1
  7
SLDTEXTSTYLE0
 73
     1
 44
1.0
  0
MTEXT
  5
2D1
330
1B
100
AcDbEntity
 67
     1
  8
0
  6
Continuous
 62
     7
370
     0
100
AcDbMText
 10
374.4782944278
 20
12.9000872745
 30
0.0
 40
1.5
 41
0.0
 71
     1
 72
     1
  1
SHEET 1 OF 1
  7
SLDTEXTSTYLE2
 73
     1
 44
1.0
  0
MTEXT
  5
2D2
330
1B
100
AcDbEntity
 67
     1
  8
0
  6
Continuous
 62
     7
370
     0
100
AcDbMText
 10
400.8711564346
 20
24.406388569
 30
0.0
 40
2.9104166667
 41
0.0
 71
     1
 72
     1
  1
A3
  7
SLDTEXTSTYLE0
 73
     1
 44
1.0
  0
MTEXT
  5
2D3
330
1B
100
AcDbEntity
 67
     1
  8
0
  6
Continuous
 62
     7
370
     0
100
AcDbMText
 10
285.6178111281
 20
12.9493119036
 30
0.0
 40
1.4986
 41
0.0
 71
     1
 72
     1
  1
WEIGHT:
  7
SLDTEXTSTYLE0
 73
     1
 44
1.0
  0
MTEXT
  5
2D4
330
1B
100
AcDbEntity
 67
     1
  8
0
  6
Continuous
 62
     7
370
     0
100
AcDbMText
 10
365.018031831
 20
23.6069109673
 30
0.0
 40
6.35
 41
0.0
 71
     2
 72
     1
  1
Enclosure
  7
SLDTEXTSTYLE0
 73
     1
 44
1.0
  0
ENDSEC
  0
SECTION
  2
OBJECTS
  0
DICTIONARY
  5
C
330
0
100
AcDbDictionary
281
     1
  3
ACAD_GROUP
350
D
  3
ACAD_LAYOUT
350
1A
  3
ACAD_MLINESTYLE
350
17
  3
ACAD_PLOTSETTINGS
350
19
  3
ACAD_PLOTSTYLENAME
350
E
  3
ACAD_SCALELIST
350
47
  0
DICTIONARY
  5
D
102
{ACAD_REACTORS
330
C
102
}
330
C
100
AcDbDictionary
281
     1
  0
DICTIONARY
  5
1A
102
{ACAD_REACTORS
330
C
102
}
330
C
100
AcDbDictionary
281
     1
  3
Model
350
22
  3
Sheet1
350
1E
  0
DICTIONARY
  5
17
102
{ACAD_REACTORS
330
C
102
}
330
C
100
AcDbDictionary
281
     1
  3
Standard
350
18
  0
DICTIONARY
  5
19
102
{ACAD_REACTORS
330
C
102
}
330
C
100
AcDbDictionary
281
     1
  0
ACDBDICTIONARYWDFLT
  5
E
102
{ACAD_REACTORS
330
C
102
}
330
C
100
AcDbDictionary
281
     1
  3
Normal
350
F
100
AcDbDictionaryWithDefault
340
F
  0
DICTIONARY
  5
47
102
{ACAD_REACTORS
330
C
102
}
330
C
100
AcDbDictionary
281
     1
  3
A0
350
48
  3
A1
350
49
  3
A2
350
4A
  3
A3
350
4B
  3
A4
350
4C
  3
A5
350
4D
  3
A6
350
4E
  3
A7
350
4F
  3
A8
350
50
  3
A9
350
51
  3
B0
350
52
  3
B1
350
53
  3
B2
350
54
  3
B3
350
55
  3
B4
350
56
  3
B5
350
57
  3
B6
350
58
  3
B7
350
59
  3
B8
350
5A
  3
B9
350
5B
  3
C0
350
5C
  3
C1
350
5D
  3
C2
350
5E
  3
C3
350
5F
  3
C4
350
60
  3
C5
350
61
  3
C6
350
62
  3
C7
350
63
  3
C8
350
64
  3
C9
350
65
  3
D0
350
66
  3
D1
350
67
  3
D2
350
68
  0
LAYOUT
  5
22
102
{ACAD_REACTORS
330
1A
102
}
330
1A
100
AcDbPlotSettings
  1

  2
none_device
  4
Letter_(8.50_x_11.00_Inches)
  6

 40
6.35
 41
6.35
 42
6.35000508
 43
6.35000508
 44
215.9
 45
279.4
 46
0.0
 47
0.0
 48
0.0
 49
0.0
140
0.0
141
0.0
142
1.0
143
1.0
 70
  1712
 72
     1
 73
     0
 74
     0
  7

 75
     0
147
1.0
148
0.0
149
0.0
100
AcDbLayout
  1
Model
 70
     1
 71
     0
 10
0.0
 20
0.0
 11
420.0
 21
297.0
 12
0.0
 22
0.0
 32
0.0
 14
0.0
 24
0.0
 34
0.0
 15
420.0
 25
297.0
 35
0.0
146
0.0
 13
0.0
 23
0.0
 33
0.0
 16
1.0
 26
0.0
 36
0.0
 17
0.0
 27
1.0
 37
0.0
 76
     0
330
1F
331
29
  0
LAYOUT
  5
1E
102
{ACAD_REACTORS
330
1A
102
}
330
1A
100
AcDbPlotSettings
  1

  2
none_device
  4
ISO_A3_(420.00_x_297.00_MM)
  6

 40
7.5
 41
20.0
 42
7.5
 43
20.0
 44
420.0
 45
297.0
 46
0.0
 47
0.0
 48
0.0
 49
0.0
140
0.0
141
0.0
142
1.0
143
1.0
 70
  4832
 72
     1
 73
     0
 74
     1
  7

 75
     0
147
1.0
148
0.0
149
0.0
100
AcDbLayout
  1
Sheet1
 70
     1
 71
     0
 10
0.0
 20
0.0
 11
420.0
 21
297.0
 12
0.0
 22
0.0
 32
0.0
 14
0.0
 24
0.0
 34
0.0
 15
420.0
 25
297.0
 35
0.0
146
0.0
 13
0.0
 23
0.0
 33
0.0
 16
1.0
 26
0.0
 36
0.0
 17
0.0
 27
1.0
 37
0.0
 76
     0
330
1B
331
74
  0
MLINESTYLE
  5
18
102
{ACAD_REACTORS
330
17
102
}
330
17
100
AcDbMlineStyle
  2
Standard
 70
     0
  3

 62
   256
 51
90.0
 52
90.0
 71
     2
 49
0.5
 62
   256
  6
BYLAYER
 49
-0.5
 62
   256
  6
BYLAYER
  0
ACDBPLACEHOLDER
  5
F
102
{ACAD_REACTORS
330
E
102
}
330
E
  0
SCALE
  5
48
102
{ACAD_REACTORS
330
47
102
}
330
47
100
AcDbScale
 70
     0
300
1:1
140
1.0
141
1.0
290
     1
  0
SCALE
  5
49
102
{ACAD_REACTORS
330
47
102
}
330
47
100
AcDbScale
 70
     0
300
1:2
140
1.0
141
2.0
290
     0
  0
SCALE
  5
4A
102
{ACAD_REACTORS
330
47
102
}
330
47
100
AcDbScale
 70
     0
300
1:4
140
1.0
141
4.0
290
     0
  0
SCALE
  5
4B
102
{ACAD_REACTORS
330
47
102
}
330
47
100
AcDbScale
 70
     0
300
1:5
140
1.0
141
5.0
290
     0
  0
SCALE
  5
4C
102
{ACAD_REACTORS
330
47
102
}
330
47
100
AcDbScale
 70
     0
300
1:8
140
1.0
141
8.0
290
     0
  0
SCALE
  5
4D
102
{ACAD_REACTORS
330
47
102
}
330
47
100
AcDbScale
 70
     0
300
1:10
140
1.0
141
10.0
290
     0
  0
SCALE
  5
4E
102
{ACAD_REACTORS
330
47
102
}
330
47
100
AcDbScale
 70
     0
300
1:16
140
1.0
141
16.0
290
     0
  0
SCALE
  5
4F
102
{ACAD_REACTORS
330
47
102
}
330
47
100
AcDbScale
 70
     0
300
1:20
140
1.0
141
20.0
290
     0
  0
SCALE
  5
50
102
{ACAD_REACTORS
330
47
102
}
330
47
100
AcDbScale
 70
     0
300
1:30
140
1.0
141
30.0
290
     0
  0
SCALE
  5
51
102
{ACAD_REACTORS
330
47
102
}
330
47
100
AcDbScale
 70
     0
300
1:40
140
1.0
141
40.0
290
     0
  0
SCALE
  5
52
102
{ACAD_REACTORS
330
47
102
}
330
47
100
AcDbScale
 70
     0
300
1:50
140
1.0
141
50.0
290
     0
  0
SCALE
  5
53
102
{ACAD_REACTORS
330
47
102
}
330
47
100
AcDbScale
 70
     0
300
1:100
140
1.0
141
100.0
290
     0
  0
SCALE
  5
54
102
{ACAD_REACTORS
330
47
102
}
330
47
100
AcDbScale
 70
     0
300
2:1
140
2.0
141
1.0
290
     0
  0
SCALE
  5
55
102
{ACAD_REACTORS
330
47
102
}
330
47
100
AcDbScale
 70
     0
300
4:1
140
4.0
141
1.0
290
     0
  0
SCALE
  5
56
102
{ACAD_REACTORS
330
47
102
}
330
47
100
AcDbScale
 70
     0
300
8:1
140
8.0
141
1.0
290
     0
  0
SCALE
  5
57
102
{ACAD_REACTORS
330
47
102
}
330
47
100
AcDbScale
 70
     0
300
10:1
140
10.0
141
1.0
290
     0
  0
SCALE
  5
58
102
{ACAD_REACTORS
330
47
102
}
330
47
100
AcDbScale
 70
     0
300
100:1
140
100.0
141
1.0
290
     0
  0
SCALE
  5
59
102
{ACAD_REACTORS
330
47
102
}
330
47
100
AcDbScale
 70
     0
300
1/128" = 1'-0"
140
0.0078125
141
12.0
290
     0
  0
SCALE
  5
5A
102
{ACAD_REACTORS
330
47
102
}
330
47
100
AcDbScale
 70
     0
300
1/64" = 1'-0"
140
0.015625
141
12.0
290
     0
  0
SCALE
  5
5B
102
{ACAD_REACTORS
330
47
102
}
330
47
100
AcDbScale
 70
     0
300
1/32" = 1'-0"
140
0.03125
141
12.0
290
     0
  0
SCALE
  5
5C
102
{ACAD_REACTORS
330
47
102
}
330
47
100
AcDbScale
 70
     0
300
1/16" = 1'-0"
140
0.0625
141
12.0
290
     0
  0
SCALE
  5
5D
102
{ACAD_REACTORS
330
47
102
}
330
47
100
AcDbScale
 70
     0
300
3/32" = 1'-0"
140
0.09375
141
12.0
290
     0
  0
SCALE
  5
5E
102
{ACAD_REACTORS
330
47
102
}
330
47
100
AcDbScale
 70
     0
300
1/8" = 1'-0"
140
0.125
141
12.0
290
     0
  0
SCALE
  5
5F
102
{ACAD_REACTORS
330
47
102
}
330
47
100
AcDbScale
 70
     0
300
3/16" = 1'-0"
140
0.1875
141
12.0
290
     0
  0
SCALE
  5
60
102
{ACAD_REACTORS
330
47
102
}
330
47
100
AcDbScale
 70
     0
300
1/4" = 1'-0"
140
0.25
141
12.0
290
     0
  0
SCALE
  5
61
102
{ACAD_REACTORS
330
47
102
}
330
47
100
AcDbScale
 70
     0
300
3/8" = 1'-0"
140
0.375
141
12.0
290
     0
  0
SCALE
  5
62
102
{ACAD_REACTORS
330
47
102
}
330
47
100
AcDbScale
 70
     0
300
1/2" = 1'-0"
140
0.5
141
12.0
290
     0
  0
SCALE
  5
63
102
{ACAD_REACTORS
330
47
102
}
330
47
100
AcDbScale
 70
     0
300
3/4" = 1'-0"
140
0.75
141
12.0
290
     0
  0
SCALE
  5
64
102
{ACAD_REACTORS
330
47
102
}
330
47
100
AcDbScale
 70
     0
300
1" = 1'-0"
140
1.0
141
12.0
290
     0
  0
SCALE
  5
65
102
{ACAD_REACTORS
330
47
102
}
330
47
100
AcDbScale
 70
     0
300
1-1/2" = 1'-0"
140
1.5
141
12.0
290
     0
  0
SCALE
  5
66
102
{ACAD_REACTORS
330
47
102
}
330
47
100
AcDbScale
 70
     0
300
3" = 1'-0"
140
3.0
141
12.0
290
     0
  0
SCALE
  5
67
102
{ACAD_REACTORS
330
47
102
}
330
47
100
AcDbScale
 70
     0
300
6" = 1'-0"
140
6.0
141
12.0
290
     0
  0
SCALE
  5
68
102
{ACAD_REACTORS
330
47
102
}
330
47
100
AcDbScale
 70
     0
300
1'-0" = 1'-0"
140
12.0
141
12.0
290
     0
  0
ENDSEC
  0
EOF
